<svg version="1.1" baseProfile="full" xmlns="http://www.w3.org/2000/svg"
width="214.4" height="1024"
viewBox="-4.299 -69.74 14.81 70.74"
>
<rect x="-4.299" y="-69.74" width="100%" height="100%" fill="white" />
<path stroke="green" stroke-width="0.04" stroke-linecap="round" fill="none"
transform="scale(1 -1)"
d="	M 0 0
	L 0 1
	L -0.2079 1.978
	M 0 1
	L 0 2
	L -0.2079 2.978
	L -0.6146 3.892
	M -0.2079 2.978
	L -0.4158 3.956
	M 0 2
	L 0 3
	L -0.2079 3.978
	M 0 3
	L 0 4
	L 0.2079 4.978
	M 0 4
	L 0 5
	L 0.2079 5.978
	L 0.2079 6.978
	M 0.2079 5.978
	L 0.4158 6.956
	L 0.8226 7.87
	M 0.4158 6.956
	L 0.6237 7.934
	M 0 5
	L 0 6
	L -0.2079 6.978
	M 0 6
	L 0 7
	L 0.2079 7.978
	M 0 7
	L 0 8
	L -0.2079 8.978
	L -0.2079 9.978
	M -0.2079 8.978
	L -0.4158 9.956
	L -0.4158 10.96
	L -0.2079 11.93
	M -0.4158 10.96
	L -0.4158 11.96
	M -0.4158 9.956
	L -0.6237 10.93
	L -1.03 11.85
	M -0.6237 10.93
	L -0.8316 11.91
	L -0.8316 12.91
	M -0.8316 11.91
	L -1.04 12.89
	M 0 8
	L 0 9
	L -0.2079 9.978
	M 0 9
	L 0 10
	L 0.2079 10.98
	M 0 10
	L 0 11
	L -0.2079 11.98
	L -0.6146 12.89
	M -0.2079 11.98
	L -0.4158 12.96
	L -0.4158 13.96
	M -0.4158 12.96
	L -0.6237 13.93
	M 0 11
	L 0 12
	L 0.2079 12.98
	M 0 12
	L 0 13
	L 0.2079 13.98
	L 0.2079 14.98
	M 0.2079 13.98
	L 0.4158 14.96
	L 0.8226 15.87
	M 0.4158 14.96
	L 0.6237 15.93
	L 1.03 16.85
	L 1.238 17.83
	M 1.03 16.85
	L 1.437 17.76
	M 0.6237 15.93
	L 0.8316 16.91
	L 0.8316 17.91
	M 0.8316 16.91
	L 1.04 17.89
	M 0 13
	L 0 14
	L 0.2079 14.98
	M 0 14
	L 0 15
	L -0.2079 15.98
	L -0.6146 16.89
	M -0.2079 15.98
	L -0.4158 16.96
	L -0.4158 17.96
	M -0.4158 16.96
	L -0.6237 17.93
	M 0 15
	L 0 16
	L -0.2079 16.98
	M 0 16
	L 0 17
	L 0.2079 17.98
	M 0 17
	L 0 18
	L 0.2079 18.98
	L 0.6146 19.89
	M 0.2079 18.98
	L 0.4158 19.96
	M 0 18
	L 0 19
	L -0.2079 19.98
	M 0 19
	L 0 20
	L 0.2079 20.98
	M 0 20
	L 0 21
	L -0.2079 21.98
	L -0.6146 22.89
	M -0.2079 21.98
	L -0.4158 22.96
	L -0.4158 23.96
	L -0.6237 24.93
	M -0.4158 23.96
	L -0.4158 24.96
	L -0.2079 25.93
	M -0.4158 24.96
	L -0.4158 25.96
	M -0.4158 22.96
	L -0.6237 23.93
	L -1.03 24.85
	M -0.6237 23.93
	L -0.8316 24.91
	L -0.8316 25.91
	M -0.8316 24.91
	L -1.04 25.89
	L -1.446 26.8
	L -1.654 27.78
	M -1.446 26.8
	L -1.853 27.72
	L -2.441 28.53
	L -3.184 29.2
	M -2.441 28.53
	L -3.029 29.34
	M -1.853 27.72
	L -2.26 28.63
	L -2.848 29.44
	M -2.26 28.63
	L -2.667 29.54
	L -2.874 30.52
	M -2.667 29.54
	L -3.073 30.46
	M -1.04 25.89
	L -1.247 26.87
	L -1.654 27.78
	M -1.247 26.87
	L -1.455 27.85
	L -1.862 28.76
	L -2.45 29.57
	M -1.862 28.76
	L -2.269 29.67
	M -1.455 27.85
	L -1.663 28.83
	L -2.07 29.74
	M -1.663 28.83
	L -1.871 29.8
	L -1.871 30.8
	M -1.871 29.8
	L -2.079 30.78
	M 0 21
	L 0 22
	L -0.2079 22.98
	M 0 22
	L 0 23
	L 0.2079 23.98
	L 0.2079 24.98
	M 0.2079 23.98
	L 0.4158 24.96
	L 0.8226 25.87
	M 0.4158 24.96
	L 0.6237 25.93
	M 0 23
	L 0 24
	L -0.2079 24.98
	M 0 24
	L 0 25
	L 0.2079 25.98
	M 0 25
	L 0 26
	L -0.2079 26.98
	L -0.2079 27.98
	M -0.2079 26.98
	L -0.4158 27.96
	L -0.8226 28.87
	L -1.41 29.68
	M -0.8226 28.87
	L -1.229 29.78
	L -1.437 30.76
	M -1.229 29.78
	L -1.636 30.7
	M -0.4158 27.96
	L -0.6237 28.93
	L -1.03 29.85
	M -0.6237 28.93
	L -0.8316 29.91
	M 0 26
	L 0 27
	L -0.2079 27.98
	M 0 27
	L 0 28
	L 0.2079 28.98
	L 0.2079 29.98
	M 0.2079 28.98
	L 0.4158 29.96
	M 0 28
	L 0 29
	L -0.2079 29.98
	M 0 29
	L 0 30
	L 0.2079 30.98
	M 0 30
	L 0 31
	L 0.2079 31.98
	L 0.2079 32.98
	M 0.2079 31.98
	L 0.4158 32.96
	L 0.8226 33.87
	L 1.03 34.85
	M 0.8226 33.87
	L 1.229 34.78
	M 0.4158 32.96
	L 0.6237 33.93
	L 0.6237 34.93
	M 0.6237 33.93
	L 0.8316 34.91
	L 1.238 35.83
	M 0.8316 34.91
	L 1.04 35.89
	L 1.446 36.8
	L 1.654 37.78
	M 1.446 36.8
	L 1.853 37.72
	L 2.441 38.53
	L 2.848 39.44
	M 2.441 38.53
	L 3.029 39.34
	M 1.853 37.72
	L 2.26 38.63
	L 2.468 39.61
	M 2.26 38.63
	L 2.667 39.54
	M 1.04 35.89
	L 1.247 36.87
	L 1.654 37.78
	M 1.247 36.87
	L 1.455 37.85
	L 1.455 38.85
	L 1.247 39.83
	M 1.455 38.85
	L 1.455 39.85
	M 1.455 37.85
	L 1.663 38.83
	L 2.07 39.74
	M 1.663 38.83
	L 1.871 39.8
	M 0 31
	L 0 32
	L -0.2079 32.98
	M 0 32
	L 0 33
	L 0.2079 33.98
	L 0.6146 34.89
	M 0.2079 33.98
	L 0.4158 34.96
	M 0 33
	L 0 34
	L -0.2079 34.98
	M 0 34
	L 0 35
	L 0.2079 35.98
	L 0.2079 36.98
	M 0.2079 35.98
	L 0.4158 36.96
	L 0.8226 37.87
	M 0.4158 36.96
	L 0.6237 37.93
	L 1.03 38.85
	L 1.238 39.83
	M 1.03 38.85
	L 1.437 39.76
	L 2.025 40.57
	M 1.437 39.76
	L 1.844 40.68
	M 0.6237 37.93
	L 0.8316 38.91
	L 0.8316 39.91
	M 0.8316 38.91
	L 1.04 39.89
	M 0 35
	L 0 36
	L 0.2079 36.98
	M 0 36
	L 0 37
	L 0.2079 37.98
	L 0.2079 38.98
	M 0.2079 37.98
	L 0.4158 38.96
	M 0 37
	L 0 38
	L 0.2079 38.98
	M 0 38
	L 0 39
	L 0.2079 39.98
	L 0.2079 40.98
	M 0.2079 39.98
	L 0.4158 40.96
	L 0.8226 41.87
	L 1.41 42.68
	M 0.8226 41.87
	L 1.229 42.78
	M 0.4158 40.96
	L 0.6237 41.93
	L 1.03 42.85
	M 0.6237 41.93
	L 0.8316 42.91
	L 0.8316 43.91
	L 0.6237 44.89
	M 0.8316 43.91
	L 0.8316 44.91
	L 1.04 45.89
	M 0.8316 44.91
	L 0.8316 45.91
	L 1.04 46.89
	L 1.04 47.89
	M 1.04 46.89
	L 1.247 47.87
	L 1.654 48.78
	M 1.247 47.87
	L 1.455 48.85
	M 0.8316 45.91
	L 0.8316 46.91
	L 0.6237 47.89
	M 0.8316 46.91
	L 0.8316 47.91
	L 1.04 48.89
	M 0.8316 47.91
	L 0.8316 48.91
	M 0.8316 42.91
	L 1.04 43.89
	L 1.04 44.89
	M 1.04 43.89
	L 1.247 44.87
	L 1.247 45.87
	L 1.04 46.85
	M 1.247 45.87
	L 1.247 46.87
	M 1.247 44.87
	L 1.455 45.85
	L 1.455 46.85
	M 1.455 45.85
	L 1.663 46.83
	L 2.07 47.74
	M 1.663 46.83
	L 1.871 47.8
	L 2.278 48.72
	L 2.486 49.7
	M 2.278 48.72
	L 2.685 49.63
	L 3.272 50.44
	M 2.685 49.63
	L 3.091 50.54
	L 3.299 51.52
	L 3.299 52.52
	M 3.299 51.52
	L 3.507 52.5
	L 3.914 53.41
	M 3.507 52.5
	L 3.715 53.48
	M 3.091 50.54
	L 3.498 51.46
	L 4.086 52.27
	M 3.498 51.46
	L 3.905 52.37
	L 4.493 53.18
	L 5.236 53.85
	M 4.493 53.18
	L 5.08 53.99
	M 3.905 52.37
	L 4.312 53.28
	L 4.899 54.09
	M 4.312 53.28
	L 4.718 54.2
	L 4.926 55.18
	L 4.926 56.18
	M 4.926 55.18
	L 5.134 56.15
	L 5.134 57.15
	L 4.926 58.13
	M 5.134 57.15
	L 5.134 58.15
	L 5.342 59.13
	M 5.134 58.15
	L 5.134 59.15
	M 5.134 56.15
	L 5.342 57.13
	L 5.342 58.13
	M 5.342 57.13
	L 5.55 58.11
	L 5.957 59.02
	L 6.545 59.83
	M 5.957 59.02
	L 6.363 59.94
	M 5.55 58.11
	L 5.758 59.09
	L 5.758 60.09
	M 5.758 59.09
	L 5.966 60.07
	M 4.718 54.2
	L 5.125 55.11
	L 5.333 56.09
	M 5.125 55.11
	L 5.532 56.03
	L 5.74 57
	L 5.74 58
	M 5.74 57
	L 5.948 57.98
	M 5.532 56.03
	L 5.939 56.94
	L 6.146 57.92
	M 5.939 56.94
	L 6.345 57.85
	L 6.933 58.66
	L 7.676 59.33
	M 6.933 58.66
	L 7.521 59.47
	M 6.345 57.85
	L 6.752 58.77
	L 6.96 59.74
	M 6.752 58.77
	L 7.159 59.68
	L 7.747 60.49
	L 8.49 61.16
	M 7.747 60.49
	L 8.334 61.3
	L 8.741 62.21
	L 8.949 63.19
	M 8.741 62.21
	L 9.148 63.12
	M 8.334 61.3
	L 8.922 62.11
	L 9.329 63.02
	M 8.922 62.11
	L 9.51 62.92
	M 7.159 59.68
	L 7.566 60.59
	L 7.773 61.57
	M 7.566 60.59
	L 7.972 61.51
	L 8.18 62.48
	L 8.18 63.48
	M 8.18 62.48
	L 8.388 63.46
	M 7.972 61.51
	L 8.379 62.42
	L 8.967 63.23
	M 8.379 62.42
	L 8.786 63.33
	M 1.871 47.8
	L 2.079 48.78
	L 2.486 49.7
	M 2.079 48.78
	L 2.287 49.76
	L 2.694 50.67
	L 2.902 51.65
	M 2.694 50.67
	L 3.101 51.59
	M 2.287 49.76
	L 2.495 50.74
	L 2.495 51.74
	M 2.495 50.74
	L 2.703 51.72
	L 2.703 52.72
	L 2.495 53.69
	M 2.703 52.72
	L 2.703 53.72
	L 2.911 54.69
	M 2.703 53.72
	L 2.703 54.72
	L 2.495 55.69
	L 2.088 56.61
	M 2.495 55.69
	L 2.287 56.67
	M 2.703 54.72
	L 2.703 55.72
	L 2.911 56.69
	M 2.703 55.72
	L 2.703 56.72
	L 2.911 57.69
	L 3.318 58.61
	M 2.911 57.69
	L 3.119 58.67
	M 2.703 56.72
	L 2.703 57.72
	L 2.495 58.69
	M 2.703 57.72
	L 2.703 58.72
	M 2.703 51.72
	L 2.911 52.69
	L 3.318 53.61
	M 2.911 52.69
	L 3.119 53.67
	L 3.119 54.67
	L 2.911 55.65
	M 3.119 54.67
	L 3.119 55.67
	M 3.119 53.67
	L 3.327 54.65
	L 3.327 55.65
	M 3.327 54.65
	L 3.534 55.63
	L 3.941 56.54
	M 3.534 55.63
	L 3.742 56.61
	L 4.149 57.52
	L 4.737 58.33
	M 4.149 57.52
	L 4.556 58.43
	L 4.764 59.41
	L 4.764 60.41
	M 4.764 59.41
	L 4.972 60.39
	M 4.556 58.43
	L 4.963 59.35
	L 5.171 60.33
	M 4.963 59.35
	L 5.369 60.26
	M 3.742 56.61
	L 3.95 57.58
	L 3.95 58.58
	M 3.95 57.58
	L 4.158 58.56
	L 4.565 59.48
	M 4.158 58.56
	L 4.366 59.54
	L 4.773 60.45
	L 5.361 61.26
	M 4.773 60.45
	L 5.18 61.37
	M 4.366 59.54
	L 4.574 60.52
	L 4.574 61.52
	M 4.574 60.52
	L 4.782 61.5
	M 0 39
	L 0 40
	L 0.2079 40.98
	M 0 40
	L 0 41
	L -0.2079 41.98
	L -0.6146 42.89
	M -0.2079 41.98
	L -0.4158 42.96
	M 0 41
	L 0 42
	L 0.2079 42.98
	M 0 42
	L 0 43
	L 0.2079 43.98
	L 0.6146 44.89
	M 0.2079 43.98
	L 0.4158 44.96
	M 0 43
	L 0 44
	L 0.2079 44.98
	M 0 44
	L 0 45
	L -0.2079 45.98
	L -0.6146 46.89
	M -0.2079 45.98
	L -0.4158 46.96
	L -0.8226 47.87
	L -1.41 48.68
	M -0.8226 47.87
	L -1.229 48.78
	L -1.437 49.76
	M -1.229 48.78
	L -1.636 49.7
	M -0.4158 46.96
	L -0.6237 47.93
	L -1.03 48.85
	M -0.6237 47.93
	L -0.8316 48.91
	L -0.8316 49.91
	M -0.8316 48.91
	L -1.04 49.89
	M 0 45
	L 0 46
	L -0.2079 46.98
	M 0 46
	L 0 47
	L 0.2079 47.98
	L 0.2079 48.98
	M 0.2079 47.98
	L 0.4158 48.96
	M 0 47
	L 0 48
	L 0.2079 48.98
	M 0 48
	L 0 49
	L 0.2079 49.98
	L 0.2079 50.98
	M 0.2079 49.98
	L 0.4158 50.96
	L 0.8226 51.87
	M 0.4158 50.96
	L 0.6237 51.93
	L 0.6237 52.93
	L 0.8316 53.91
	M 0.6237 52.93
	L 0.6237 53.93
	M 0.6237 51.93
	L 0.8316 52.91
	L 1.238 53.83
	M 0.8316 52.91
	L 1.04 53.89
	M 0 49
	L 0 50
	L -0.2079 50.98
	M 0 50
	L 0 51
	L 0.2079 51.98
	M 0 51
	L 0 52
	L 0.2079 52.98
	L 0.2079 53.98
	M 0.2079 52.98
	L 0.4158 53.96
	M 0 52
	L 0 53
	L -0.2079 53.98
	M 0 53
	L 0 54
	L -0.2079 54.98
	L -0.2079 55.98
	M -0.2079 54.98
	L -0.4158 55.96
	L -0.8226 56.87
	L -1.41 57.68
	M -0.8226 56.87
	L -1.229 57.78
	M -0.4158 55.96
	L -0.6237 56.93
	L -1.03 57.85
	M -0.6237 56.93
	L -0.8316 57.91
	L -0.8316 58.91
	L -0.6237 59.89
	M -0.8316 58.91
	L -0.8316 59.91
	M -0.8316 57.91
	L -1.04 58.89
	L -1.446 59.8
	M -1.04 58.89
	L -1.247 59.87
	L -1.247 60.87
	M -1.247 59.87
	L -1.455 60.85
	L -1.455 61.85
	L -1.663 62.83
	M -1.455 61.85
	L -1.455 62.85
	L -1.247 63.83
	M -1.455 62.85
	L -1.455 63.85
	L -1.247 64.83
	L -1.247 65.83
	M -1.247 64.83
	L -1.04 65.8
	L -0.6328 66.72
	M -1.04 65.8
	L -0.8316 66.78
	M -1.455 63.85
	L -1.455 64.85
	L -1.663 65.83
	M -1.455 64.85
	L -1.455 65.85
	M -1.455 60.85
	L -1.663 61.83
	L -2.07 62.74
	M -1.663 61.83
	L -1.871 62.8
	L -1.871 63.8
	M -1.871 62.8
	L -2.079 63.78
	L -2.486 64.7
	L -3.074 65.5
	M -2.486 64.7
	L -2.893 65.61
	L -3.101 66.59
	M -2.893 65.61
	L -3.299 66.52
	M -2.079 63.78
	L -2.287 64.76
	L -2.287 65.76
	M -2.287 64.76
	L -2.495 65.74
	L -2.495 66.74
	L -2.703 67.72
	M -2.495 66.74
	L -2.495 67.74
	L -2.287 68.72
	M -2.495 67.74
	L -2.495 68.74
	M -2.495 65.74
	L -2.703 66.72
	L -3.11 67.63
	M -2.703 66.72
	L -2.911 67.69
	L -2.911 68.69
	M -2.911 67.69
	L -3.119 68.67
	M 0 54
	L 0 55
	L -0.2079 55.98
	M 0 55
	L 0 56
	L 0.2079 56.98
	M 0 56
	L 0 57
	L -0.2079 57.98
	L -0.2079 58.98
	M -0.2079 57.98
	L -0.4158 58.96
	M 0 57
	L 0 58
	L -0.2079 58.98
	M 0 58
	L 0 59
	L 0.2079 59.98
	M 0 59
	L 0 60
	L -0.2079 60.98
	L -0.6146 61.89
	M -0.2079 60.98
	L -0.4158 61.96
	L -0.4158 62.96
	M -0.4158 61.96
	L -0.6237 62.93
	L -1.03 63.85
	L -1.618 64.66
	M -1.03 63.85
	L -1.437 64.76
	L -1.645 65.74
	M -1.437 64.76
	L -1.844 65.68
	M -0.6237 62.93
	L -0.8316 63.91
	L -1.238 64.83
	M -0.8316 63.91
	L -1.04 64.89
	L -1.04 65.89
	L -1.247 66.87
	M -1.04 65.89
	L -1.04 66.89
	L -0.8316 67.87
	M -1.04 66.89
	L -1.04 67.89
	M -1.04 64.89
	L -1.247 65.87
	L -1.654 66.78
	M -1.247 65.87
	L -1.455 66.85
	M 0 60
	L 0 61
	L -0.2079 61.98
	M 0 61
	L 0 62
	L 0.2079 62.98
	M 0 62
	L 0 63
	L 0.2079 63.98
	L 0.6146 64.89
	M 0.2079 63.98
	L 0.4158 64.96
	M 0 63
	L 0 64
	L 0.2079 64.98
	M 0 64
	L 0 65
"/>
</svg>
