<svg version="1.1" baseProfile="full" xmlns="http://www.w3.org/2000/svg"
width="1024" height="775.2"
viewBox="-19.62 -90.93 258.6 195.7"
>
<rect x="-19.62" y="-90.93" width="100%" height="100%" fill="white" />
<path stroke="green" stroke-width="0.04" stroke-linecap="round" fill="none"
transform="scale(1 -1)"
d="	M 0 0
	L 0.9877 0.1564
	L 1.975 0.3129
	L 2.926 0.6219
	L 3.877 0.9309
	L 4.829 1.24
	L 5.78 1.549
	L 6.767 1.705
	L 7.755 1.862
	L 8.743 2.018
	L 9.73 2.175
	L 10.68 2.484
	L 11.63 2.793
	L 12.58 3.102
	L 13.53 3.411
	L 13.23 4.362
	L 13.38 5.349
	M 13.23 4.362
	L 12.92 5.313
	L 12.21 6.02
	L 11.26 6.329
	M 12.21 6.02
	L 11.5 6.727
	M 12.92 5.313
	L 12.61 6.264
	L 12.76 7.252
	M 12.61 6.264
	L 12.3 7.215
	L 11.59 7.922
	L 11.28 8.873
	M 11.59 7.922
	L 10.88 8.629
	L 9.933 8.938
	L 9.226 9.645
	M 9.933 8.938
	L 8.982 9.247
	M 10.88 8.629
	L 10.18 9.336
	L 9.226 9.645
	M 10.18 9.336
	L 9.47 10.04
	L 9.161 10.99
	L 8.454 11.7
	M 9.161 10.99
	L 8.852 11.95
	M 9.47 10.04
	L 8.763 10.75
	L 7.812 11.06
	M 8.763 10.75
	L 8.056 11.46
	L 7.747 12.41
	M 8.056 11.46
	L 7.349 12.16
	M 12.3 7.215
	L 11.99 8.166
	L 11.28 8.873
	M 11.99 8.166
	L 11.68 9.117
	L 10.97 9.824
	L 10.02 10.13
	M 10.97 9.824
	L 10.27 10.53
	L 9.957 11.48
	M 10.27 10.53
	L 9.559 11.24
	M 11.68 9.117
	L 11.37 10.07
	L 10.66 10.78
	M 11.37 10.07
	L 11.06 11.02
	L 11.22 12.01
	M 11.06 11.02
	L 10.75 11.97
	L 10.05 12.68
	L 9.095 12.99
	M 10.05 12.68
	L 9.339 13.38
	L 9.03 14.34
	M 9.339 13.38
	L 8.632 14.09
	L 7.681 14.4
	L 6.693 14.24
	M 7.681 14.4
	L 6.73 14.71
	L 6.023 15.42
	M 6.73 14.71
	L 5.779 15.02
	M 8.632 14.09
	L 7.925 14.8
	L 7.616 15.75
	M 7.925 14.8
	L 7.218 15.51
	L 6.909 16.46
	L 7.065 17.44
	M 6.909 16.46
	L 6.6 17.41
	M 7.218 15.51
	L 6.511 16.21
	L 5.56 16.52
	M 6.511 16.21
	L 5.804 16.92
	L 5.495 17.87
	L 5.651 18.86
	M 5.495 17.87
	L 5.186 18.82
	L 5.342 19.81
	L 5.93 20.62
	M 5.342 19.81
	L 5.499 20.8
	M 5.186 18.82
	L 4.877 19.77
	L 5.033 20.76
	M 4.877 19.77
	L 4.568 20.72
	M 5.804 16.92
	L 5.097 17.63
	L 4.146 17.94
	M 5.097 17.63
	L 4.389 18.33
	L 3.438 18.64
	L 2.451 18.49
	M 3.438 18.64
	L 2.487 18.95
	M 4.389 18.33
	L 3.682 19.04
	L 2.731 19.35
	M 3.682 19.04
	L 2.975 19.75
	M 10.75 11.97
	L 10.44 12.92
	L 9.737 13.63
	M 10.44 12.92
	L 10.14 13.87
	L 10.29 14.86
	L 9.983 15.81
	M 10.29 14.86
	L 10.45 15.85
	M 10.14 13.87
	L 9.826 14.82
	L 9.983 15.81
	M 9.826 14.82
	L 9.517 15.77
	L 9.674 16.76
	L 9.365 17.71
	M 9.674 16.76
	L 9.83 17.75
	L 10.42 18.56
	M 9.83 17.75
	L 9.987 18.74
	L 9.678 19.69
	L 8.971 20.4
	M 9.678 19.69
	L 9.369 20.64
	M 9.987 18.74
	L 10.14 19.73
	L 9.834 20.68
	M 10.14 19.73
	L 10.3 20.71
	M 9.517 15.77
	L 9.208 16.73
	L 8.501 17.43
	M 9.208 16.73
	L 8.899 17.68
	L 9.056 18.66
	M 8.899 17.68
	L 8.59 18.63
	L 7.883 19.33
	L 6.932 19.64
	M 7.883 19.33
	L 7.176 20.04
	L 6.867 20.99
	M 7.176 20.04
	L 6.469 20.75
	M 8.59 18.63
	L 8.281 19.58
	L 8.438 20.57
	M 8.281 19.58
	L 7.972 20.53
	L 8.129 21.52
	L 7.82 22.47
	M 8.129 21.52
	L 8.285 22.51
	M 7.972 20.53
	L 7.663 21.48
	L 7.82 22.47
	M 7.663 21.48
	L 7.354 22.43
	L 7.511 23.42
	L 7.202 24.37
	M 7.511 23.42
	L 7.667 24.41
	L 7.358 25.36
	L 6.651 26.07
	M 7.358 25.36
	L 7.049 26.31
	M 7.667 24.41
	L 7.824 25.39
	L 8.411 26.2
	M 7.824 25.39
	L 7.98 26.38
	L 7.671 27.33
	L 7.827 28.32
	M 7.671 27.33
	L 7.362 28.28
	L 6.655 28.99
	L 5.704 29.3
	M 6.655 28.99
	L 5.948 29.7
	L 5.639 30.65
	M 5.948 29.7
	L 5.241 30.41
	M 7.362 28.28
	L 7.053 29.24
	L 7.209 30.22
	M 7.053 29.24
	L 6.744 30.19
	M 7.98 26.38
	L 8.136 27.37
	L 7.827 28.32
	M 8.136 27.37
	L 8.293 28.36
	L 8.881 29.17
	L 9.037 30.15
	M 8.881 29.17
	L 9.468 29.98
	M 8.293 28.36
	L 8.449 29.35
	L 8.14 30.3
	M 8.449 29.35
	L 8.606 30.33
	M 7.354 22.43
	L 7.045 23.38
	L 6.338 24.09
	M 7.045 23.38
	L 6.736 24.33
	L 6.893 25.32
	M 6.736 24.33
	L 6.427 25.29
	L 6.584 26.27
	L 6.275 27.22
	M 6.584 26.27
	L 6.74 27.26
	L 7.328 28.07
	M 6.74 27.26
	L 6.896 28.25
	M 6.427 25.29
	L 6.118 26.24
	L 6.275 27.22
	M 6.118 26.24
	L 5.809 27.19
	L 5.966 28.17
	L 5.657 29.13
	M 5.966 28.17
	L 6.122 29.16
	L 6.71 29.97
	M 6.122 29.16
	L 6.278 30.15
	L 5.969 31.1
	L 6.126 32.09
	M 5.969 31.1
	L 5.66 32.05
	M 6.278 30.15
	L 6.435 31.14
	L 7.023 31.95
	M 6.435 31.14
	L 6.591 32.13
	L 7.179 32.93
	L 7.336 33.92
	M 7.179 32.93
	L 7.767 33.74
	L 8.658 34.2
	M 7.767 33.74
	L 8.355 34.55
	M 6.591 32.13
	L 6.748 33.11
	L 6.439 34.06
	M 6.748 33.11
	L 6.904 34.1
	L 7.492 34.91
	M 6.904 34.1
	L 7.061 35.09
	M 5.809 27.19
	L 5.5 28.14
	L 5.657 29.13
	M 5.5 28.14
	L 5.191 29.09
	L 4.484 29.8
	L 4.175 30.75
	M 4.484 29.8
	L 3.777 30.5
	M 5.191 29.09
	L 4.882 30.04
	L 4.175 30.75
	M 4.882 30.04
	L 4.573 30.99
	L 4.73 31.98
	M 4.573 30.99
	L 4.264 31.94
	L 4.421 32.93
	L 5.008 33.74
	M 4.421 32.93
	L 4.577 33.92
	M 4.264 31.94
	L 3.955 32.89
	L 3.248 33.6
	M 3.955 32.89
	L 3.646 33.84
	L 2.939 34.55
	L 2.63 35.5
	M 2.939 34.55
	L 2.232 35.26
	L 1.281 35.57
	L 0.5737 36.27
	M 1.281 35.57
	L 0.3297 35.88
	M 2.232 35.26
	L 1.525 35.97
	L 0.5737 36.27
	M 1.525 35.97
	L 0.8176 36.67
	L 0.5086 37.62
	M 0.8176 36.67
	L 0.1105 37.38
	L -0.1985 38.33
	L -0.9056 39.04
	M -0.1985 38.33
	L -0.5075 39.28
	L -1.215 39.99
	L -2.166 40.3
	M -1.215 39.99
	L -1.922 40.7
	M -0.5075 39.28
	L -0.8166 40.23
	L -0.6601 41.22
	M -0.8166 40.23
	L -1.126 41.18
	L -0.9691 42.17
	L -1.278 43.12
	M -0.9691 42.17
	L -0.8127 43.16
	M -1.126 41.18
	L -1.435 42.14
	L -2.142 42.84
	M -1.435 42.14
	L -1.744 43.09
	L -1.587 44.07
	M -1.744 43.09
	L -2.053 44.04
	M 0.1105 37.38
	L -0.5966 38.09
	L -1.548 38.4
	M -0.5966 38.09
	L -1.304 38.79
	L -1.613 39.75
	M -1.304 38.79
	L -2.011 39.5
	L -2.32 40.45
	L -3.027 41.16
	M -2.32 40.45
	L -2.629 41.4
	L -2.472 42.39
	M -2.629 41.4
	L -2.938 42.35
	M -2.011 39.5
	L -2.718 40.21
	L -3.669 40.52
	M -2.718 40.21
	L -3.425 40.92
	L -3.734 41.87
	M -3.425 40.92
	L -4.132 41.62
	L -5.083 41.93
	L -6.071 41.78
	M -5.083 41.93
	L -6.034 42.24
	L -7.022 42.08
	L -7.973 42.39
	M -7.022 42.08
	L -8.01 41.93
	M -6.034 42.24
	L -6.985 42.55
	L -7.973 42.39
	M -6.985 42.55
	L -7.936 42.86
	L -8.643 43.57
	M -7.936 42.86
	L -8.887 43.17
	L -9.875 43.01
	L -10.68 42.42
	M -9.875 43.01
	L -10.86 42.85
	L -11.81 43.16
	L -12.8 43.01
	M -11.81 43.16
	L -12.76 43.47
	L -13.47 44.18
	M -12.76 43.47
	L -13.72 43.78
	M -10.86 42.85
	L -11.85 42.7
	L -12.8 43.01
	M -11.85 42.7
	L -12.84 42.54
	M -8.887 43.17
	L -9.838 43.48
	L -10.55 44.18
	M -9.838 43.48
	L -10.79 43.79
	L -11.5 44.49
	L -12.45 44.8
	M -11.5 44.49
	L -12.2 45.2
	M -10.79 43.79
	L -11.74 44.09
	L -12.73 43.94
	M -11.74 44.09
	L -12.69 44.4
	M -4.132 41.62
	L -4.839 42.33
	L -5.79 42.64
	M -4.839 42.33
	L -5.546 43.04
	L -6.497 43.35
	L -7.205 44.05
	M -6.497 43.35
	L -7.448 43.65
	M -5.546 43.04
	L -6.253 43.74
	L -6.562 44.7
	M -6.253 43.74
	L -6.961 44.45
	L -7.912 44.76
	L -8.619 45.47
	M -7.912 44.76
	L -8.863 45.07
	L -9.85 44.91
	L -10.66 44.32
	M -9.85 44.91
	L -10.84 44.76
	L -11.79 45.07
	M -10.84 44.76
	L -11.83 44.6
	M -8.863 45.07
	L -9.814 45.38
	L -10.8 45.22
	M -9.814 45.38
	L -10.76 45.69
	M -6.961 44.45
	L -7.668 45.16
	L -7.977 46.11
	M -7.668 45.16
	L -8.375 45.87
	L -9.326 46.17
	L -10.31 46.02
	M -9.326 46.17
	L -10.28 46.48
	M -8.375 45.87
	L -9.082 46.57
	L -10.03 46.88
	M -9.082 46.57
	L -9.789 47.28
	L -10.1 48.23
	M -9.789 47.28
	L -10.5 47.99
	L -10.81 48.94
	L -10.65 49.93
	M -10.81 48.94
	L -11.11 49.89
	L -10.96 50.88
	L -11.27 51.83
	M -10.96 50.88
	L -10.8 51.86
	M -11.11 49.89
	L -11.42 50.84
	L -12.13 51.55
	M -11.42 50.84
	L -11.73 51.79
	L -12.44 52.5
	L -13.39 52.81
	M -12.44 52.5
	L -13.15 53.21
	L -14.1 53.51
	L -15.09 53.36
	M -14.1 53.51
	L -15.05 53.82
	L -15.76 54.53
	M -15.05 53.82
	L -16 54.13
	M -13.15 53.21
	L -13.85 53.91
	L -14.16 54.86
	M -13.85 53.91
	L -14.56 54.62
	L -14.87 55.57
	L -15.58 56.28
	M -14.87 55.57
	L -15.18 56.52
	M -14.56 54.62
	L -15.27 55.33
	L -15.58 56.28
	M -15.27 55.33
	L -15.97 56.03
	M -11.73 51.79
	L -12.04 52.74
	L -12.75 53.45
	M -12.04 52.74
	L -12.35 53.69
	L -13.06 54.4
	L -14.01 54.71
	M -13.06 54.4
	L -13.76 55.11
	L -14.07 56.06
	M -13.76 55.11
	L -14.47 55.81
	M -12.35 53.69
	L -12.66 54.64
	L -13.37 55.35
	M -12.66 54.64
	L -12.97 55.6
	L -12.81 56.58
	L -13.12 57.53
	M -12.81 56.58
	L -12.66 57.57
	L -12.07 58.38
	M -12.66 57.57
	L -12.5 58.56
	M -12.97 55.6
	L -13.28 56.55
	L -13.12 57.53
	M -13.28 56.55
	L -13.59 57.5
	M -10.5 47.99
	L -11.2 48.69
	L -12.15 49
	M -11.2 48.69
	L -11.91 49.4
	L -12.86 49.71
	L -13.85 49.55
	M -12.86 49.71
	L -13.81 50.02
	M -11.91 49.4
	L -12.62 50.11
	L -12.93 51.06
	M -12.62 50.11
	L -13.32 50.82
	L -13.63 51.77
	L -14.34 52.47
	M -13.63 51.77
	L -13.94 52.72
	M -13.32 50.82
	L -14.03 51.52
	L -14.98 51.83
	M -14.03 51.52
	L -14.74 52.23
	L -15.69 52.54
	L -16.68 52.38
	M -15.69 52.54
	L -16.64 52.85
	L -17.63 52.69
	L -18.44 52.1
	M -17.63 52.69
	L -18.62 52.53
	M -16.64 52.85
	L -17.59 53.16
	L -18.3 53.86
	M -17.59 53.16
	L -18.54 53.47
	M -14.74 52.23
	L -15.45 52.94
	L -16.4 53.25
	M -15.45 52.94
	L -16.15 53.64
	L -16.46 54.59
	L -17.17 55.3
	M -16.46 54.59
	L -16.77 55.55
	M -16.15 53.64
	L -16.86 54.35
	L -17.81 54.66
	M -16.86 54.35
	L -17.57 55.06
	M 3.646 33.84
	L 3.337 34.8
	L 2.63 35.5
	M 3.337 34.8
	L 3.028 35.75
	L 3.184 36.73
	M 3.028 35.75
	L 2.719 36.7
	L 2.875 37.69
	L 2.566 38.64
	M 2.875 37.69
	L 3.032 38.67
	L 3.62 39.48
	M 3.032 38.67
	L 3.188 39.66
	M 2.719 36.7
	L 2.41 37.65
	L 2.566 38.64
	M 2.41 37.65
	L 2.101 38.6
	L 2.257 39.59
	L 1.948 40.54
	M 2.257 39.59
	L 2.414 40.58
	L 3.002 41.38
	M 2.414 40.58
	L 2.57 41.56
	L 3.158 42.37
	L 3.314 43.36
	M 3.158 42.37
	L 3.746 43.18
	L 4.637 43.63
	M 3.746 43.18
	L 4.334 43.99
	M 2.57 41.56
	L 2.727 42.55
	L 3.314 43.36
	M 2.727 42.55
	L 2.883 43.54
	M 2.101 38.6
	L 1.792 39.55
	L 1.948 40.54
	M 1.792 39.55
	L 1.483 40.5
	L 0.7758 41.21
	L -0.1752 41.52
	M 0.7758 41.21
	L 0.0687 41.92
	L -0.2403 42.87
	M 0.0687 41.92
	L -0.6384 42.62
	M 1.483 40.5
	L 1.174 41.45
	L 1.33 42.44
	M 1.174 41.45
	L 0.8649 42.4
	L 1.021 43.39
	L 0.7123 44.34
	M 1.021 43.39
	L 1.178 44.38
	L 1.766 45.19
	M 1.178 44.38
	L 1.334 45.37
	M 0.8649 42.4
	L 0.5559 43.36
	L -0.1512 44.06
	M 0.5559 43.36
	L 0.2468 44.31
	L 0.4033 45.29
	L 0.9911 46.1
	M 0.4033 45.29
	L 0.5597 46.28
	L 0.2507 47.23
	L -0.4564 47.94
	M 0.2507 47.23
	L -0.05832 48.18
	L 0.09812 49.17
	M -0.05832 48.18
	L -0.3673 49.13
	M 0.5597 46.28
	L 0.7162 47.27
	L 0.4071 48.22
	M 0.7162 47.27
	L 0.8726 48.26
	L 1.46 49.07
	L 2.351 49.52
	M 1.46 49.07
	L 2.048 49.87
	M 0.8726 48.26
	L 1.029 49.24
	L 0.72 50.2
	M 1.029 49.24
	L 1.185 50.23
	L 1.773 51.04
	M 1.185 50.23
	L 1.342 51.22
	L 1.93 52.03
	L 2.086 53.02
	M 1.93 52.03
	L 2.517 52.84
	L 3.408 53.29
	M 2.517 52.84
	L 3.105 53.65
	L 3.996 54.1
	L 4.584 54.91
	M 3.996 54.1
	L 4.887 54.56
	M 3.105 53.65
	L 3.693 54.46
	L 3.849 55.44
	M 3.693 54.46
	L 4.281 55.27
	M 1.342 51.22
	L 1.498 52.21
	L 1.189 53.16
	M 1.498 52.21
	L 1.655 53.2
	L 2.243 54
	M 1.655 53.2
	L 1.811 54.18
	L 2.399 54.99
	L 2.555 55.98
	M 2.399 54.99
	L 2.987 55.8
	M 1.811 54.18
	L 1.968 55.17
	L 2.555 55.98
	M 1.968 55.17
	L 2.124 56.16
	M 0.2468 44.31
	L -0.06217 45.26
	L -0.7693 45.96
	M -0.06217 45.26
	L -0.3712 46.21
	L -1.078 46.92
	L -2.029 47.22
	M -1.078 46.92
	L -1.785 47.62
	M -0.3712 46.21
	L -0.6802 47.16
	L -1.387 47.87
	M -0.6802 47.16
	L -0.9892 48.11
	L -0.8328 49.1
	M -0.9892 48.11
	L -1.298 49.06
	L -1.142 50.05
	L -1.451 51
	M -1.142 50.05
	L -0.9854 51.04
	M -1.298 49.06
	L -1.607 50.01
	L -2.314 50.72
	M -1.607 50.01
	L -1.916 50.96
	L -1.76 51.95
	L -2.069 52.9
	M -1.76 51.95
	L -1.603 52.94
	L -1.016 53.75
	M -1.603 52.94
	L -1.447 53.93
	L -1.756 54.88
	L -2.463 55.58
	M -1.756 54.88
	L -2.065 55.83
	M -1.447 53.93
	L -1.291 54.91
	L -1.6 55.87
	M -1.291 54.91
	L -1.134 55.9
	M -1.916 50.96
	L -2.225 51.91
	L -2.932 52.62
	M -2.225 51.91
	L -2.534 52.87
	L -3.241 53.57
	L -4.192 53.88
	M -3.241 53.57
	L -3.949 54.28
	M -2.534 52.87
	L -2.843 53.82
	L -2.687 54.8
	M -2.843 53.82
	L -3.152 54.77
	L -2.996 55.76
	L -3.305 56.71
	M -2.996 55.76
	L -2.839 56.74
	L -2.252 57.55
	M -2.839 56.74
	L -2.683 57.73
	M -3.152 54.77
	L -3.461 55.72
	L -4.168 56.43
	M -3.461 55.72
	L -3.77 56.67
	L -3.614 57.66
	L -3.923 58.61
	M -3.614 57.66
	L -3.458 58.65
	L -3.767 59.6
	L -4.474 60.3
	M -3.767 59.6
	L -4.076 60.55
	L -3.919 61.54
	M -4.076 60.55
	L -4.385 61.5
	M -3.458 58.65
	L -3.301 59.63
	L -3.61 60.58
	M -3.301 59.63
	L -3.145 60.62
	L -2.557 61.43
	L -2.4 62.42
	M -2.557 61.43
	L -1.969 62.24
	M -3.145 60.62
	L -2.988 61.61
	L -3.297 62.56
	M -2.988 61.61
	L -2.832 62.6
	L -2.244 63.41
	L -2.088 64.39
	M -2.244 63.41
	L -1.656 64.21
	L -0.7652 64.67
	L 0.2348 64.67
	M -0.7652 64.67
	L 0.1258 65.12
	M -1.656 64.21
	L -1.068 65.02
	L -0.912 66.01
	M -1.068 65.02
	L -0.4806 65.83
	M -2.832 62.6
	L -2.675 63.58
	L -2.984 64.53
	M -2.675 63.58
	L -2.519 64.57
	L -1.931 65.38
	M -2.519 64.57
	L -2.362 65.56
	L -2.671 66.51
	L -3.379 67.22
	M -2.671 66.51
	L -2.98 67.46
	M -2.362 65.56
	L -2.206 66.55
	L -2.515 67.5
	M -2.206 66.55
	L -2.05 67.53
	L -1.462 68.34
	M -2.05 67.53
	L -1.893 68.52
	L -1.305 69.33
	L -1.149 70.32
	M -1.305 69.33
	L -0.7176 70.14
	L -0.5612 71.13
	L 0.02663 71.94
	M -0.5612 71.13
	L -0.4047 72.12
	M -0.7176 70.14
	L -0.1298 70.95
	L 0.02663 71.94
	M -0.1298 70.95
	L 0.458 71.76
	L 0.6144 72.75
	L 0.3054 73.7
	M 0.6144 72.75
	L 0.7709 73.73
	L 0.4618 74.68
	L -0.2453 75.39
	M 0.4618 74.68
	L 0.1528 75.64
	L 0.3093 76.62
	M 0.1528 75.64
	L -0.1562 76.59
	M 0.7709 73.73
	L 0.9273 74.72
	L 0.6183 75.67
	M 0.9273 74.72
	L 1.084 75.71
	M 0.458 71.76
	L 1.046 72.57
	L 1.202 73.55
	M 1.046 72.57
	L 1.634 73.38
	L 2.525 73.83
	M 1.634 73.38
	L 2.221 74.19
	L 2.378 75.17
	L 2.966 75.98
	M 2.378 75.17
	L 2.534 76.16
	M 2.221 74.19
	L 2.809 74.99
	L 2.966 75.98
	M 2.809 74.99
	L 3.397 75.8
	L 4.288 76.26
	M 3.397 75.8
	L 3.985 76.61
	M -1.893 68.52
	L -1.737 69.51
	L -1.149 70.32
	M -1.737 69.51
	L -1.58 70.5
	L -0.9925 71.31
	L -0.1015 71.76
	M -0.9925 71.31
	L -0.4047 72.12
	M -1.58 70.5
	L -1.424 71.49
	L -1.733 72.44
	M -1.424 71.49
	L -1.267 72.47
	L -0.6796 73.28
	L 0.2114 73.74
	M -0.6796 73.28
	L -0.09185 74.09
	L 0.06458 75.08
	L -0.2444 76.03
	M 0.06458 75.08
	L 0.221 76.07
	L 0.8088 76.88
	M 0.221 76.07
	L 0.3775 77.05
	M -0.09185 74.09
	L 0.4959 74.9
	L 0.6524 75.89
	M 0.4959 74.9
	L 1.084 75.71
	M -1.267 72.47
	L -1.111 73.46
	L -1.42 74.41
	M -1.111 73.46
	L -0.9546 74.45
	L -0.3668 75.26
	L -0.2103 76.25
	M -0.3668 75.26
	L 0.221 76.07
	L 1.112 76.52
	M 0.221 76.07
	L 0.8088 76.88
	M -0.9546 74.45
	L -0.7981 75.44
	L -0.2103 76.25
	M -0.7981 75.44
	L -0.6417 76.42
	M -3.77 56.67
	L -4.079 57.62
	L -3.923 58.61
	M -4.079 57.62
	L -4.388 58.57
	L -5.096 59.28
	L -6.047 59.59
	M -5.096 59.28
	L -5.803 59.99
	L -6.112 60.94
	M -5.803 59.99
	L -6.51 60.69
	M -4.388 58.57
	L -4.697 59.52
	L -4.541 60.51
	M -4.697 59.52
	L -5.006 60.47
	L -4.85 61.46
	L -5.159 62.41
	M -4.85 61.46
	L -4.694 62.45
	L -4.106 63.26
	M -4.694 62.45
	L -4.537 63.44
	M -5.006 60.47
	L -5.315 61.43
	L -6.023 62.13
	M -5.315 61.43
	L -5.624 62.38
	L -6.332 63.08
	L -7.283 63.39
	M -6.332 63.08
	L -7.039 63.79
	L -7.99 64.1
	L -8.977 63.94
	M -7.99 64.1
	L -8.941 64.41
	L -9.648 65.12
	M -8.941 64.41
	L -9.892 64.72
	M -7.039 63.79
	L -7.746 64.5
	L -8.697 64.81
	M -7.746 64.5
	L -8.453 65.2
	L -8.762 66.16
	M -8.453 65.2
	L -9.16 65.91
	L -9.469 66.86
	L -9.313 67.85
	M -9.469 66.86
	L -9.778 67.81
	M -9.16 65.91
	L -9.867 66.62
	L -10.18 67.57
	M -9.867 66.62
	L -10.57 67.33
	M -5.624 62.38
	L -5.933 63.33
	L -6.641 64.03
	M -5.933 63.33
	L -6.243 64.28
	L -6.95 64.99
	L -7.259 65.94
	M -6.95 64.99
	L -7.657 65.69
	M -6.243 64.28
	L -6.552 65.23
	L -7.259 65.94
	M -6.552 65.23
	L -6.861 66.18
	L -7.568 66.89
	L -8.519 67.2
	M -7.568 66.89
	L -8.275 67.59
	L -8.584 68.55
	M -8.275 67.59
	L -8.982 68.3
	L -9.933 68.61
	L -10.64 69.32
	M -9.933 68.61
	L -10.88 68.92
	M -8.982 68.3
	L -9.689 69.01
	L -9.998 69.96
	M -9.689 69.01
	L -10.4 69.72
	L -10.71 70.67
	L -11.41 71.37
	M -10.71 70.67
	L -11.01 71.62
	L -10.86 72.61
	M -11.01 71.62
	L -11.32 72.57
	M -10.4 69.72
	L -11.1 70.42
	L -12.05 70.73
	M -11.1 70.42
	L -11.81 71.13
	L -12.76 71.44
	L -13.75 71.28
	M -12.76 71.44
	L -13.71 71.75
	L -14.42 72.46
	M -13.71 71.75
	L -14.66 72.06
	L -15.65 71.9
	L -16.46 71.31
	M -15.65 71.9
	L -16.64 71.74
	L -17.59 72.05
	M -16.64 71.74
	L -17.63 71.59
	M -14.66 72.06
	L -15.61 72.37
	L -16.6 72.21
	M -15.61 72.37
	L -16.57 72.68
	M -11.81 71.13
	L -12.52 71.84
	L -12.83 72.79
	M -12.52 71.84
	L -13.22 72.54
	L -14.18 72.85
	L -15.16 72.7
	M -14.18 72.85
	L -15.13 73.16
	L -15.83 73.87
	M -15.13 73.16
	L -16.08 73.47
	M -13.22 72.54
	L -13.93 73.25
	L -14.24 74.2
	M -13.93 73.25
	L -14.64 73.96
	L -14.95 74.91
	L -15.65 75.62
	M -14.95 74.91
	L -15.26 75.86
	M -14.64 73.96
	L -15.35 74.67
	L -15.65 75.62
	M -15.35 74.67
	L -16.05 75.37
	M -6.861 66.18
	L -7.17 67.13
	L -7.877 67.84
	M -7.17 67.13
	L -7.479 68.08
	L -8.186 68.79
	L -8.495 69.74
	M -8.186 68.79
	L -8.893 69.5
	M -7.479 68.08
	L -7.788 69.03
	L -7.631 70.02
	M -7.788 69.03
	L -8.097 69.98
	L -7.94 70.97
	L -7.352 71.78
	M -7.94 70.97
	L -7.784 71.96
	L -8.093 72.91
	L -7.936 73.9
	M -8.093 72.91
	L -8.402 73.86
	M -7.784 71.96
	L -7.627 72.95
	L -7.04 73.76
	M -7.627 72.95
	L -7.471 73.94
	L -6.883 74.74
	L -5.992 75.2
	M -6.883 74.74
	L -6.295 75.55
	M -7.471 73.94
	L -7.314 74.92
	L -7.623 75.87
	M -7.314 74.92
	L -7.158 75.91
	M -8.097 69.98
	L -8.406 70.94
	L -9.113 71.64
	M -8.406 70.94
	L -8.715 71.89
	L -8.558 72.87
	M -8.715 71.89
	L -9.024 72.84
	L -9.731 73.55
	L -10.68 73.85
	M -9.731 73.55
	L -10.44 74.25
	M -9.024 72.84
	L -9.333 73.79
	L -9.176 74.78
	M -9.333 73.79
	L -9.642 74.74
	L -9.485 75.73
	L -9.794 76.68
	M -9.485 75.73
	L -9.329 76.72
	L -8.741 77.52
	M -9.329 76.72
	L -9.172 77.7
	M -9.642 74.74
	L -9.951 75.69
	L -9.794 76.68
	M -9.951 75.69
	L -10.26 76.64
	L -10.1 77.63
	L -10.41 78.58
	M -10.1 77.63
	L -9.947 78.62
	L -9.359 79.43
	M -9.947 78.62
	L -9.79 79.61
	L -10.1 80.56
	L -10.81 81.26
	M -10.1 80.56
	L -10.41 81.51
	L -10.25 82.5
	M -10.41 81.51
	L -10.72 82.46
	M -9.79 79.61
	L -9.634 80.59
	L -9.943 81.54
	M -9.634 80.59
	L -9.478 81.58
	L -8.89 82.39
	L -7.999 82.84
	M -8.89 82.39
	L -8.302 83.2
	M -9.478 81.58
	L -9.321 82.57
	L -8.733 83.38
	M -9.321 82.57
	L -9.165 83.56
	L -8.577 84.36
	L -8.42 85.35
	M -8.577 84.36
	L -7.989 85.17
	L -7.098 85.63
	M -7.989 85.17
	L -7.401 85.98
	L -7.245 86.97
	L -6.657 87.78
	M -7.245 86.97
	L -7.088 87.96
	M -7.401 85.98
	L -6.814 86.79
	L -5.923 87.25
	M -6.814 86.79
	L -6.226 87.6
	M -9.165 83.56
	L -9.008 84.54
	L -8.42 85.35
	M -9.008 84.54
	L -8.852 85.53
	L -9.161 86.48
	L -9.004 87.47
	M -9.161 86.48
	L -9.47 87.43
	M -8.852 85.53
	L -8.695 86.52
	L -9.004 87.47
	M -8.695 86.52
	L -8.539 87.51
	L -7.951 88.32
	L -7.795 89.3
	M -7.951 88.32
	L -7.363 89.12
	L -6.472 89.58
	M -7.363 89.12
	L -6.776 89.93
	M -8.539 87.51
	L -8.383 88.49
	L -8.692 89.45
	M -8.383 88.49
	L -8.226 89.48
	M -10.26 76.64
	L -10.57 77.59
	L -11.28 78.3
	M -10.57 77.59
	L -10.88 78.54
	L -10.72 79.53
	L -11.03 80.48
	M -10.72 79.53
	L -10.56 80.52
	L -9.977 81.33
	M -10.56 80.52
	L -10.41 81.51
	M -10.88 78.54
	L -11.19 79.5
	L -11.03 80.48
	M -11.19 79.5
	L -11.5 80.45
	L -12.2 81.15
	L -13.15 81.46
	M -12.2 81.15
	L -12.91 81.86
	L -13.22 82.81
	M -12.91 81.86
	L -13.62 82.57
	L -14.57 82.88
	L -15.28 83.58
	M -14.57 82.88
	L -15.52 83.19
	M -13.62 82.57
	L -14.32 83.27
	L -15.28 83.58
	M -14.32 83.27
	L -15.03 83.98
	L -15.34 84.93
	M -15.03 83.98
	L -15.74 84.69
	M -11.5 80.45
	L -11.8 81.4
	L -11.65 82.39
	M -11.8 81.4
	L -12.11 82.35
	L -12.82 83.06
	L -13.77 83.36
	M -12.82 83.06
	L -13.53 83.76
	L -13.84 84.71
	M -13.53 83.76
	L -14.24 84.47
	M -12.11 82.35
	L -12.42 83.3
	L -13.13 84.01
	M -12.42 83.3
	L -12.73 84.25
	L -12.58 85.24
	L -12.88 86.19
	M -12.58 85.24
	L -12.42 86.23
	M -12.73 84.25
	L -13.04 85.2
	L -12.88 86.19
	M -13.04 85.2
	L -13.35 86.15
	M 13.53 3.411
	L 14.49 3.72
	L 15.44 4.029
	L 16.39 4.338
	L 17.34 4.647
	L 18.33 4.803
	L 19.31 4.96
	L 20.3 5.116
	L 21.29 5.273
	L 22.24 5.582
	L 23.19 5.891
	L 24.14 6.2
	L 25.09 6.509
	L 26.08 6.665
	L 27.07 6.821
	L 28.06 6.978
	L 29.04 7.134
	L 30.04 7.134
	L 31.04 7.134
	L 32.04 7.134
	L 33.04 7.134
	L 34.03 7.291
	L 35.02 7.447
	L 36.01 7.604
	L 37 7.76
	L 38 7.76
	L 39 7.76
	L 40 7.76
	L 41 7.76
	L 41.98 7.604
	L 42.97 7.447
	L 43.96 7.291
	L 44.95 7.134
	L 45.9 6.825
	L 46.85 6.516
	L 47.8 6.207
	L 48.75 5.898
	L 49.64 5.444
	L 50.53 4.99
	L 51.42 4.536
	L 52.31 4.082
	L 53.27 3.773
	L 54.22 3.464
	L 55.17 3.155
	L 56.12 2.846
	L 57.01 2.392
	L 57.9 1.938
	L 58.79 1.484
	L 59.68 1.03
	L 60.63 0.7213
	L 61.58 0.4123
	L 62.54 0.1032
	L 63.49 -0.2058
	L 64.47 -0.3622
	L 65.46 -0.5186
	L 66.45 -0.6751
	L 67.44 -0.8315
	L 68.39 -1.141
	L 69.34 -1.45
	L 70.29 -1.759
	L 71.24 -2.068
	L 72.13 -2.522
	L 73.02 -2.976
	L 73.91 -3.43
	L 74.81 -3.884
	L 75.76 -4.193
	L 76.71 -4.502
	L 77.66 -4.811
	L 78.61 -5.12
	L 78.92 -4.169
	L 78.76 -3.181
	M 78.92 -4.169
	L 79.23 -3.218
	L 79.94 -2.51
	L 80.89 -2.201
	M 79.94 -2.51
	L 80.64 -1.803
	M 79.23 -3.218
	L 79.54 -2.266
	L 79.38 -1.279
	M 79.54 -2.266
	L 79.85 -1.315
	L 80.55 -0.6083
	M 79.85 -1.315
	L 80.16 -0.3643
	L 80 0.6234
	L 79.41 1.432
	M 80 0.6234
	L 79.84 1.611
	L 80.15 2.562
	M 79.84 1.611
	L 79.69 2.599
	L 79.99 3.55
	L 79.84 4.537
	M 79.99 3.55
	L 80.3 4.501
	L 81.01 5.208
	M 80.3 4.501
	L 80.61 5.452
	M 79.69 2.599
	L 79.53 3.586
	L 78.94 4.395
	M 79.53 3.586
	L 79.37 4.574
	L 79.68 5.525
	M 79.37 4.574
	L 79.22 5.562
	M 80.16 -0.3643
	L 80.46 0.5867
	L 80.31 1.574
	M 80.46 0.5867
	L 80.77 1.538
	L 81.48 2.245
	L 81.79 3.196
	M 81.48 2.245
	L 82.19 2.952
	L 83.14 3.261
	M 82.19 2.952
	L 82.89 3.659
	M 80.77 1.538
	L 81.08 2.489
	L 80.93 3.477
	M 81.08 2.489
	L 81.39 3.44
	L 82.1 4.147
	L 82.41 5.098
	M 82.1 4.147
	L 82.81 4.854
	L 83.11 5.805
	L 83.82 6.512
	M 83.11 5.805
	L 83.42 6.756
	M 82.81 4.854
	L 83.51 5.561
	L 84.46 5.87
	M 83.51 5.561
	L 84.22 6.268
	L 85.17 6.577
	L 86.16 6.421
	M 85.17 6.577
	L 86.12 6.886
	M 84.22 6.268
	L 84.93 6.975
	L 85.24 7.926
	M 84.93 6.975
	L 85.63 7.683
	L 85.94 8.634
	L 86.65 9.341
	M 85.94 8.634
	L 86.25 9.585
	L 86.1 10.57
	L 85.51 11.38
	M 86.1 10.57
	L 85.94 11.56
	L 86.25 12.51
	M 85.94 11.56
	L 85.78 12.55
	M 86.25 9.585
	L 86.56 10.54
	L 86.4 11.52
	M 86.56 10.54
	L 86.87 11.49
	L 87.58 12.19
	L 87.89 13.14
	M 87.58 12.19
	L 88.28 12.9
	L 89.24 13.21
	M 88.28 12.9
	L 88.99 13.61
	M 86.87 11.49
	L 87.18 12.44
	L 87.02 13.43
	M 87.18 12.44
	L 87.49 13.39
	L 88.2 14.1
	M 87.49 13.39
	L 87.8 14.34
	M 85.63 7.683
	L 86.34 8.39
	L 87.29 8.699
	M 86.34 8.39
	L 87.05 9.097
	L 87.36 10.05
	L 88.06 10.75
	M 87.36 10.05
	L 87.67 11
	M 87.05 9.097
	L 87.76 9.804
	L 88.06 10.75
	M 87.76 9.804
	L 88.46 10.51
	L 89.41 10.82
	L 90.12 11.53
	M 89.41 10.82
	L 90.36 11.13
	L 91.35 10.97
	M 90.36 11.13
	L 91.32 11.44
	L 92.02 12.15
	L 92.33 13.1
	M 92.02 12.15
	L 92.73 12.85
	L 93.68 13.16
	M 92.73 12.85
	L 93.44 13.56
	M 91.32 11.44
	L 92.27 11.75
	L 93.25 11.59
	M 92.27 11.75
	L 93.22 12.06
	L 94.21 11.9
	L 95.16 12.21
	M 94.21 11.9
	L 95.19 11.74
	L 96 11.16
	M 95.19 11.74
	L 96.18 11.59
	M 93.22 12.06
	L 94.17 12.37
	L 94.88 13.07
	M 94.17 12.37
	L 95.12 12.67
	L 96.11 12.52
	M 95.12 12.67
	L 96.07 12.98
	M 88.46 10.51
	L 89.17 11.22
	L 89.48 12.17
	M 89.17 11.22
	L 89.88 11.93
	L 90.83 12.23
	M 89.88 11.93
	L 90.58 12.63
	L 90.89 13.58
	L 90.74 14.57
	M 90.89 13.58
	L 91.2 14.53
	M 90.58 12.63
	L 91.29 13.34
	L 91.6 14.29
	M 91.29 13.34
	L 92 14.05
	L 92.95 14.36
	M 92 14.05
	L 92.7 14.75
	M 81.39 3.44
	L 81.7 4.391
	L 82.41 5.098
	M 81.7 4.391
	L 82.01 5.342
	L 82.72 6.049
	L 83.03 7
	M 82.72 6.049
	L 83.42 6.756
	M 82.01 5.342
	L 82.32 6.293
	L 82.16 7.281
	M 82.32 6.293
	L 82.63 7.244
	L 83.33 7.951
	M 82.63 7.244
	L 82.94 8.195
	L 83.64 8.902
	L 83.95 9.853
	M 83.64 8.902
	L 84.35 9.609
	L 84.66 10.56
	L 84.5 11.55
	M 84.66 10.56
	L 84.97 11.51
	L 85.68 12.22
	M 84.97 11.51
	L 85.28 12.46
	M 84.35 9.609
	L 85.06 10.32
	L 85.37 11.27
	M 85.06 10.32
	L 85.76 11.02
	M 82.94 8.195
	L 83.25 9.146
	L 83.09 10.13
	M 83.25 9.146
	L 83.55 10.1
	L 84.26 10.8
	M 83.55 10.1
	L 83.86 11.05
	L 83.71 12.04
	L 83.12 12.85
	M 83.71 12.04
	L 83.55 13.02
	L 83.86 13.97
	M 83.55 13.02
	L 83.39 14.01
	M 83.86 11.05
	L 84.17 12
	L 84.88 12.71
	M 84.17 12
	L 84.48 12.95
	L 85.19 13.66
	L 85.5 14.61
	M 85.19 13.66
	L 85.9 14.36
	L 86.85 14.67
	M 85.9 14.36
	L 86.6 15.07
	M 84.48 12.95
	L 84.79 13.9
	L 84.63 14.89
	M 84.79 13.9
	L 85.1 14.85
	L 85.81 15.56
	M 85.1 14.85
	L 85.41 15.8
	L 85.25 16.79
	L 84.66 17.6
	M 85.25 16.79
	L 85.1 17.78
	L 84.51 18.59
	L 83.62 19.04
	M 84.51 18.59
	L 83.92 19.4
	L 83.76 20.38
	M 83.92 19.4
	L 83.33 20.21
	M 85.1 17.78
	L 84.94 18.77
	L 84.35 19.58
	M 84.94 18.77
	L 84.78 19.75
	L 84.19 20.56
	L 83.3 21.02
	M 84.19 20.56
	L 83.61 21.37
	L 83.45 22.36
	M 83.61 21.37
	L 83.02 22.18
	L 82.13 22.64
	L 81.54 23.44
	M 82.13 22.64
	L 81.24 23.09
	M 83.02 22.18
	L 82.43 22.99
	L 81.54 23.44
	M 82.43 22.99
	L 81.84 23.8
	L 81.69 24.79
	L 82 25.74
	M 81.69 24.79
	L 81.53 25.77
	M 81.84 23.8
	L 81.26 24.61
	L 80.36 25.06
	M 81.26 24.61
	L 80.67 25.42
	M 84.78 19.75
	L 84.63 20.74
	L 84.94 21.69
	M 84.63 20.74
	L 84.47 21.73
	L 83.88 22.54
	L 83.73 23.53
	M 83.88 22.54
	L 83.29 23.35
	M 84.47 21.73
	L 84.31 22.72
	L 83.73 23.53
	M 84.31 22.72
	L 84.16 23.71
	L 84.47 24.66
	L 85.17 25.36
	M 84.47 24.66
	L 84.77 25.61
	L 85.48 26.31
	L 85.79 27.27
	M 85.48 26.31
	L 86.19 27.02
	L 87.14 27.33
	M 86.19 27.02
	L 86.9 27.73
	M 84.77 25.61
	L 85.08 26.56
	L 84.93 27.55
	M 85.08 26.56
	L 85.39 27.51
	L 86.1 28.22
	M 85.39 27.51
	L 85.7 28.46
	M 84.16 23.71
	L 84 24.69
	L 83.41 25.5
	M 84 24.69
	L 83.84 25.68
	L 84.15 26.63
	M 83.84 25.68
	L 83.69 26.67
	L 83.1 27.48
	L 82.94 28.46
	M 83.1 27.48
	L 82.51 28.29
	M 83.69 26.67
	L 83.53 27.66
	L 82.94 28.46
	M 83.53 27.66
	L 83.37 28.64
	L 83.68 29.59
	M 83.37 28.64
	L 83.22 29.63
	L 82.63 30.44
	L 82.47 31.43
	M 82.63 30.44
	L 82.04 31.25
	L 81.15 31.7
	L 80.15 31.7
	M 81.15 31.7
	L 80.26 32.16
	M 82.04 31.25
	L 81.45 32.06
	L 80.56 32.51
	M 81.45 32.06
	L 80.87 32.87
	L 80.71 33.86
	M 80.87 32.87
	L 80.28 33.68
	L 80.12 34.66
	L 79.54 35.47
	M 80.12 34.66
	L 79.97 35.65
	L 80.28 36.6
	M 79.97 35.65
	L 79.81 36.64
	M 80.28 33.68
	L 79.69 34.49
	L 78.8 34.94
	M 79.69 34.49
	L 79.1 35.29
	L 78.95 36.28
	L 78.36 37.09
	M 78.95 36.28
	L 78.79 37.27
	L 79.1 38.22
	M 78.79 37.27
	L 78.63 38.26
	L 78.94 39.21
	L 78.79 40.2
	M 78.94 39.21
	L 79.25 40.16
	M 78.63 38.26
	L 78.48 39.25
	L 78.79 40.2
	M 78.48 39.25
	L 78.32 40.23
	M 79.1 35.29
	L 78.52 36.1
	L 77.63 36.56
	M 78.52 36.1
	L 77.93 36.91
	L 77.77 37.9
	M 77.93 36.91
	L 77.34 37.72
	L 76.45 38.18
	L 75.86 38.98
	M 76.45 38.18
	L 75.56 38.63
	M 77.34 37.72
	L 76.75 38.53
	L 75.86 38.98
	M 76.75 38.53
	L 76.16 39.34
	L 76.01 40.33
	L 75.42 41.14
	M 76.01 40.33
	L 75.85 41.31
	L 76.16 42.27
	M 75.85 41.31
	L 75.7 42.3
	M 76.16 39.34
	L 75.58 40.15
	L 74.69 40.6
	M 75.58 40.15
	L 74.99 40.96
	M 83.22 29.63
	L 83.06 30.62
	L 82.47 31.43
	M 83.06 30.62
	L 82.91 31.61
	L 83.21 32.56
	M 82.91 31.61
	L 82.75 32.59
	L 82.16 33.4
	L 81.27 33.86
	M 82.16 33.4
	L 81.57 34.21
	M 82.75 32.59
	L 82.59 33.58
	L 82 34.39
	M 82.59 33.58
	L 82.44 34.57
	L 82.75 35.52
	M 82.44 34.57
	L 82.28 35.56
	L 81.69 36.37
	L 81.54 37.35
	M 81.69 36.37
	L 81.1 37.18
	L 80.21 37.63
	L 79.63 38.44
	M 80.21 37.63
	L 79.32 38.08
	M 81.1 37.18
	L 80.52 37.98
	L 80.36 38.97
	M 80.52 37.98
	L 79.93 38.79
	L 79.77 39.78
	L 80.08 40.73
	M 79.77 39.78
	L 79.62 40.77
	M 79.93 38.79
	L 79.34 39.6
	L 78.45 40.06
	M 79.34 39.6
	L 78.75 40.41
	M 82.28 35.56
	L 82.12 36.55
	L 81.54 37.35
	M 82.12 36.55
	L 81.97 37.53
	L 81.38 38.34
	L 80.49 38.8
	M 81.38 38.34
	L 80.79 39.15
	L 80.63 40.14
	M 80.79 39.15
	L 80.2 39.96
	M 81.97 37.53
	L 81.81 38.52
	L 81.22 39.33
	M 81.81 38.52
	L 81.65 39.51
	L 81.96 40.46
	M 81.65 39.51
	L 81.5 40.5
	L 81.81 41.45
	L 82.51 42.15
	M 81.81 41.45
	L 82.12 42.4
	L 81.96 43.39
	L 81.37 44.19
	M 81.96 43.39
	L 81.8 44.37
	L 82.11 45.32
	M 81.8 44.37
	L 81.65 45.36
	M 82.12 42.4
	L 82.42 43.35
	L 83.13 44.06
	M 82.42 43.35
	L 82.73 44.3
	L 83.44 45.01
	L 83.75 45.96
	M 83.44 45.01
	L 84.15 45.71
	L 85.1 46.02
	M 84.15 45.71
	L 84.85 46.42
	M 82.73 44.3
	L 83.04 45.25
	L 83.75 45.96
	M 83.04 45.25
	L 83.35 46.2
	M 81.5 40.5
	L 81.34 41.48
	L 80.75 42.29
	M 81.34 41.48
	L 81.18 42.47
	L 80.6 43.28
	L 79.71 43.73
	M 80.6 43.28
	L 80.01 44.09
	L 79.85 45.08
	M 80.01 44.09
	L 79.42 44.9
	M 81.18 42.47
	L 81.03 43.46
	L 80.44 44.27
	M 81.03 43.46
	L 80.87 44.45
	L 81.18 45.4
	M 80.87 44.45
	L 80.72 45.43
	L 81.02 46.39
	L 81.73 47.09
	M 81.02 46.39
	L 81.33 47.34
	L 82.04 48.04
	L 82.99 48.35
	M 82.04 48.04
	L 82.75 48.75
	M 81.33 47.34
	L 81.64 48.29
	L 82.35 48.99
	M 81.64 48.29
	L 81.95 49.24
	L 82.66 49.95
	L 82.97 50.9
	M 82.66 49.95
	L 83.37 50.65
	L 84.32 50.96
	L 85.3 50.81
	M 84.32 50.96
	L 85.27 51.27
	M 83.37 50.65
	L 84.07 51.36
	L 84.38 52.31
	M 84.07 51.36
	L 84.78 52.07
	M 81.95 49.24
	L 82.26 50.19
	L 82.97 50.9
	M 82.26 50.19
	L 82.57 51.14
	L 83.28 51.85
	L 84.23 52.16
	M 83.28 51.85
	L 83.98 52.55
	M 82.57 51.14
	L 82.88 52.09
	L 83.59 52.8
	M 82.88 52.09
	L 83.19 53.04
	M 80.72 45.43
	L 80.56 46.42
	L 80.87 47.37
	M 80.56 46.42
	L 80.4 47.41
	L 79.81 48.22
	L 79.66 49.21
	M 79.81 48.22
	L 79.23 49.03
	M 80.4 47.41
	L 80.25 48.4
	L 80.56 49.35
	M 80.25 48.4
	L 80.09 49.39
	L 79.5 50.19
	L 78.61 50.65
	M 79.5 50.19
	L 78.91 51
	L 78.76 51.99
	M 78.91 51
	L 78.33 51.81
	L 77.44 52.27
	L 76.44 52.27
	M 77.44 52.27
	L 76.54 52.72
	L 75.96 53.53
	M 76.54 52.72
	L 75.65 53.17
	M 78.33 51.81
	L 77.74 52.62
	L 77.58 53.61
	M 77.74 52.62
	L 77.15 53.43
	L 76.99 54.42
	L 76.41 55.23
	M 76.99 54.42
	L 76.84 55.41
	L 77.15 56.36
	M 76.84 55.41
	L 76.68 56.39
	M 77.15 53.43
	L 76.56 54.24
	L 75.67 54.69
	M 76.56 54.24
	L 75.98 55.05
	M 80.09 49.39
	L 79.93 50.37
	L 79.35 51.18
	M 79.93 50.37
	L 79.78 51.36
	L 80.09 52.31
	M 79.78 51.36
	L 79.62 52.35
	L 79.03 53.16
	L 78.14 53.61
	M 79.03 53.16
	L 78.44 53.97
	L 78.29 54.95
	M 78.44 53.97
	L 77.86 54.78
	M 79.62 52.35
	L 79.46 53.34
	L 78.88 54.14
	M 79.46 53.34
	L 79.31 54.32
	L 79.62 55.27
	M 79.31 54.32
	L 79.15 55.31
	M 85.41 15.8
	L 85.72 16.75
	L 85.56 17.74
	M 85.72 16.75
	L 86.03 17.71
	L 85.87 18.69
	L 85.28 19.5
	M 85.87 18.69
	L 85.71 19.68
	M 86.03 17.71
	L 86.34 18.66
	L 86.18 19.64
	M 86.34 18.66
	L 86.64 19.61
	L 87.35 20.31
	M 86.64 19.61
	L 86.95 20.56
	L 87.66 21.27
	L 88.61 21.58
	M 87.66 21.27
	L 88.37 21.97
	M 86.95 20.56
	L 87.26 21.51
	L 87.11 22.5
	M 87.26 21.51
	L 87.57 22.46
	L 88.28 23.17
	L 88.59 24.12
	M 88.28 23.17
	L 88.99 23.88
	L 89.29 24.83
	L 89.14 25.81
	M 89.29 24.83
	L 89.6 25.78
	L 90.31 26.48
	M 89.6 25.78
	L 89.91 26.73
	M 88.99 23.88
	L 89.69 24.58
	L 90.64 24.89
	M 89.69 24.58
	L 90.4 25.29
	L 91.35 25.6
	L 92.06 26.31
	M 91.35 25.6
	L 92.3 25.91
	L 93.29 25.75
	M 92.3 25.91
	L 93.25 26.22
	M 90.4 25.29
	L 91.11 26
	L 91.42 26.95
	M 91.11 26
	L 91.81 26.7
	M 87.57 22.46
	L 87.88 23.41
	L 88.59 24.12
	M 87.88 23.41
	L 88.19 24.36
	L 88.9 25.07
	L 89.21 26.02
	M 88.9 25.07
	L 89.6 25.78
	M 88.19 24.36
	L 88.5 25.31
	L 88.34 26.3
	M 88.5 25.31
	L 88.81 26.27
	L 89.51 26.97
	M 88.81 26.27
	L 89.12 27.22
	L 89.82 27.92
	L 90.13 28.87
	M 89.82 27.92
	L 90.53 28.63
	L 90.84 29.58
	L 90.68 30.57
	M 90.84 29.58
	L 91.15 30.53
	L 91.86 31.24
	M 91.15 30.53
	L 91.46 31.48
	M 90.53 28.63
	L 91.24 29.34
	L 91.55 30.29
	M 91.24 29.34
	L 91.95 30.04
	L 92.9 30.35
	L 93.6 31.06
	M 92.9 30.35
	L 93.85 30.66
	L 94.83 30.51
	M 93.85 30.66
	L 94.8 30.97
	L 95.79 30.82
	L 96.74 31.12
	M 95.79 30.82
	L 96.77 30.66
	M 94.8 30.97
	L 95.75 31.28
	L 96.46 31.99
	M 95.75 31.28
	L 96.7 31.59
	L 97.69 31.43
	M 96.7 31.59
	L 97.65 31.9
	M 91.95 30.04
	L 92.65 30.75
	L 92.96 31.7
	M 92.65 30.75
	L 93.36 31.46
	L 93.67 32.41
	L 94.38 33.12
	M 93.67 32.41
	L 93.98 33.36
	M 93.36 31.46
	L 94.07 32.17
	L 95.02 32.48
	M 94.07 32.17
	L 94.77 32.87
	M 89.12 27.22
	L 89.43 28.17
	L 90.13 28.87
	M 89.43 28.17
	L 89.73 29.12
	L 89.58 30.11
	L 88.99 30.92
	M 89.58 30.11
	L 89.42 31.09
	L 89.73 32.04
	M 89.42 31.09
	L 89.27 32.08
	M 89.73 29.12
	L 90.04 30.07
	L 90.75 30.78
	M 90.04 30.07
	L 90.35 31.02
	L 90.2 32.01
	L 89.61 32.82
	M 90.2 32.01
	L 90.04 33
	L 90.35 33.95
	L 90.19 34.93
	M 90.35 33.95
	L 90.66 34.9
	M 90.04 33
	L 89.88 33.98
	L 89.3 34.79
	M 89.88 33.98
	L 89.73 34.97
	M 90.35 31.02
	L 90.66 31.97
	L 91.37 32.68
	M 90.66 31.97
	L 90.97 32.92
	L 90.81 33.91
	L 90.23 34.72
	M 90.81 33.91
	L 90.66 34.9
	M 90.97 32.92
	L 91.28 33.87
	L 91.99 34.58
	M 91.28 33.87
	L 91.59 34.82
	L 92.3 35.53
	L 92.6 36.48
	M 92.3 35.53
	L 93 36.24
	L 93.95 36.55
	M 93 36.24
	L 93.71 36.95
	M 91.59 34.82
	L 91.9 35.78
	L 92.6 36.48
	M 91.9 35.78
	L 92.21 36.73
	L 92.91 37.43
	L 93.86 37.74
	M 92.91 37.43
	L 93.62 38.14
	L 93.93 39.09
	L 93.77 40.08
	M 93.93 39.09
	L 94.24 40.04
	M 93.62 38.14
	L 94.33 38.85
	L 95.28 39.16
	M 94.33 38.85
	L 95.04 39.56
	L 95.34 40.51
	L 95.19 41.49
	M 95.34 40.51
	L 95.65 41.46
	L 96.36 42.16
	M 95.65 41.46
	L 95.96 42.41
	L 95.81 43.4
	L 95.22 44.21
	M 95.81 43.4
	L 95.65 44.38
	L 95.96 45.33
	M 95.65 44.38
	L 95.49 45.37
	M 95.96 42.41
	L 96.27 43.36
	L 96.98 44.07
	M 96.27 43.36
	L 96.58 44.31
	L 97.29 45.02
	L 97.6 45.97
	M 97.29 45.02
	L 97.99 45.72
	L 98.95 46.03
	M 97.99 45.72
	L 98.7 46.43
	M 96.58 44.31
	L 96.89 45.26
	L 97.6 45.97
	M 96.89 45.26
	L 97.2 46.21
	M 95.04 39.56
	L 95.74 40.26
	L 96.69 40.57
	M 95.74 40.26
	L 96.45 40.97
	L 96.76 41.92
	L 96.6 42.91
	M 96.76 41.92
	L 97.07 42.87
	M 96.45 40.97
	L 97.16 41.68
	L 98.11 41.99
	M 97.16 41.68
	L 97.86 42.38
	L 98.17 43.33
	L 98.88 44.04
	M 98.17 43.33
	L 98.48 44.29
	L 98.33 45.27
	L 97.74 46.08
	M 98.33 45.27
	L 98.17 46.26
	M 98.48 44.29
	L 98.79 45.24
	L 99.5 45.94
	M 98.79 45.24
	L 99.1 46.19
	L 98.94 47.18
	L 98.36 47.98
	M 98.94 47.18
	L 98.79 48.16
	L 98.2 48.97
	L 97.31 49.43
	M 98.2 48.97
	L 97.61 49.78
	L 97.45 50.77
	M 97.61 49.78
	L 97.02 50.59
	M 98.79 48.16
	L 98.63 49.15
	L 98.94 50.1
	M 98.63 49.15
	L 98.47 50.14
	L 98.78 51.09
	L 98.63 52.08
	M 98.78 51.09
	L 99.09 52.04
	L 99.8 52.75
	M 99.09 52.04
	L 99.4 52.99
	M 98.47 50.14
	L 98.32 51.13
	L 98.63 52.08
	M 98.32 51.13
	L 98.16 52.11
	M 99.1 46.19
	L 99.41 47.14
	L 100.1 47.85
	M 99.41 47.14
	L 99.72 48.09
	L 99.56 49.08
	L 99.87 50.03
	M 99.56 49.08
	L 99.4 50.07
	M 99.72 48.09
	L 100 49.04
	L 99.87 50.03
	M 100 49.04
	L 100.3 49.99
	L 101 50.7
	M 100.3 49.99
	L 100.6 50.94
	M 97.86 42.38
	L 98.57 43.09
	L 98.88 44.04
	M 98.57 43.09
	L 99.28 43.8
	L 100.2 44.11
	M 99.28 43.8
	L 99.98 44.51
	L 100.3 45.46
	L 101 46.16
	M 100.3 45.46
	L 100.6 46.41
	M 99.98 44.51
	L 100.7 45.21
	L 101 46.16
	M 100.7 45.21
	L 101.4 45.92
	L 102.4 46.23
	L 103.1 46.94
	M 102.4 46.23
	L 103.3 46.54
	L 104.3 46.38
	M 103.3 46.54
	L 104.3 46.85
	M 101.4 45.92
	L 102.1 46.63
	L 102.4 47.58
	M 102.1 46.63
	L 102.8 47.33
	L 103.8 47.64
	M 102.8 47.33
	L 103.5 48.04
	L 104.5 48.35
	L 105.2 49.06
	M 104.5 48.35
	L 105.4 48.66
	L 106.1 49.37
	L 106.4 50.32
	M 106.1 49.37
	L 106.8 50.07
	L 107.8 50.38
	M 106.8 50.07
	L 107.5 50.78
	M 105.4 48.66
	L 106.4 48.97
	L 107.1 49.67
	M 106.4 48.97
	L 107.3 49.28
	L 108.3 49.12
	M 107.3 49.28
	L 108.3 49.59
	M 103.5 48.04
	L 104.2 48.75
	L 104.5 49.7
	M 104.2 48.75
	L 104.9 49.45
	L 105.9 49.76
	M 104.9 49.45
	L 105.6 50.16
	L 106.6 50.47
	L 107.6 50.31
	M 106.6 50.47
	L 107.5 50.78
	M 105.6 50.16
	L 106.3 50.87
	L 106.7 51.82
	M 106.3 50.87
	L 107.1 51.58
	L 108 51.89
	M 107.1 51.58
	L 107.8 52.28
	L 108.7 52.59
	L 109.4 53.3
	M 108.7 52.59
	L 109.7 52.9
	L 110.7 52.74
	M 109.7 52.9
	L 110.6 53.21
	L 111.3 53.92
	L 111.6 54.87
	M 111.3 53.92
	L 112 54.62
	M 110.6 53.21
	L 111.6 53.52
	L 112.3 54.23
	M 111.6 53.52
	L 112.5 53.83
	L 113.5 53.67
	L 114.3 53.08
	M 113.5 53.67
	L 114.5 53.52
	M 112.5 53.83
	L 113.5 54.14
	L 114.2 54.84
	M 113.5 54.14
	L 114.4 54.45
	L 115.4 54.29
	M 114.4 54.45
	L 115.4 54.76
	L 116.4 54.6
	L 117.3 54.91
	M 116.4 54.6
	L 117.3 54.44
	L 118.2 53.85
	M 117.3 54.44
	L 118.3 54.29
	L 119.3 54.6
	L 120 55.3
	M 119.3 54.6
	L 120.2 54.9
	M 118.3 54.29
	L 119.3 54.13
	L 120.3 54.44
	M 119.3 54.13
	L 120.3 53.97
	L 121.1 53.39
	L 122.1 53.23
	M 121.1 53.39
	L 121.9 52.8
	L 122.4 51.91
	M 121.9 52.8
	L 122.7 52.21
	M 120.3 53.97
	L 121.3 53.82
	L 122.2 54.13
	M 121.3 53.82
	L 122.3 53.66
	L 123.1 53.07
	M 122.3 53.66
	L 123.3 53.5
	M 115.4 54.76
	L 116.3 55.06
	L 117 55.77
	M 116.3 55.06
	L 117.3 55.37
	L 118 56.08
	L 118.3 57.03
	M 118 56.08
	L 118.7 56.79
	M 117.3 55.37
	L 118.2 55.68
	L 118.9 56.39
	M 118.2 55.68
	L 119.2 55.99
	M 107.8 52.28
	L 108.5 52.99
	L 108.8 53.94
	M 108.5 52.99
	L 109.2 53.7
	L 110.1 54.01
	M 109.2 53.7
	L 109.9 54.4
	L 110.2 55.36
	L 110.9 56.06
	M 110.2 55.36
	L 110.5 56.31
	M 109.9 54.4
	L 110.6 55.11
	L 111.5 55.42
	M 110.6 55.11
	L 111.3 55.82
	L 112.2 56.13
	L 113.2 55.97
	M 112.2 56.13
	L 113.2 56.44
	M 111.3 55.82
	L 112 56.53
	L 112.3 57.48
	M 112 56.53
	L 112.7 57.23
	L 113.7 57.54
	M 112.7 57.23
	L 113.4 57.94
	L 114.4 58.25
	L 115.1 58.96
	M 114.4 58.25
	L 115.3 58.56
	L 116.3 58.4
	M 115.3 58.56
	L 116.3 58.87
	L 117.3 58.71
	L 118.2 59.02
	M 117.3 58.71
	L 118.2 58.55
	L 119.1 57.97
	M 118.2 58.55
	L 119.2 58.4
	M 116.3 58.87
	L 117.2 59.18
	L 117.9 59.88
	M 117.2 59.18
	L 118.2 59.49
	M 113.4 57.94
	L 114.1 58.65
	L 114.4 59.6
	M 114.1 58.65
	L 114.8 59.35
	L 115.8 59.66
	L 116.8 59.51
	M 115.8 59.66
	L 116.7 59.97
	M 114.8 59.35
	L 115.5 60.06
	L 115.9 61.01
	M 115.5 60.06
	L 116.2 60.77
	M 92.21 36.73
	L 92.52 37.68
	L 92.36 38.67
	M 92.52 37.68
	L 92.82 38.63
	L 92.67 39.62
	L 92.08 40.43
	M 92.67 39.62
	L 92.51 40.6
	L 92.82 41.56
	M 92.51 40.6
	L 92.36 41.59
	M 92.82 38.63
	L 93.13 39.58
	L 92.98 40.57
	M 93.13 39.58
	L 93.44 40.53
	L 94.15 41.24
	L 95.1 41.55
	M 94.15 41.24
	L 94.86 41.95
	M 93.44 40.53
	L 93.75 41.48
	L 94.46 42.19
	M 93.75 41.48
	L 94.06 42.43
	L 94.77 43.14
	L 95.08 44.09
	M 94.77 43.14
	L 95.48 43.85
	L 96.43 44.16
	M 95.48 43.85
	L 96.18 44.55
	L 96.49 45.51
	L 97.2 46.21
	M 96.49 45.51
	L 96.8 46.46
	M 96.18 44.55
	L 96.89 45.26
	L 97.2 46.21
	M 96.89 45.26
	L 97.6 45.97
	L 98.55 46.28
	L 99.54 46.12
	M 98.55 46.28
	L 99.5 46.59
	M 97.6 45.97
	L 98.3 46.68
	L 99.25 46.98
	M 98.3 46.68
	L 99.01 47.38
	M 94.06 42.43
	L 94.37 43.38
	L 94.21 44.37
	M 94.37 43.38
	L 94.68 44.34
	L 95.39 45.04
	M 94.68 44.34
	L 94.99 45.29
	L 94.83 46.27
	L 95.14 47.23
	M 94.83 46.27
	L 94.68 47.26
	M 94.99 45.29
	L 95.3 46.24
	L 95.14 47.23
	M 95.3 46.24
	L 95.61 47.19
	L 96.31 47.9
	L 96.62 48.85
	M 96.31 47.9
	L 97.02 48.6
	L 97.97 48.91
	M 97.02 48.6
	L 97.73 49.31
	M 95.61 47.19
	L 95.92 48.14
	L 95.76 49.13
	M 95.92 48.14
	L 96.22 49.09
	L 96.93 49.8
	M 96.22 49.09
	L 96.53 50.04
	L 96.38 51.03
	L 96.69 51.98
	M 96.38 51.03
	L 96.22 52.02
	L 96.53 52.97
	L 97.24 53.68
	M 96.53 52.97
	L 96.84 53.92
	M 96.22 52.02
	L 96.06 53
	L 95.48 53.81
	M 96.06 53
	L 95.91 53.99
	L 95.32 54.8
	L 94.43 55.26
	M 95.32 54.8
	L 94.73 55.61
	L 94.58 56.6
	M 94.73 55.61
	L 94.14 56.42
	L 93.25 56.87
	L 92.25 56.87
	M 93.25 56.87
	L 92.36 57.33
	L 91.77 58.14
	M 92.36 57.33
	L 91.47 57.78
	M 94.14 56.42
	L 93.56 57.23
	L 92.67 57.68
	M 93.56 57.23
	L 92.97 58.04
	M 95.91 53.99
	L 95.75 54.98
	L 95.16 55.79
	M 95.75 54.98
	L 95.59 55.97
	L 95.01 56.78
	L 94.85 57.76
	M 95.01 56.78
	L 94.42 57.59
	M 95.59 55.97
	L 95.44 56.96
	L 94.85 57.76
	M 95.44 56.96
	L 95.28 57.94
	L 95.59 58.89
	L 96.3 59.6
	M 95.59 58.89
	L 95.9 59.85
	L 95.74 60.83
	L 95.16 61.64
	M 95.74 60.83
	L 95.59 61.82
	M 95.9 59.85
	L 96.21 60.8
	L 96.92 61.5
	M 96.21 60.8
	L 96.52 61.75
	L 97.22 62.45
	L 97.53 63.41
	M 97.22 62.45
	L 97.93 63.16
	L 98.88 63.47
	M 97.93 63.16
	L 98.64 63.87
	M 96.52 61.75
	L 96.83 62.7
	L 96.67 63.69
	M 96.83 62.7
	L 97.14 63.65
	L 97.84 64.36
	M 97.14 63.65
	L 97.44 64.6
	M 95.28 57.94
	L 95.13 58.93
	L 95.43 59.88
	M 95.13 58.93
	L 94.97 59.92
	L 95.28 60.87
	L 95.98 61.58
	M 95.28 60.87
	L 95.59 61.82
	M 94.97 59.92
	L 94.81 60.91
	L 94.22 61.72
	M 94.81 60.91
	L 94.66 61.89
	L 94.96 62.85
	M 94.66 61.89
	L 94.5 62.88
	M 96.53 50.04
	L 96.84 50.99
	L 97.55 51.7
	M 96.84 50.99
	L 97.15 51.94
	L 96.99 52.93
	L 96.41 53.74
	M 96.99 52.93
	L 96.84 53.92
	L 97.15 54.87
	M 96.84 53.92
	L 96.68 54.91
	M 97.15 51.94
	L 97.46 52.89
	L 98.17 53.6
	M 97.46 52.89
	L 97.77 53.85
	L 97.61 54.83
	L 97.02 55.64
	M 97.61 54.83
	L 97.46 55.82
	L 97.77 56.77
	L 98.47 57.48
	M 97.77 56.77
	L 98.07 57.72
	M 97.46 55.82
	L 97.3 56.81
	L 97.61 57.76
	M 97.3 56.81
	L 97.14 57.8
	M 97.77 53.85
	L 98.08 54.8
	L 97.92 55.78
	M 98.08 54.8
	L 98.39 55.75
	L 98.23 56.74
	L 97.64 57.54
	M 98.23 56.74
	L 98.07 57.72
	M 98.39 55.75
	L 98.7 56.7
	L 98.54 57.69
	M 98.7 56.7
	L 99.01 57.65
	L 99.71 58.36
	L 100 59.31
	M 99.71 58.36
	L 100.4 59.06
	L 101.4 59.37
	M 100.4 59.06
	L 101.1 59.77
	L 101.4 60.72
	L 101.3 61.71
	M 101.4 60.72
	L 101.7 61.67
	L 102.5 62.38
	M 101.7 61.67
	L 102.1 62.62
	M 101.1 59.77
	L 101.8 60.48
	L 102.8 60.79
	M 101.8 60.48
	L 102.5 61.19
	L 103.5 61.49
	L 104.2 62.2
	M 103.5 61.49
	L 104.4 61.8
	M 102.5 61.19
	L 103.2 61.89
	L 103.6 62.84
	M 103.2 61.89
	L 104 62.6
	L 104.9 62.91
	M 104 62.6
	L 104.7 63.31
	M 99.01 57.65
	L 99.31 58.6
	L 100 59.31
	M 99.31 58.6
	L 99.62 59.55
	L 100.3 60.26
	L 100.6 61.21
	M 100.3 60.26
	L 101 60.97
	M 99.62 59.55
	L 99.93 60.5
	L 99.78 61.49
	M 99.93 60.5
	L 100.2 61.45
	M 78.61 -5.12
	L 79.56 -5.429
	L 80.51 -5.738
	L 81.46 -6.047
	L 82.41 -6.356
	L 83.31 -6.81
	L 84.2 -7.264
	L 85.09 -7.718
	L 85.98 -8.172
	L 86.79 -8.759
	L 87.6 -9.347
	L 88.41 -9.935
	L 89.21 -10.52
	L 90.11 -10.98
	L 91 -11.43
	L 91.89 -11.88
	L 92.78 -12.34
	L 93.59 -12.93
	L 94.4 -13.51
	L 95.21 -14.1
	L 96.01 -14.69
	L 96.91 -15.14
	L 97.8 -15.6
	L 98.69 -16.05
	L 99.58 -16.51
	L 100.4 -17.09
	L 101.2 -17.68
	L 102 -18.27
	L 102.8 -18.86
	L 103.7 -19.31
	L 104.6 -19.76
	L 105.5 -20.22
	L 106.4 -20.67
	L 107.2 -21.26
	L 108 -21.85
	L 108.8 -22.44
	L 109.6 -23.02
	L 110.5 -23.48
	L 111.4 -23.93
	L 112.3 -24.39
	L 113.2 -24.84
	L 114 -25.43
	L 114.8 -26.02
	L 115.6 -26.6
	L 116.4 -27.19
	L 117.1 -27.9
	L 117.8 -28.61
	L 118.5 -29.31
	L 119.2 -30.02
	L 120.1 -30.61
	L 120.9 -31.2
	L 121.7 -31.78
	L 122.5 -32.37
	L 123.4 -32.82
	L 124.3 -33.28
	L 125.2 -33.73
	L 126 -34.19
	L 126.9 -34.77
	L 127.7 -35.36
	L 128.5 -35.95
	L 129.3 -36.54
	L 130 -37.25
	L 130.7 -37.95
	L 131.4 -38.66
	L 132.1 -39.37
	L 132.7 -40.18
	L 133.3 -40.98
	L 133.9 -41.79
	L 134.5 -42.6
	L 135.3 -42.01
	L 135.7 -41.12
	M 135.3 -42.01
	L 136.1 -41.43
	L 136.5 -40.54
	L 136.5 -39.54
	M 136.5 -40.54
	L 137 -39.64
	L 137.8 -39.06
	M 137 -39.64
	L 137.4 -38.75
	M 136.1 -41.43
	L 136.9 -40.84
	L 137.3 -39.95
	M 136.9 -40.84
	L 137.7 -40.25
	L 138.7 -40.09
	M 137.7 -40.25
	L 138.5 -39.66
	L 139.5 -39.51
	L 140.3 -38.92
	M 139.5 -39.51
	L 140.5 -39.35
	L 141.4 -39.66
	M 140.5 -39.35
	L 141.5 -39.19
	M 138.5 -39.66
	L 139.3 -39.08
	L 139.8 -38.18
	M 139.3 -39.08
	L 140.1 -38.49
	L 141.1 -38.33
	M 140.1 -38.49
	L 140.9 -37.9
	L 141.4 -37.01
	L 141.4 -36.01
	M 141.4 -37.01
	L 141.8 -36.12
	L 142.6 -35.53
	M 141.8 -36.12
	L 142.3 -35.23
	L 142.3 -34.23
	L 141.8 -33.34
	M 142.3 -34.23
	L 142.3 -33.23
	M 142.3 -35.23
	L 142.7 -34.34
	L 143.6 -33.75
	M 142.7 -34.34
	L 143.2 -33.45
	M 140.9 -37.9
	L 141.7 -37.31
	L 142.7 -37.16
	M 141.7 -37.31
	L 142.5 -36.72
	L 143.5 -36.57
	L 144.3 -35.98
	M 143.5 -36.57
	L 144.5 -36.41
	L 145.5 -36.72
	M 144.5 -36.41
	L 145.5 -36.26
	M 142.5 -36.72
	L 143.4 -36.14
	L 143.8 -35.25
	M 143.4 -36.14
	L 144.2 -35.55
	L 144.6 -34.66
	L 145.4 -34.07
	M 144.6 -34.66
	L 145.1 -33.77
	L 145.1 -32.77
	L 145.5 -31.88
	M 145.1 -32.77
	L 145.1 -31.77
	M 145.1 -33.77
	L 145.5 -32.88
	L 145.5 -31.88
	M 145.5 -32.88
	L 146 -31.98
	L 146.8 -31.4
	M 146 -31.98
	L 146.4 -31.09
	L 146.4 -30.09
	L 146.9 -29.2
	M 146.4 -30.09
	L 146.4 -29.09
	L 146 -28.2
	L 145.2 -27.62
	M 146 -28.2
	L 145.5 -27.31
	L 145.5 -26.31
	M 145.5 -27.31
	L 145.1 -26.42
	M 146.4 -29.09
	L 146.4 -28.09
	L 146 -27.2
	M 146.4 -28.09
	L 146.4 -27.09
	L 146.9 -26.2
	L 146.9 -25.2
	M 146.9 -26.2
	L 147.3 -25.31
	L 148.2 -24.72
	M 147.3 -25.31
	L 147.8 -24.42
	M 146.4 -27.09
	L 146.4 -26.09
	L 146 -25.2
	M 146.4 -26.09
	L 146.4 -25.09
	L 146.9 -24.2
	M 146.4 -25.09
	L 146.4 -24.09
	M 146.4 -31.09
	L 146.9 -30.2
	L 147.7 -29.62
	M 146.9 -30.2
	L 147.3 -29.31
	L 148.2 -28.72
	L 148.6 -27.83
	M 148.2 -28.72
	L 149 -28.14
	M 147.3 -29.31
	L 147.8 -28.42
	L 147.8 -27.42
	M 147.8 -28.42
	L 148.3 -27.53
	L 149.1 -26.94
	L 149.5 -26.05
	M 149.1 -26.94
	L 149.9 -26.35
	L 150.9 -26.2
	L 151.8 -26.51
	M 150.9 -26.2
	L 151.8 -26.04
	M 149.9 -26.35
	L 150.7 -25.77
	L 151.1 -24.88
	M 150.7 -25.77
	L 151.5 -25.18
	L 152.5 -25.02
	M 151.5 -25.18
	L 152.3 -24.59
	M 148.3 -27.53
	L 148.7 -26.64
	L 149.5 -26.05
	M 148.7 -26.64
	L 149.2 -25.75
	L 150 -25.16
	L 151 -25
	M 150 -25.16
	L 150.8 -24.57
	M 149.2 -25.75
	L 149.6 -24.86
	L 149.6 -23.86
	M 149.6 -24.86
	L 150.1 -23.97
	L 150.9 -23.38
	M 150.1 -23.97
	L 150.5 -23.07
	M 144.2 -35.55
	L 145 -34.96
	L 145.4 -34.07
	M 145 -34.96
	L 145.8 -34.37
	L 146.8 -34.22
	M 145.8 -34.37
	L 146.6 -33.79
	L 147.6 -33.63
	L 148.5 -33.94
	M 147.6 -33.63
	L 148.6 -33.47
	M 146.6 -33.79
	L 147.4 -33.2
	L 148.4 -33.04
	M 147.4 -33.2
	L 148.2 -32.61
	L 149.2 -32.45
	L 150 -31.87
	M 149.2 -32.45
	L 150.2 -32.3
	L 151.1 -32.61
	M 150.2 -32.3
	L 151.2 -32.14
	L 152 -31.55
	L 152.4 -30.66
	M 152 -31.55
	L 152.8 -30.97
	M 151.2 -32.14
	L 152.2 -31.98
	L 153.1 -32.29
	M 152.2 -31.98
	L 153.2 -31.83
	M 148.2 -32.61
	L 149 -32.02
	L 150 -31.87
	M 149 -32.02
	L 149.8 -31.43
	L 150.3 -30.54
	L 151.1 -29.96
	M 150.3 -30.54
	L 150.7 -29.65
	M 149.8 -31.43
	L 150.6 -30.85
	L 151.6 -30.69
	M 150.6 -30.85
	L 151.4 -30.26
	L 152.4 -30.1
	L 153.2 -29.51
	M 152.4 -30.1
	L 153.4 -29.95
	L 154.4 -30.26
	M 153.4 -29.95
	L 154.4 -29.79
	M 151.4 -30.26
	L 152.3 -29.67
	L 152.7 -28.78
	M 152.3 -29.67
	L 153.1 -29.08
	L 154.1 -28.93
	L 154.9 -28.34
	M 154.1 -28.93
	L 155 -28.77
	L 156 -29.08
	M 155 -28.77
	L 156 -28.61
	L 156.8 -28.03
	L 157.3 -27.14
	M 156.8 -28.03
	L 157.6 -27.44
	M 156 -28.61
	L 157 -28.46
	L 157.8 -27.87
	M 157 -28.46
	L 158 -28.3
	L 159 -28.61
	M 158 -28.3
	L 159 -28.14
	L 159.9 -28.45
	L 160.9 -28.3
	M 159.9 -28.45
	L 160.9 -28.76
	L 161.6 -29.47
	L 162.6 -29.78
	M 161.6 -29.47
	L 162.3 -30.18
	L 162.6 -31.13
	M 162.3 -30.18
	L 163 -30.88
	M 160.9 -28.76
	L 161.8 -29.07
	L 162.8 -28.92
	M 161.8 -29.07
	L 162.8 -29.38
	M 159 -28.14
	L 160 -27.99
	L 160.9 -28.3
	M 160 -27.99
	L 161 -27.83
	L 161.8 -27.24
	L 162.2 -26.35
	M 161.8 -27.24
	L 162.6 -26.66
	L 163.6 -26.5
	M 162.6 -26.66
	L 163.4 -26.07
	M 161 -27.83
	L 162 -27.68
	L 162.8 -27.09
	M 162 -27.68
	L 162.9 -27.52
	L 163.9 -27.83
	M 162.9 -27.52
	L 163.9 -27.36
	M 153.1 -29.08
	L 153.9 -28.5
	L 154.3 -27.6
	M 153.9 -28.5
	L 154.7 -27.91
	L 155.7 -27.75
	M 154.7 -27.91
	L 155.5 -27.32
	L 155.9 -26.43
	L 156.8 -25.84
	M 155.9 -26.43
	L 156.4 -25.54
	M 155.5 -27.32
	L 156.3 -26.73
	L 156.8 -25.84
	M 156.3 -26.73
	L 157.1 -26.14
	L 158.1 -25.99
	M 157.1 -26.14
	L 157.9 -25.56
	L 158.9 -25.4
	L 159.7 -24.81
	M 158.9 -25.4
	L 159.9 -25.24
	L 160.8 -25.55
	M 159.9 -25.24
	L 160.9 -25.09
	M 157.9 -25.56
	L 158.7 -24.97
	L 159.2 -24.08
	M 158.7 -24.97
	L 159.5 -24.38
	L 160 -23.49
	L 160.8 -22.9
	M 160 -23.49
	L 160.4 -22.6
	L 161.3 -22.01
	L 161.7 -21.12
	M 161.3 -22.01
	L 162.1 -21.42
	L 163.1 -21.27
	M 162.1 -21.42
	L 162.9 -20.84
	M 160.4 -22.6
	L 160.9 -21.71
	L 160.9 -20.71
	M 160.9 -21.71
	L 161.4 -20.82
	L 162.2 -20.23
	M 161.4 -20.82
	L 161.8 -19.93
	M 159.5 -24.38
	L 160.3 -23.79
	L 161.3 -23.64
	M 160.3 -23.79
	L 161.2 -23.21
	L 161.6 -22.31
	L 161.6 -21.31
	M 161.6 -22.31
	L 162.1 -21.42
	L 162.9 -20.84
	M 162.1 -21.42
	L 162.5 -20.53
	M 161.2 -23.21
	L 162 -22.62
	L 162.4 -21.73
	M 162 -22.62
	L 162.8 -22.03
	L 163.8 -21.87
	L 164.6 -21.29
	M 163.8 -21.87
	L 164.7 -21.72
	M 162.8 -22.03
	L 163.6 -21.44
	L 164 -20.55
	M 163.6 -21.44
	L 164.4 -20.85
	L 165.4 -20.7
	M 164.4 -20.85
	L 165.2 -20.27
	L 165.7 -19.38
	L 166.5 -18.79
	M 165.7 -19.38
	L 166.1 -18.48
	L 166.9 -17.9
	L 167.9 -17.74
	M 166.9 -17.9
	L 167.7 -17.31
	M 166.1 -18.48
	L 166.6 -17.59
	L 166.6 -16.59
	M 166.6 -17.59
	L 167 -16.7
	L 167.8 -16.11
	M 167 -16.7
	L 167.5 -15.81
	L 167.5 -14.81
	L 167 -13.92
	M 167.5 -14.81
	L 167.5 -13.81
	L 167.9 -12.92
	M 167.5 -13.81
	L 167.5 -12.81
	L 167 -11.92
	L 166.2 -11.33
	M 167 -11.92
	L 166.6 -11.03
	M 167.5 -12.81
	L 167.5 -11.81
	L 167 -10.92
	M 167.5 -11.81
	L 167.5 -10.81
	L 167.9 -9.92
	M 167.5 -10.81
	L 167.5 -9.811
	L 167.9 -8.92
	L 167.9 -7.92
	M 167.9 -8.92
	L 168.4 -8.029
	L 169.2 -7.442
	M 168.4 -8.029
	L 168.8 -7.138
	M 167.5 -9.811
	L 167.5 -8.811
	L 167 -7.92
	M 167.5 -8.811
	L 167.5 -7.811
	L 167.9 -6.92
	M 167.5 -7.811
	L 167.5 -6.811
	M 167.5 -15.81
	L 167.9 -14.92
	L 168.7 -14.33
	M 167.9 -14.92
	L 168.4 -14.03
	L 169.2 -13.44
	L 169.6 -12.55
	M 169.2 -13.44
	L 170 -12.85
	M 168.4 -14.03
	L 168.8 -13.14
	L 169.6 -12.55
	M 168.8 -13.14
	L 169.3 -12.25
	L 170.1 -11.66
	L 170.6 -10.77
	M 170.1 -11.66
	L 170.9 -11.07
	L 171.9 -10.92
	M 170.9 -11.07
	L 171.7 -10.48
	L 172.2 -9.593
	L 173 -9.005
	M 172.2 -9.593
	L 172.6 -8.702
	M 171.7 -10.48
	L 172.5 -9.896
	L 173 -9.005
	M 172.5 -9.896
	L 173.3 -9.309
	L 174.3 -9.152
	L 175.1 -8.564
	M 174.3 -9.152
	L 175.3 -8.996
	M 173.3 -9.309
	L 174.1 -8.721
	L 175.1 -8.564
	M 174.1 -8.721
	L 175 -8.133
	M 169.3 -12.25
	L 169.7 -11.36
	L 169.7 -10.36
	M 169.7 -11.36
	L 170.2 -10.47
	L 171 -9.878
	M 170.2 -10.47
	L 170.6 -9.574
	L 171.5 -8.987
	L 171.9 -8.096
	M 171.5 -8.987
	L 172.3 -8.399
	L 173.3 -8.242
	M 172.3 -8.399
	L 173.1 -7.811
	M 170.6 -9.574
	L 171.1 -8.683
	L 171.9 -8.096
	M 171.1 -8.683
	L 171.6 -7.792
	L 172.4 -7.205
	L 173.4 -7.048
	M 172.4 -7.205
	L 173.2 -6.617
	L 173.6 -5.726
	L 173.6 -4.726
	M 173.6 -5.726
	L 174.1 -4.835
	L 174.9 -4.247
	M 174.1 -4.835
	L 174.5 -3.944
	M 173.2 -6.617
	L 174 -6.029
	L 174.4 -5.138
	M 174 -6.029
	L 174.8 -5.441
	L 175.8 -5.285
	M 174.8 -5.441
	L 175.6 -4.854
	L 176.1 -3.962
	L 176.1 -2.962
	M 176.1 -3.962
	L 176.5 -3.071
	L 176.5 -2.071
	L 176.1 -1.18
	M 176.5 -2.071
	L 176.5 -1.071
	M 176.5 -3.071
	L 177 -2.18
	L 177.8 -1.593
	M 177 -2.18
	L 177.4 -1.289
	L 178.2 -0.7017
	L 179.2 -0.5453
	M 178.2 -0.7017
	L 179 -0.1139
	M 177.4 -1.289
	L 177.9 -0.3985
	L 177.9 0.6015
	M 177.9 -0.3985
	L 178.3 0.4925
	L 179.1 1.08
	M 178.3 0.4925
	L 178.8 1.384
	M 175.6 -4.854
	L 176.4 -4.266
	L 176.9 -3.375
	M 176.4 -4.266
	L 177.2 -3.678
	L 177.7 -2.787
	L 177.7 -1.787
	M 177.7 -2.787
	L 178.1 -1.896
	L 178.9 -1.308
	M 178.1 -1.896
	L 178.6 -1.005
	M 177.2 -3.678
	L 178 -3.09
	L 178.5 -2.199
	M 178 -3.09
	L 178.8 -2.502
	L 179.8 -2.346
	M 178.8 -2.502
	L 179.6 -1.915
	M 171.6 -7.792
	L 172 -6.901
	L 172 -5.901
	M 172 -6.901
	L 172.5 -6.01
	L 173.3 -5.423
	M 172.5 -6.01
	L 172.9 -5.119
	L 172.9 -4.119
	L 173.4 -3.228
	M 172.9 -4.119
	L 172.9 -3.119
	M 172.9 -5.119
	L 173.4 -4.228
	L 173.4 -3.228
	M 173.4 -4.228
	L 173.8 -3.337
	L 174.6 -2.75
	M 173.8 -3.337
	L 174.3 -2.446
	L 175.1 -1.859
	L 175.5 -0.9676
	M 175.1 -1.859
	L 175.9 -1.271
	M 174.3 -2.446
	L 174.7 -1.555
	L 174.7 -0.5554
	M 174.7 -1.555
	L 175.2 -0.6644
	L 176 -0.07659
	M 175.2 -0.6644
	L 175.6 0.2266
	L 176.5 0.8144
	L 176.9 1.705
	M 176.5 0.8144
	L 177.3 1.402
	L 178.2 1.559
	M 177.3 1.402
	L 178.1 1.99
	L 178.5 2.881
	L 179.3 3.469
	M 178.5 2.881
	L 179 3.772
	M 178.1 1.99
	L 178.9 2.578
	L 179.9 2.734
	M 178.9 2.578
	L 179.7 3.166
	L 180.7 3.322
	L 181.5 3.91
	M 180.7 3.322
	L 181.7 3.478
	L 182.6 3.169
	M 181.7 3.478
	L 182.7 3.635
	M 179.7 3.166
	L 180.5 3.753
	L 181.5 3.91
	M 180.5 3.753
	L 181.3 4.341
	M 175.6 0.2266
	L 176.1 1.118
	L 176.9 1.705
	M 176.1 1.118
	L 176.6 2.009
	L 176.6 3.009
	L 176.1 3.9
	M 176.6 3.009
	L 176.6 4.009
	M 176.6 2.009
	L 177 2.9
	L 177 3.9
	M 177 2.9
	L 177.5 3.791
	L 178.3 4.378
	M 177.5 3.791
	L 177.9 4.682
	M 165.2 -20.27
	L 166 -19.68
	L 166.5 -18.79
	M 166 -19.68
	L 166.8 -19.09
	L 167.8 -18.93
	M 166.8 -19.09
	L 167.6 -18.5
	L 168.1 -17.61
	L 168.1 -16.61
	M 168.1 -17.61
	L 168.5 -16.72
	L 169.3 -16.13
	M 168.5 -16.72
	L 169 -15.83
	M 167.6 -18.5
	L 168.4 -17.92
	L 169.4 -17.76
	M 168.4 -17.92
	L 169.2 -17.33
	L 169.7 -16.44
	L 170.5 -15.85
	M 169.7 -16.44
	L 170.2 -15.55
	L 170.2 -14.55
	L 169.7 -13.65
	M 170.2 -14.55
	L 170.2 -13.55
	M 170.2 -15.55
	L 170.6 -14.65
	L 171.4 -14.07
	M 170.6 -14.65
	L 171.1 -13.76
	L 171.9 -13.18
	L 172.9 -13.02
	M 171.9 -13.18
	L 172.7 -12.59
	M 171.1 -13.76
	L 171.5 -12.87
	L 172.3 -12.28
	M 171.5 -12.87
	L 172 -11.98
	M 169.2 -17.33
	L 170.1 -16.74
	L 170.5 -15.85
	M 170.1 -16.74
	L 170.9 -16.15
	L 171.9 -16
	L 172.7 -15.41
	M 171.9 -16
	L 172.8 -15.84
	M 170.9 -16.15
	L 171.7 -15.56
	L 172.1 -14.67
	M 171.7 -15.56
	L 172.5 -14.98
	L 173.5 -14.82
	L 174.3 -14.23
	M 173.5 -14.82
	L 174.5 -14.66
	L 175.4 -14.97
	M 174.5 -14.66
	L 175.4 -14.51
	L 176.3 -13.92
	L 176.7 -13.03
	M 176.3 -13.92
	L 177.1 -13.33
	L 178.1 -13.18
	M 177.1 -13.33
	L 177.9 -12.74
	M 175.4 -14.51
	L 176.4 -14.35
	L 177.4 -14.66
	M 176.4 -14.35
	L 177.4 -14.19
	M 172.5 -14.98
	L 173.3 -14.39
	L 174.3 -14.23
	M 173.3 -14.39
	L 174.1 -13.8
	L 175.1 -13.64
	L 175.9 -13.06
	M 175.1 -13.64
	L 176.1 -13.49
	M 174.1 -13.8
	L 174.9 -13.21
	L 175.4 -12.32
	M 174.9 -13.21
	L 175.7 -12.63
	L 176.7 -12.47
	M 175.7 -12.63
	L 176.5 -12.04
	L 177 -11.15
	L 177 -10.15
	M 177 -11.15
	L 177.4 -10.26
	L 178.2 -9.668
	M 177.4 -10.26
	L 177.9 -9.365
	L 177.9 -8.365
	L 177.4 -7.474
	M 177.9 -8.365
	L 177.9 -7.365
	L 178.3 -6.474
	M 177.9 -7.365
	L 177.9 -6.365
	M 177.9 -9.365
	L 178.3 -8.474
	L 178.3 -7.474
	M 178.3 -8.474
	L 178.8 -7.582
	L 179.6 -6.995
	L 180.1 -6.104
	M 179.6 -6.995
	L 180.4 -6.407
	M 178.8 -7.582
	L 179.3 -6.691
	L 180.1 -6.104
	M 179.3 -6.691
	L 179.7 -5.8
	L 180.5 -5.213
	L 181.5 -5.056
	M 180.5 -5.213
	L 181.3 -4.625
	L 182.3 -4.468
	L 183.1 -3.881
	M 182.3 -4.468
	L 183.3 -4.312
	M 181.3 -4.625
	L 182.1 -4.037
	L 182.6 -3.146
	M 182.1 -4.037
	L 182.9 -3.449
	M 179.7 -5.8
	L 180.2 -4.909
	L 180.2 -3.909
	M 180.2 -4.909
	L 180.6 -4.018
	L 181.4 -3.431
	M 180.6 -4.018
	L 181.1 -3.127
	L 181.9 -2.54
	L 182.3 -1.649
	M 181.9 -2.54
	L 182.7 -1.952
	M 181.1 -3.127
	L 181.5 -2.236
	L 181.5 -1.236
	M 181.5 -2.236
	L 182 -1.345
	L 182.8 -0.7577
	M 182 -1.345
	L 182.4 -0.4544
	M 176.5 -12.04
	L 177.3 -11.45
	L 177.8 -10.56
	M 177.3 -11.45
	L 178.1 -10.86
	L 178.6 -9.971
	L 179.4 -9.383
	M 178.6 -9.971
	L 179.1 -9.08
	M 178.1 -10.86
	L 179 -10.27
	L 179.4 -9.383
	M 179 -10.27
	L 179.8 -9.686
	L 180.2 -8.795
	L 181 -8.208
	M 180.2 -8.795
	L 180.7 -7.904
	L 181.5 -7.317
	L 182.5 -7.16
	M 181.5 -7.317
	L 182.3 -6.729
	M 180.7 -7.904
	L 181.1 -7.013
	L 181.9 -6.426
	M 181.1 -7.013
	L 181.6 -6.122
	M 179.8 -9.686
	L 180.6 -9.099
	L 181 -8.208
	M 180.6 -9.099
	L 181.4 -8.511
	L 182.4 -8.354
	M 181.4 -8.511
	L 182.2 -7.923
	L 183.2 -7.767
	L 184.1 -8.076
	M 183.2 -7.767
	L 184.2 -7.61
	M 182.2 -7.923
	L 183 -7.335
	L 183.5 -6.444
	M 183 -7.335
	L 183.8 -6.747
	L 184.8 -6.591
	L 185.7 -6.9
	M 184.8 -6.591
	L 185.8 -6.435
	L 186.6 -5.847
	L 187 -4.956
	M 186.6 -5.847
	L 187.4 -5.259
	L 188.4 -5.103
	M 187.4 -5.259
	L 188.2 -4.671
	M 185.8 -6.435
	L 186.8 -6.278
	L 187.6 -5.69
	M 186.8 -6.278
	L 187.8 -6.122
	L 188.6 -5.534
	L 189.6 -5.378
	M 188.6 -5.534
	L 189.4 -4.946
	L 189.8 -4.055
	L 190.6 -3.467
	M 189.8 -4.055
	L 190.3 -3.164
	M 189.4 -4.946
	L 190.2 -4.358
	L 190.6 -3.467
	M 190.2 -4.358
	L 191 -3.771
	L 192 -3.614
	M 191 -3.771
	L 191.8 -3.183
	L 192.8 -3.026
	L 193.6 -2.439
	M 192.8 -3.026
	L 193.8 -2.87
	M 191.8 -3.183
	L 192.6 -2.595
	L 193.1 -1.704
	M 192.6 -2.595
	L 193.4 -2.007
	L 194.4 -1.851
	M 193.4 -2.007
	L 194.2 -1.419
	M 187.8 -6.122
	L 188.7 -5.965
	L 189.6 -5.378
	M 188.7 -5.965
	L 189.7 -5.809
	L 190.7 -6.118
	M 189.7 -5.809
	L 190.7 -5.652
	L 191.7 -5.961
	L 192.4 -6.669
	M 191.7 -5.961
	L 192.6 -6.27
	M 190.7 -5.652
	L 191.7 -5.496
	L 192.5 -4.908
	M 191.7 -5.496
	L 192.7 -5.34
	M 183.8 -6.747
	L 184.6 -6.16
	L 185.1 -5.269
	M 184.6 -6.16
	L 185.4 -5.572
	L 186.4 -5.415
	L 187.2 -4.828
	M 186.4 -5.415
	L 187.4 -5.259
	L 188.4 -5.568
	M 187.4 -5.259
	L 188.4 -5.103
	M 185.4 -5.572
	L 186.2 -4.984
	L 186.7 -4.093
	M 186.2 -4.984
	L 187 -4.396
	L 188 -4.24
	M 187 -4.396
	L 187.9 -3.809
	L 188.8 -3.652
	L 189.7 -3.064
	M 188.8 -3.652
	L 189.8 -3.496
	L 190.6 -2.908
	L 191.6 -2.751
	M 190.6 -2.908
	L 191.4 -2.32
	M 189.8 -3.496
	L 190.8 -3.339
	L 191.8 -3.648
	M 190.8 -3.339
	L 191.8 -3.183
	M 187.9 -3.809
	L 188.7 -3.221
	L 189.1 -2.33
	M 188.7 -3.221
	L 189.5 -2.633
	L 189.9 -1.742
	L 189.9 -0.742
	M 189.9 -1.742
	L 190.4 -0.8509
	M 189.5 -2.633
	L 190.3 -2.045
	L 190.7 -1.154
	M 190.3 -2.045
	L 191.1 -1.457
	L 192.1 -1.301
	L 193 -1.61
	M 192.1 -1.301
	L 193.1 -1.145
	M 191.1 -1.457
	L 191.9 -0.8696
	L 192.9 -0.7132
	M 191.9 -0.8696
	L 192.7 -0.2818
	L 193.7 -0.1254
	L 194.5 0.4624
	M 193.7 -0.1254
	L 194.7 0.03105
	L 195.6 -0.278
	L 196.3 -0.9851
	M 195.6 -0.278
	L 196.6 -0.587
	M 194.7 0.03105
	L 195.7 0.1875
	L 196.5 0.7753
	M 195.7 0.1875
	L 196.7 0.3439
	L 197.6 0.0349
	M 196.7 0.3439
	L 197.6 0.5004
	L 198.5 1.088
	L 199.4 1.245
	M 198.5 1.088
	L 199.3 1.676
	L 199.7 2.567
	L 199.7 3.567
	M 199.7 2.567
	L 200.2 3.458
	M 199.3 1.676
	L 200.1 2.264
	L 200.5 3.155
	M 200.1 2.264
	L 200.9 2.851
	L 201.9 3.008
	L 202.7 3.596
	M 201.9 3.008
	L 202.9 3.164
	L 203.8 2.855
	M 202.9 3.164
	L 203.8 3.321
	M 200.9 2.851
	L 201.7 3.439
	L 202.1 4.33
	M 201.7 3.439
	L 202.5 4.027
	M 197.6 0.5004
	L 198.6 0.6568
	L 199.4 1.245
	M 198.6 0.6568
	L 199.6 0.8132
	L 200.6 0.5042
	L 201.6 0.6606
	M 200.6 0.5042
	L 201.5 0.1952
	L 202.2 -0.5119
	M 201.5 0.1952
	L 202.5 -0.1138
	M 199.6 0.8132
	L 200.6 0.9697
	L 201.6 0.6606
	M 200.6 0.9697
	L 201.6 1.126
	L 202.5 0.8171
	L 203.3 0.11
	M 202.5 0.8171
	L 203.5 0.5081
	L 204.5 0.6645
	L 205.4 0.3555
	M 204.5 0.6645
	L 205.5 0.8209
	M 203.5 0.5081
	L 204.5 0.199
	L 205.2 -0.5081
	M 204.5 0.199
	L 205.4 -0.11
	M 201.6 1.126
	L 202.6 1.283
	L 203.4 1.87
	M 202.6 1.283
	L 203.6 1.439
	L 204.4 2.027
	L 204.8 2.918
	M 204.4 2.027
	L 205.2 2.615
	M 203.6 1.439
	L 204.6 1.595
	L 205.4 2.183
	M 204.6 1.595
	L 205.5 1.752
	L 206.5 1.443
	M 205.5 1.752
	L 206.5 1.908
	L 207.5 1.599
	L 208.2 0.8921
	M 207.5 1.599
	L 208.4 1.29
	M 206.5 1.908
	L 207.5 2.065
	L 208.3 2.652
	M 207.5 2.065
	L 208.5 2.221
	L 209.3 2.809
	L 209.8 3.7
	M 209.3 2.809
	L 210.1 3.397
	L 211.1 3.553
	L 212.1 3.244
	M 211.1 3.553
	L 212.1 3.71
	M 210.1 3.397
	L 210.9 3.984
	L 211.4 4.876
	M 210.9 3.984
	L 211.7 4.572
	L 212.2 5.463
	L 212.2 6.463
	M 212.2 5.463
	L 212.7 6.354
	L 213.5 6.942
	M 212.7 6.354
	L 213.1 7.245
	L 213.1 8.245
	L 213.6 9.136
	M 213.1 8.245
	L 213.1 9.245
	M 213.1 7.245
	L 213.6 8.136
	L 213.6 9.136
	M 213.6 8.136
	L 214 9.027
	M 211.7 4.572
	L 212.6 5.16
	L 213.5 5.316
	M 212.6 5.16
	L 213.4 5.748
	L 214.4 5.904
	L 215.3 5.595
	M 214.4 5.904
	L 215.3 6.061
	M 213.4 5.748
	L 214.2 6.336
	L 215.2 6.492
	M 214.2 6.336
	L 215 6.923
	M 208.5 2.221
	L 209.5 2.378
	L 210.5 2.069
	M 209.5 2.378
	L 210.5 2.534
	L 211.3 3.122
	L 211.7 4.013
	M 211.3 3.122
	L 212.1 3.71
	M 210.5 2.534
	L 211.5 2.69
	L 212.3 3.278
	M 211.5 2.69
	L 212.5 2.847
	L 213.3 3.435
	L 213.7 4.326
	M 213.3 3.435
	L 214.1 4.022
	L 214.5 4.913
	L 215.3 5.501
	M 214.5 4.913
	L 215 5.804
	M 214.1 4.022
	L 214.9 4.61
	L 215.3 5.501
	M 214.9 4.61
	L 215.7 5.198
	M 212.5 2.847
	L 213.4 3.003
	L 214.4 2.694
	M 213.4 3.003
	L 214.4 3.16
	L 215.2 3.748
	L 215.7 4.639
	M 215.2 3.748
	L 216.1 4.335
	M 214.4 3.16
	L 215.4 3.316
	L 216.4 3.007
	M 215.4 3.316
	L 216.4 3.473
	L 217.4 3.164
	L 218.1 2.456
	M 217.4 3.164
	L 218.3 2.855
	M 216.4 3.473
	L 217.4 3.629
	L 218.2 4.217
	M 217.4 3.629
	L 218.4 3.785
	M 192.7 -0.2818
	L 193.5 0.306
	L 194 1.197
	M 193.5 0.306
	L 194.3 0.8938
	L 195.3 1.05
	M 194.3 0.8938
	L 195.1 1.482
	L 195.6 2.373
	L 196.4 2.96
	M 195.6 2.373
	L 196 3.264
	M 195.1 1.482
	L 195.9 2.069
	L 196.9 2.226
	M 195.9 2.069
	L 196.8 2.657
	L 197.2 3.548
	L 198 4.136
	M 197.2 3.548
	L 197.7 4.439
	L 197.7 5.439
	L 197.2 6.33
	M 197.7 5.439
	L 197.7 6.439
	M 197.7 4.439
	L 198.1 5.33
	L 198.1 6.33
	M 198.1 5.33
	L 198.6 6.221
	L 199.4 6.809
	L 200.4 6.965
	M 199.4 6.809
	L 200.2 7.397
	M 198.6 6.221
	L 199 7.112
	L 199 8.112
	M 199 7.112
	L 199.5 8.003
	M 196.8 2.657
	L 197.6 3.245
	L 198 4.136
	M 197.6 3.245
	L 198.4 3.833
	L 199.4 3.989
	L 200.3 3.68
	M 199.4 3.989
	L 200.3 4.146
	M 198.4 3.833
	L 199.2 4.42
	L 199.6 5.311
	M 199.2 4.42
	L 200 5.008
	L 201 5.165
	L 201.8 5.752
	M 201 5.165
	L 202 5.321
	L 202.9 5.012
	M 202 5.321
	L 203 5.478
	L 203.9 5.169
	L 204.9 5.325
	M 203.9 5.169
	L 204.9 4.86
	M 203 5.478
	L 203.9 5.634
	L 204.9 5.325
	M 203.9 5.634
	L 204.9 5.79
	M 200 5.008
	L 200.8 5.596
	L 201.3 6.487
	M 200.8 5.596
	L 201.6 6.184
	L 202.6 6.34
	M 201.6 6.184
	L 202.4 6.772
	L 203.4 6.928
	L 204.2 7.516
	M 203.4 6.928
	L 204.4 7.084
	M 202.4 6.772
	L 203.2 7.359
	L 203.7 8.25
	M 203.2 7.359
	L 204 7.947
	L 204.5 8.838
	L 205.3 9.426
	M 204.5 8.838
	L 204.9 9.729
	L 205.8 10.32
	L 206.7 10.47
	M 205.8 10.32
	L 206.6 10.9
	M 204.9 9.729
	L 205.4 10.62
	L 205.4 11.62
	M 205.4 10.62
	L 205.9 11.51
	L 206.7 12.1
	M 205.9 11.51
	L 206.3 12.4
	L 206.3 13.4
	L 205.9 14.29
	M 206.3 13.4
	L 206.3 14.4
	L 206.8 15.29
	M 206.3 14.4
	L 206.3 15.4
	L 205.9 16.29
	L 205 16.88
	M 205.9 16.29
	L 205.4 17.18
	M 206.3 15.4
	L 206.3 16.4
	L 205.9 17.29
	M 206.3 16.4
	L 206.3 17.4
	L 206.8 18.29
	M 206.3 17.4
	L 206.3 18.4
	M 206.3 12.4
	L 206.8 13.29
	L 206.8 14.29
	M 206.8 13.29
	L 207.2 14.18
	L 207.2 15.18
	L 206.8 16.08
	M 207.2 15.18
	L 207.2 16.18
	L 207.7 17.08
	M 207.2 16.18
	L 207.2 17.18
	M 207.2 14.18
	L 207.7 15.08
	L 207.7 16.08
	M 207.7 15.08
	L 208.1 15.97
	M 204 7.947
	L 204.8 8.535
	L 205.3 9.426
	M 204.8 8.535
	L 205.7 9.123
	L 206.1 10.01
	L 206.9 10.6
	M 206.1 10.01
	L 206.6 10.9
	M 205.7 9.123
	L 206.5 9.711
	L 206.9 10.6
	M 206.5 9.711
	L 207.3 10.3
	L 208.3 10.45
	M 207.3 10.3
	L 208.1 10.89
	L 209.1 11.04
	L 209.9 11.63
	M 209.1 11.04
	L 210.1 11.2
	M 208.1 10.89
	L 208.9 11.47
	L 209.3 12.36
	M 208.9 11.47
	L 209.7 12.06
	L 210.7 12.22
	M 209.7 12.06
	L 210.5 12.65
	L 211.5 12.81
	L 212.3 13.39
	M 211.5 12.81
	L 212.5 12.96
	L 213.3 13.55
	L 214.3 13.71
	M 213.3 13.55
	L 214.1 14.14
	M 212.5 12.96
	L 213.5 13.12
	L 214.3 13.71
	M 213.5 13.12
	L 214.5 13.28
	L 215.4 12.97
	M 214.5 13.28
	L 215.4 13.43
	L 216.4 13.12
	L 217.4 13.28
	M 216.4 13.12
	L 217.3 12.81
	L 218.1 12.11
	M 217.3 12.81
	L 218.3 12.5
	M 215.4 13.43
	L 216.4 13.59
	L 217.4 13.28
	M 216.4 13.59
	L 217.4 13.74
	M 210.5 12.65
	L 211.3 13.24
	L 211.8 14.13
	M 211.3 13.24
	L 212.1 13.83
	L 212.6 14.72
	L 212.6 15.72
	M 212.6 14.72
	L 213 15.61
	L 213.8 16.19
	M 213 15.61
	L 213.5 16.5
	M 212.1 13.83
	L 212.9 14.41
	L 213.9 14.57
	M 212.9 14.41
	L 213.7 15
	L 214.7 15.16
	L 215.5 15.74
	M 214.7 15.16
	L 215.7 15.31
	L 216.7 15
	L 217.4 14.3
	M 216.7 15
	L 217.6 14.7
	M 215.7 15.31
	L 216.7 15.47
	L 217.7 15.16
	M 216.7 15.47
	L 217.7 15.63
	L 218.6 15.32
	L 219.6 15.47
	M 218.6 15.32
	L 219.6 15.01
	L 220.3 14.3
	M 219.6 15.01
	L 220.5 14.7
	L 221.5 14.86
	L 222.5 14.55
	M 221.5 14.86
	L 222.5 15.01
	M 220.5 14.7
	L 221.5 14.39
	L 222.2 13.68
	M 221.5 14.39
	L 222.4 14.08
	M 217.7 15.63
	L 218.7 15.78
	L 219.5 16.37
	M 218.7 15.78
	L 219.7 15.94
	L 220.6 15.63
	M 219.7 15.94
	L 220.7 16.1
	L 221.5 16.68
	L 221.9 17.57
	M 221.5 16.68
	L 222.3 17.27
	L 223.3 17.43
	M 222.3 17.27
	L 223.1 17.86
	M 220.7 16.1
	L 221.6 16.25
	L 222.5 16.84
	M 221.6 16.25
	L 222.6 16.41
	M 213.7 15
	L 214.6 15.59
	L 215 16.48
	M 214.6 15.59
	L 215.4 16.18
	L 216.3 16.33
	M 215.4 16.18
	L 216.2 16.76
	L 217.2 16.92
	L 218 17.51
	M 217.2 16.92
	L 218.1 17.08
	L 219.1 16.77
	M 218.1 17.08
	L 219.1 17.23
	M 216.2 16.76
	L 217 17.35
	L 217.4 18.24
	M 217 17.35
	L 217.8 17.94
	L 218.8 18.1
	L 219.6 18.68
	M 218.8 18.1
	L 219.8 18.25
	L 220.7 17.94
	M 219.8 18.25
	L 220.8 18.41
	L 221.7 18.1
	L 222.7 18.26
	M 221.7 18.1
	L 222.7 17.79
	M 220.8 18.41
	L 221.7 18.57
	L 222.7 18.26
	M 221.7 18.57
	L 222.7 18.72
	M 217.8 17.94
	L 218.6 18.53
	L 219.1 19.42
	M 218.6 18.53
	L 219.4 19.12
	L 220.4 19.27
	M 219.4 19.12
	L 220.2 19.7
	L 220.7 20.59
	L 220.7 21.59
	M 220.7 20.59
	L 221.1 21.48
	L 221.9 22.07
	M 221.1 21.48
	L 221.6 22.38
	M 220.2 19.7
	L 221 20.29
	L 221.5 21.18
	M 221 20.29
	L 221.8 20.88
	M 134.5 -42.6
	L 135 -43.41
	L 135.6 -44.22
	L 136.2 -45.03
	L 136.8 -45.84
	L 137.5 -46.55
	L 138.2 -47.25
	L 138.9 -47.96
	L 139.6 -48.67
	L 140.2 -49.48
	L 140.8 -50.28
	L 141.4 -51.09
	L 142 -51.9
	L 142.4 -52.79
	L 142.9 -53.68
	L 143.4 -54.58
	L 143.8 -55.47
	L 144.1 -56.42
	L 144.4 -57.37
	L 144.7 -58.32
	L 145 -59.27
	L 145.5 -60.16
	L 145.9 -61.05
	L 146.4 -61.94
	L 146.9 -62.84
	L 147.4 -63.64
	L 148 -64.45
	L 148.6 -65.26
	L 149.2 -66.07
	L 149.7 -66.96
	L 150.1 -67.85
	L 150.6 -68.74
	L 151 -69.64
	L 151.6 -70.44
	L 152.2 -71.25
	L 152.8 -72.06
	L 153.4 -72.87
	L 153.8 -73.76
	L 154.3 -74.65
	L 154.7 -75.54
	L 155.2 -76.44
	L 155.8 -77.24
	L 156.4 -78.05
	L 157 -78.86
	L 157.5 -79.67
	L 158 -80.56
	L 158.5 -81.45
	L 158.9 -82.34
	L 159.4 -83.24
	L 159.7 -84.19
	L 160 -85.14
	L 160.3 -86.09
	L 160.6 -87.04
	L 161 -87.93
	L 161.5 -88.82
	L 162 -89.71
	L 162.4 -90.6
	L 162.7 -91.55
	L 163 -92.51
	L 163.3 -93.46
	L 163.6 -94.41
	L 164.6 -94.1
	L 165.3 -93.39
	M 164.6 -94.1
	L 165.5 -93.79
	L 166.5 -93.95
	M 165.5 -93.79
	L 166.5 -93.48
	L 167.5 -93.64
	L 168.3 -94.23
	M 167.5 -93.64
	L 168.5 -93.79
	M 166.5 -93.48
	L 167.5 -93.17
	L 168.2 -92.46
	M 167.5 -93.17
	L 168.4 -92.86
	L 169.4 -93.02
	L 170.2 -93.61
	M 169.4 -93.02
	L 170.4 -93.18
	L 171.3 -92.87
	L 172 -92.16
	M 171.3 -92.87
	L 172.3 -92.56
	L 173.3 -92.71
	M 172.3 -92.56
	L 173.2 -92.25
	M 170.4 -93.18
	L 171.4 -93.33
	L 172.3 -93.02
	M 171.4 -93.33
	L 172.4 -93.49
	L 173.2 -94.08
	M 172.4 -93.49
	L 173.3 -93.65
	M 168.4 -92.86
	L 169.4 -92.55
	L 170.1 -91.85
	M 169.4 -92.55
	L 170.3 -92.24
	L 171.3 -92.4
	M 170.3 -92.24
	L 171.3 -91.94
	L 172 -91.23
	L 172.3 -90.28
	M 172 -91.23
	L 172.7 -90.52
	M 171.3 -91.94
	L 172.2 -91.63
	L 172.9 -90.92
	M 172.2 -91.63
	L 173.2 -91.32
	L 174.1 -91.47
	M 173.2 -91.32
	L 174.1 -91.01
	L 175.1 -91.17
	L 176 -90.86
	M 175.1 -91.17
	L 176.1 -91.32
	M 174.1 -91.01
	L 175.1 -90.7
	L 176 -90.86
	M 175.1 -90.7
	L 176 -90.39
	L 176.7 -89.68
	L 177 -88.73
	M 176.7 -89.68
	L 177.4 -88.98
	L 178.4 -88.67
	L 179.1 -87.96
	M 178.4 -88.67
	L 179.3 -88.36
	L 180.3 -88.52
	M 179.3 -88.36
	L 180.3 -88.05
	M 177.4 -88.98
	L 178.1 -88.27
	L 178.4 -87.32
	M 178.1 -88.27
	L 178.8 -87.56
	L 179.8 -87.25
	M 178.8 -87.56
	L 179.5 -86.86
	L 179.9 -85.9
	L 179.7 -84.92
	M 179.9 -85.9
	L 180.2 -84.95
	L 180.9 -84.25
	M 180.2 -84.95
	L 180.5 -84
	L 181.2 -83.3
	L 182.1 -82.99
	M 181.2 -83.3
	L 181.9 -82.59
	M 180.5 -84
	L 180.8 -83.05
	L 180.6 -82.06
	M 180.8 -83.05
	L 181.1 -82.1
	L 181.8 -81.39
	M 181.1 -82.1
	L 181.4 -81.15
	M 179.5 -86.86
	L 180.3 -86.15
	L 180.6 -85.2
	M 180.3 -86.15
	L 181 -85.44
	L 181.9 -85.13
	M 181 -85.44
	L 181.7 -84.73
	L 182 -83.78
	L 181.8 -82.8
	M 182 -83.78
	L 182.3 -82.83
	L 183 -82.12
	M 182.3 -82.83
	L 182.6 -81.88
	M 181.7 -84.73
	L 182.4 -84.03
	L 182.7 -83.08
	M 182.4 -84.03
	L 183.1 -83.32
	L 184 -83.01
	M 183.1 -83.32
	L 183.8 -82.61
	L 184.7 -82.3
	L 185.7 -82.46
	M 184.7 -82.3
	L 185.7 -81.99
	M 183.8 -82.61
	L 184.5 -81.91
	L 184.8 -80.95
	M 184.5 -81.91
	L 185.2 -81.2
	M 176 -90.39
	L 177 -90.08
	L 177.7 -89.37
	M 177 -90.08
	L 177.9 -89.77
	L 178.6 -89.07
	L 178.9 -88.11
	M 178.6 -89.07
	L 179.3 -88.36
	L 180.3 -88.05
	M 179.3 -88.36
	L 180 -87.65
	M 177.9 -89.77
	L 178.9 -89.46
	L 179.6 -88.76
	M 178.9 -89.46
	L 179.8 -89.15
	L 180.8 -89.31
	L 181.8 -89
	M 180.8 -89.31
	L 181.8 -89.47
	M 179.8 -89.15
	L 180.8 -88.85
	L 181.5 -88.14
	M 180.8 -88.85
	L 181.7 -88.54
	L 182.4 -87.83
	L 182.7 -86.88
	M 182.4 -87.83
	L 183.1 -87.12
	L 184.1 -86.81
	M 183.1 -87.12
	L 183.8 -86.42
	L 184.1 -85.46
	L 184.9 -84.76
	M 184.1 -85.46
	L 184.5 -84.51
	M 183.8 -86.42
	L 184.5 -85.71
	L 184.9 -84.76
	M 184.5 -85.71
	L 185.3 -85
	M 181.7 -88.54
	L 182.7 -88.23
	L 183.7 -88.38
	M 182.7 -88.23
	L 183.6 -87.92
	L 184.3 -87.21
	L 184.6 -86.26
	M 184.3 -87.21
	L 185 -86.5
	L 186 -86.2
	M 185 -86.5
	L 185.7 -85.8
	M 183.6 -87.92
	L 184.6 -87.61
	L 185.3 -86.9
	M 184.6 -87.61
	L 185.5 -87.3
	L 186.5 -87.46
	M 185.5 -87.3
	L 186.5 -86.99
	L 187.5 -87.15
	L 188.4 -86.84
	M 187.5 -87.15
	L 188.4 -87.3
	L 189.3 -87.89
	M 188.4 -87.3
	L 189.4 -87.46
	M 186.5 -86.99
	L 187.4 -86.68
	L 188.1 -85.98
	M 187.4 -86.68
	L 188.4 -86.37
	L 189.4 -86.53
	L 190.3 -86.22
	M 189.4 -86.53
	L 190.3 -86.69
	L 191.2 -87.27
	L 192.1 -87.43
	M 191.2 -87.27
	L 192 -87.86
	M 190.3 -86.69
	L 191.3 -86.84
	L 192.3 -86.53
	M 191.3 -86.84
	L 192.3 -87
	L 193.1 -87.59
	M 192.3 -87
	L 193.3 -87.16
	M 188.4 -86.37
	L 189.3 -86.06
	L 190 -85.36
	M 189.3 -86.06
	L 190.3 -85.76
	L 191.3 -85.91
	M 190.3 -85.76
	L 191.2 -85.45
	L 191.9 -84.74
	L 192.2 -83.79
	M 191.9 -84.74
	L 192.6 -84.03
	L 193.6 -83.72
	M 192.6 -84.03
	L 193.3 -83.33
	M 191.2 -85.45
	L 192.2 -85.14
	L 192.9 -84.43
	M 192.2 -85.14
	L 193.1 -84.83
	L 193.8 -84.12
	L 194.8 -83.81
	M 193.8 -84.12
	L 194.5 -83.41
	L 194.9 -82.46
	L 194.7 -81.48
	M 194.9 -82.46
	L 195.2 -81.51
	L 195.9 -80.81
	M 195.2 -81.51
	L 195.5 -80.56
	M 194.5 -83.41
	L 195.3 -82.71
	L 196.2 -82.4
	M 195.3 -82.71
	L 196 -82
	L 196.9 -81.69
	L 197.6 -80.98
	M 196.9 -81.69
	L 197.9 -81.38
	L 198.8 -81.54
	M 197.9 -81.38
	L 198.8 -81.07
	M 196 -82
	L 196.7 -81.29
	L 197 -80.34
	M 196.7 -81.29
	L 197.4 -80.59
	L 197.7 -79.63
	L 197.5 -78.65
	M 197.7 -79.63
	L 198 -78.68
	L 197.8 -77.7
	L 197.2 -76.89
	M 197.8 -77.7
	L 197.7 -76.71
	L 198 -75.76
	M 197.7 -76.71
	L 197.5 -75.72
	M 198 -78.68
	L 198.3 -77.73
	L 199 -77.03
	M 198.3 -77.73
	L 198.6 -76.78
	M 197.4 -80.59
	L 198.1 -79.88
	L 199 -79.57
	M 198.1 -79.88
	L 198.8 -79.17
	L 199.1 -78.22
	L 198.9 -77.23
	M 199.1 -78.22
	L 199.4 -77.27
	L 200.1 -76.56
	M 199.4 -77.27
	L 199.7 -76.32
	M 198.8 -79.17
	L 199.5 -78.46
	L 199.8 -77.51
	M 199.5 -78.46
	L 200.2 -77.76
	L 201.2 -77.45
	M 200.2 -77.76
	L 200.9 -77.05
	L 201.9 -76.74
	L 202.8 -76.9
	M 201.9 -76.74
	L 202.8 -76.43
	M 200.9 -77.05
	L 201.6 -76.34
	L 201.9 -75.39
	M 201.6 -76.34
	L 202.3 -75.64
	L 203.3 -75.33
	M 202.3 -75.64
	L 203 -74.93
	L 204 -74.62
	L 204.7 -73.91
	M 204 -74.62
	L 204.9 -74.31
	L 205.9 -74.47
	M 204.9 -74.31
	L 205.9 -74
	L 206.6 -73.29
	L 206.9 -72.34
	M 206.6 -73.29
	L 207.3 -72.59
	L 208.2 -72.28
	M 207.3 -72.59
	L 208 -71.88
	M 205.9 -74
	L 206.8 -73.69
	L 207.8 -73.85
	M 206.8 -73.69
	L 207.8 -73.38
	L 208.8 -73.54
	L 209.7 -73.23
	M 208.8 -73.54
	L 209.8 -73.7
	L 210.6 -74.28
	M 209.8 -73.7
	L 210.7 -73.85
	M 207.8 -73.38
	L 208.7 -73.07
	L 209.4 -72.37
	M 208.7 -73.07
	L 209.7 -72.77
	M 203 -74.93
	L 203.7 -74.22
	L 204 -73.27
	M 203.7 -74.22
	L 204.4 -73.51
	L 205.4 -73.21
	M 204.4 -73.51
	L 205.2 -72.81
	L 206.1 -72.5
	L 206.8 -71.79
	M 206.1 -72.5
	L 207.1 -72.19
	L 208 -72.35
	M 207.1 -72.19
	L 208 -71.88
	M 205.2 -72.81
	L 205.9 -72.1
	L 206.2 -71.15
	M 205.9 -72.1
	L 206.6 -71.39
	L 207.5 -71.08
	M 206.6 -71.39
	L 207.3 -70.69
	L 207.6 -69.74
	L 208.3 -69.03
	M 207.6 -69.74
	L 207.9 -68.78
	L 207.7 -67.8
	L 208 -66.85
	M 207.7 -67.8
	L 207.6 -66.81
	M 207.9 -68.78
	L 208.2 -67.83
	L 208.9 -67.13
	M 208.2 -67.83
	L 208.5 -66.88
	L 209.2 -66.18
	L 210.2 -65.87
	M 209.2 -66.18
	L 209.9 -65.47
	M 208.5 -66.88
	L 208.8 -65.93
	L 209.5 -65.22
	M 208.8 -65.93
	L 209.1 -64.98
	L 209 -63.99
	L 208.4 -63.18
	M 209 -63.99
	L 208.8 -63
	L 209.1 -62.05
	M 208.8 -63
	L 208.7 -62.02
	L 208.1 -61.21
	L 207.2 -60.75
	M 208.1 -61.21
	L 207.5 -60.4
	M 208.7 -62.02
	L 208.5 -61.03
	L 207.9 -60.22
	M 208.5 -61.03
	L 208.3 -60.04
	L 208.7 -59.09
	L 208.5 -58.1
	M 208.7 -59.09
	L 209 -58.14
	M 208.3 -60.04
	L 208.2 -59.05
	L 207.6 -58.24
	M 208.2 -59.05
	L 208 -58.07
	L 208.3 -57.12
	M 208 -58.07
	L 207.9 -57.08
	M 209.1 -64.98
	L 209.4 -64.03
	L 209.3 -63.04
	M 209.4 -64.03
	L 209.7 -63.08
	L 210.5 -62.37
	M 209.7 -63.08
	L 210.1 -62.13
	L 210.8 -61.42
	L 211.1 -60.47
	M 210.8 -61.42
	L 211.5 -60.71
	M 210.1 -62.13
	L 210.4 -61.18
	L 210.2 -60.19
	M 210.4 -61.18
	L 210.7 -60.22
	L 211.4 -59.52
	M 210.7 -60.22
	L 211 -59.27
	M 207.3 -70.69
	L 208 -69.98
	L 208.9 -69.67
	M 208 -69.98
	L 208.7 -69.27
	L 209 -68.32
	L 209.7 -67.61
	M 209 -68.32
	L 209.3 -67.37
	M 208.7 -69.27
	L 209.4 -68.57
	L 210.3 -68.26
	M 209.4 -68.57
	L 210.1 -67.86
	L 210.4 -66.91
	L 210.3 -65.92
	M 210.4 -66.91
	L 210.7 -65.96
	L 210.6 -64.97
	L 210 -64.16
	M 210.6 -64.97
	L 210.4 -63.98
	L 210.7 -63.03
	M 210.4 -63.98
	L 210.2 -62.99
	M 210.7 -65.96
	L 211 -65
	L 210.9 -64.02
	M 211 -65
	L 211.3 -64.05
	L 212 -63.35
	L 213 -63.04
	M 212 -63.35
	L 212.8 -62.64
	M 211.3 -64.05
	L 211.6 -63.1
	L 212.4 -62.4
	M 211.6 -63.1
	L 212 -62.15
	M 210.1 -67.86
	L 210.8 -67.15
	L 211.1 -66.2
	M 210.8 -67.15
	L 211.5 -66.44
	L 211.8 -65.49
	L 212.5 -64.79
	M 211.8 -65.49
	L 212.1 -64.54
	M 211.5 -66.44
	L 212.2 -65.74
	L 213.2 -65.43
	M 212.2 -65.74
	L 212.9 -65.03
	M 193.1 -84.83
	L 194.1 -84.52
	L 195.1 -84.68
	M 194.1 -84.52
	L 195 -84.21
	L 195.7 -83.5
	L 196 -82.55
	M 195.7 -83.5
	L 196.4 -82.8
	L 197.4 -82.49
	M 196.4 -82.8
	L 197.2 -82.09
	M 195 -84.21
	L 196 -83.9
	L 197 -84.06
	M 196 -83.9
	L 196.9 -83.59
	L 197.9 -83.75
	L 198.9 -83.44
	M 197.9 -83.75
	L 198.9 -83.91
	L 199.7 -84.49
	M 198.9 -83.91
	L 199.9 -84.06
	M 196.9 -83.59
	L 197.9 -83.28
	L 198.9 -83.44
	M 197.9 -83.28
	L 198.8 -82.97
	L 199.5 -82.27
	L 199.9 -81.32
	M 199.5 -82.27
	L 200.3 -81.56
	L 201.2 -81.25
	L 201.9 -80.54
	M 201.2 -81.25
	L 202.2 -80.94
	M 200.3 -81.56
	L 201 -80.85
	L 201.9 -80.54
	M 201 -80.85
	L 201.7 -80.15
	M 198.8 -82.97
	L 199.8 -82.67
	L 200.8 -82.82
	M 199.8 -82.67
	L 200.7 -82.36
	L 201.4 -81.65
	L 201.8 -80.7
	M 201.4 -81.65
	L 202.2 -80.94
	M 200.7 -82.36
	L 201.7 -82.05
	L 202.4 -81.34
	M 201.7 -82.05
	L 202.6 -81.74
	L 203.6 -81.89
	M 202.6 -81.74
	L 203.6 -81.43
	L 204.6 -81.59
	L 205.5 -81.28
	M 204.6 -81.59
	L 205.6 -81.74
	L 206.4 -82.33
	M 205.6 -81.74
	L 206.6 -81.9
	M 203.6 -81.43
	L 204.5 -81.12
	L 205.2 -80.41
	M 204.5 -81.12
	L 205.5 -80.81
	L 206.5 -80.97
	M 205.5 -80.81
	L 206.4 -80.5
	L 207.2 -79.8
	L 208.1 -79.49
	M 207.2 -79.8
	L 207.9 -79.09
	L 208.2 -78.14
	L 208.9 -77.43
	M 208.2 -78.14
	L 208.5 -77.19
	M 207.9 -79.09
	L 208.6 -78.38
	L 208.9 -77.43
	M 208.6 -78.38
	L 209.3 -77.67
	L 209.6 -76.72
	L 209.4 -75.74
	M 209.6 -76.72
	L 209.9 -75.77
	L 210.6 -75.06
	M 209.9 -75.77
	L 210.2 -74.82
	L 210 -73.83
	L 210.4 -72.88
	M 210 -73.83
	L 209.9 -72.85
	M 210.2 -74.82
	L 210.5 -73.87
	L 210.4 -72.88
	M 210.5 -73.87
	L 210.8 -72.92
	L 211.5 -72.21
	M 210.8 -72.92
	L 211.1 -71.97
	L 211.8 -71.26
	L 212.8 -70.95
	M 211.8 -71.26
	L 212.5 -70.55
	M 211.1 -71.97
	L 211.4 -71.02
	L 212.1 -70.31
	M 211.4 -71.02
	L 211.7 -70.07
	M 209.3 -77.67
	L 210 -76.97
	L 210.3 -76.02
	M 210 -76.97
	L 210.7 -76.26
	L 211.6 -75.95
	L 212.3 -75.24
	M 211.6 -75.95
	L 212.6 -75.64
	M 210.7 -76.26
	L 211.4 -75.55
	L 212.3 -75.24
	M 211.4 -75.55
	L 212.1 -74.85
	L 213.1 -74.54
	L 214 -74.69
	M 213.1 -74.54
	L 214 -74.23
	L 214.7 -73.52
	L 215 -72.57
	M 214.7 -73.52
	L 215.4 -72.81
	L 216.4 -72.5
	M 215.4 -72.81
	L 216.1 -72.11
	M 214 -74.23
	L 215 -73.92
	L 215.7 -73.21
	M 215 -73.92
	L 215.9 -73.61
	L 216.9 -73.77
	M 215.9 -73.61
	L 216.9 -73.3
	L 217.8 -73.46
	L 218.7 -74.04
	M 217.8 -73.46
	L 218.8 -73.61
	M 216.9 -73.3
	L 217.8 -72.99
	L 218.8 -73.15
	M 217.8 -72.99
	L 218.8 -72.68
	M 212.1 -74.85
	L 212.8 -74.14
	L 213.1 -73.19
	M 212.8 -74.14
	L 213.5 -73.43
	L 214.5 -73.12
	L 215.5 -73.28
	M 214.5 -73.12
	L 215.4 -72.81
	M 213.5 -73.43
	L 214.2 -72.72
	L 215.2 -72.42
	M 214.2 -72.72
	L 214.9 -72.02
	M 206.4 -80.5
	L 207.4 -80.19
	L 208.1 -79.49
	M 207.4 -80.19
	L 208.3 -79.88
	L 209.3 -80.04
	L 210.3 -79.73
	M 209.3 -80.04
	L 210.3 -80.2
	L 211.1 -80.78
	M 210.3 -80.2
	L 211.3 -80.35
	M 208.3 -79.88
	L 209.3 -79.58
	L 210 -78.87
	M 209.3 -79.58
	L 210.2 -79.27
	L 211 -78.56
	L 211.3 -77.61
	M 211 -78.56
	L 211.7 -77.85
	L 212 -76.9
	L 212.7 -76.19
	M 212 -76.9
	L 212.3 -75.95
	M 211.7 -77.85
	L 212.4 -77.14
	L 213.3 -76.84
	M 212.4 -77.14
	L 213.1 -76.44
	M 210.2 -79.27
	L 211.2 -78.96
	L 211.9 -78.25
	M 211.2 -78.96
	L 212.2 -78.65
	L 213.1 -78.8
	M 212.2 -78.65
	L 213.1 -78.34
	L 213.8 -77.63
	L 214.1 -76.68
	M 213.8 -77.63
	L 214.5 -76.92
	M 213.1 -78.34
	L 214.1 -78.03
	L 214.8 -77.32
	M 214.1 -78.03
	L 215 -77.72
	L 216 -77.88
	M 215 -77.72
	L 216 -77.41
	L 216.9 -77.57
	L 217.9 -77.26
	M 216.9 -77.57
	L 217.9 -77.72
	M 216 -77.41
	L 216.9 -77.1
	L 217.6 -76.4
	M 216.9 -77.1
	L 217.9 -76.79
	L 218.8 -76.95
	M 217.9 -76.79
	L 218.8 -76.49
	L 219.8 -76.64
	L 220.7 -76.33
	M 219.8 -76.64
	L 220.8 -76.8
	L 221.6 -77.39
	M 220.8 -76.8
	L 221.8 -76.95
	L 222.7 -76.65
	L 223.4 -75.94
	M 222.7 -76.65
	L 223.7 -76.34
	M 221.8 -76.95
	L 222.8 -77.11
	L 223.6 -77.7
	M 222.8 -77.11
	L 223.7 -77.27
	L 224.6 -77.86
	L 225.5 -78.01
	M 224.6 -77.86
	L 225.4 -78.44
	M 223.7 -77.27
	L 224.7 -77.42
	L 225.5 -78.01
	M 224.7 -77.42
	L 225.7 -77.58
	M 218.8 -76.49
	L 219.8 -76.18
	L 220.5 -75.47
	M 219.8 -76.18
	L 220.7 -75.87
	L 221.4 -75.16
	L 222.4 -74.85
	M 221.4 -75.16
	L 222.1 -74.45
	M 220.7 -75.87
	L 221.7 -75.56
	L 222.4 -74.85
	M 221.7 -75.56
	L 222.6 -75.25
	L 223.6 -75.41
	M 222.6 -75.25
	L 223.6 -74.94
	L 224.6 -75.1
	L 225.5 -74.79
	M 224.6 -75.1
	L 225.5 -75.25
	L 226.3 -75.84
	M 225.5 -75.25
	L 226.5 -75.41
	M 223.6 -74.94
	L 224.5 -74.63
	L 225.2 -73.92
	M 224.5 -74.63
	L 225.5 -74.32
	L 226.5 -74.48
	L 227.3 -75.07
	M 226.5 -74.48
	L 227.4 -74.63
	L 228.4 -74.33
	L 229.1 -73.62
	M 228.4 -74.33
	L 229.3 -74.02
	M 227.4 -74.63
	L 228.4 -74.79
	L 229.4 -74.48
	M 228.4 -74.79
	L 229.4 -74.95
	L 230.2 -75.54
	M 229.4 -74.95
	L 230.4 -75.1
	L 231.2 -75.69
	L 231.7 -76.58
	M 231.2 -75.69
	L 232 -76.28
	M 230.4 -75.1
	L 231.4 -75.26
	L 232.2 -75.85
	M 231.4 -75.26
	L 232.4 -75.42
	L 233.2 -76
	L 234.2 -76.16
	M 233.2 -76
	L 234 -76.59
	L 234.5 -77.48
	M 234 -76.59
	L 234.8 -77.18
	L 235.3 -78.07
	L 235.3 -79.07
	M 235.3 -78.07
	L 235.7 -78.96
	M 234.8 -77.18
	L 235.6 -77.77
	L 236.6 -77.92
	M 235.6 -77.77
	L 236.4 -78.36
	L 236.9 -79.25
	M 236.4 -78.36
	L 237.2 -78.94
	M 232.4 -75.42
	L 233.4 -75.57
	L 234.3 -75.26
	M 233.4 -75.57
	L 234.4 -75.73
	L 235.2 -76.32
	M 234.4 -75.73
	L 235.3 -75.89
	L 236.3 -75.58
	L 237.3 -75.73
	M 236.3 -75.58
	L 237.2 -75.27
	M 235.3 -75.89
	L 236.3 -76.04
	L 237.3 -75.73
	M 236.3 -76.04
	L 237.3 -76.2
	M 225.5 -74.32
	L 226.4 -74.01
	L 227.1 -73.31
	M 226.4 -74.01
	L 227.4 -73.7
	L 228.4 -73.86
	M 227.4 -73.7
	L 228.3 -73.39
	L 229 -72.69
	L 230 -72.38
	M 229 -72.69
	L 229.7 -71.98
	M 228.3 -73.39
	L 229.3 -73.09
	L 230.3 -73.24
	M 229.3 -73.09
	L 230.2 -72.78
	L 231.2 -72.93
	L 232 -73.52
	M 231.2 -72.93
	L 232.2 -73.09
	M 230.2 -72.78
	L 231.2 -72.47
	L 232.2 -72.62
	M 231.2 -72.47
	L 232.1 -72.16
	L 232.8 -71.45
	L 233.8 -71.14
	M 232.8 -71.45
	L 233.5 -70.74
	L 233.8 -69.79
	L 233.7 -68.81
	M 233.8 -69.79
	L 234.2 -68.84
	M 233.5 -70.74
	L 234.2 -70.04
	L 235.2 -69.73
	M 234.2 -70.04
	L 235 -69.33
	M 232.1 -72.16
	L 233.1 -71.85
	L 233.8 -71.14
	M 233.1 -71.85
	L 234 -71.54
	L 235 -71.7
	M 234 -71.54
	L 235 -71.23
	L 236 -71.39
	L 236.9 -71.08
	M 236 -71.39
	L 237 -71.54
	L 237.8 -72.13
	M 237 -71.54
	L 237.9 -71.7
	M 235 -71.23
	L 235.9 -70.92
	L 236.9 -71.08
	M 235.9 -70.92
	L 236.9 -70.61
	M 163.6 -94.41
	L 164 -95.36
	L 164.3 -96.31
	L 164.6 -97.26
	L 164.9 -98.21
	L 165.8 -97.9
	L 166.8 -98.06
	M 165.8 -97.9
	L 166.8 -97.59
	L 167.5 -96.89
	L 168.4 -96.58
	M 167.5 -96.89
	L 168.2 -96.18
	M 166.8 -97.59
	L 167.7 -97.29
	L 168.4 -96.58
	M 167.7 -97.29
	L 168.7 -96.98
	L 169.4 -96.27
	L 170.3 -95.96
	M 169.4 -96.27
	L 170.1 -95.56
	L 171.1 -95.25
	L 171.8 -94.55
	M 171.1 -95.25
	L 172 -94.94
	L 173 -95.1
	M 172 -94.94
	L 173 -94.63
	M 170.1 -95.56
	L 170.8 -94.85
	L 171.8 -94.55
	M 170.8 -94.85
	L 171.5 -94.15
	M 168.7 -96.98
	L 169.6 -96.67
	L 170.3 -95.96
	M 169.6 -96.67
	L 170.6 -96.36
	L 171.6 -96.51
	M 170.6 -96.36
	L 171.5 -96.05
	L 172.2 -95.34
	L 173.2 -95.03
	M 172.2 -95.34
	L 173 -94.63
	M 171.5 -96.05
	L 172.5 -95.74
	L 173.5 -95.9
	M 172.5 -95.74
	L 173.4 -95.43
	L 174.4 -95.59
	L 175.2 -96.18
	M 174.4 -95.59
	L 175.4 -95.74
	L 176.4 -95.44
	L 177.1 -94.73
	M 176.4 -95.44
	L 177.3 -95.13
	M 175.4 -95.74
	L 176.4 -95.9
	L 177.4 -95.59
	M 176.4 -95.9
	L 177.4 -96.06
	L 178.2 -96.64
	M 177.4 -96.06
	L 178.4 -96.21
	L 179.2 -96.8
	L 179.6 -97.69
	M 179.2 -96.8
	L 180 -97.39
	M 178.4 -96.21
	L 179.4 -96.37
	L 180.2 -96.96
	M 179.4 -96.37
	L 180.4 -96.53
	M 173.4 -95.43
	L 174.4 -95.12
	L 175.1 -94.42
	M 174.4 -95.12
	L 175.3 -94.81
	L 176.3 -94.97
	L 177.3 -94.66
	M 176.3 -94.97
	L 177.3 -95.13
	M 175.3 -94.81
	L 176.3 -94.5
	L 177.3 -94.66
	M 176.3 -94.5
	L 177.2 -94.2
	L 178 -93.49
	L 178.3 -92.54
	M 178 -93.49
	L 178.7 -92.78
	L 179 -91.83
	L 178.8 -90.84
	M 179 -91.83
	L 179.3 -90.88
	M 178.7 -92.78
	L 179.4 -92.07
	L 179.7 -91.12
	M 179.4 -92.07
	L 180.1 -91.37
	L 181 -91.06
	L 181.7 -90.35
	M 181 -91.06
	L 182 -90.75
	M 180.1 -91.37
	L 180.8 -90.66
	L 181.7 -90.35
	M 180.8 -90.66
	L 181.5 -89.95
	L 181.8 -89
	L 181.6 -88.01
	M 181.8 -89
	L 182.1 -88.05
	L 182 -87.06
	L 182.3 -86.11
	M 182 -87.06
	L 181.8 -86.07
	M 182.1 -88.05
	L 182.4 -87.1
	L 182.3 -86.11
	M 182.4 -87.1
	L 182.7 -86.15
	L 183.4 -85.44
	L 183.7 -84.49
	M 183.4 -85.44
	L 184.1 -84.73
	M 182.7 -86.15
	L 183 -85.2
	L 182.9 -84.21
	M 183 -85.2
	L 183.3 -84.25
	M 181.5 -89.95
	L 182.2 -89.25
	L 182.5 -88.29
	M 182.2 -89.25
	L 182.9 -88.54
	L 183.9 -88.23
	L 184.8 -88.39
	M 183.9 -88.23
	L 184.8 -87.92
	M 182.9 -88.54
	L 183.6 -87.83
	L 183.9 -86.88
	M 183.6 -87.83
	L 184.3 -87.12
	L 185.3 -86.81
	M 184.3 -87.12
	L 185 -86.42
	M 177.2 -94.2
	L 178.2 -93.89
	L 178.9 -93.18
	M 178.2 -93.89
	L 179.1 -93.58
	L 180.1 -93.73
	M 179.1 -93.58
	L 180.1 -93.27
	L 181.1 -93.42
	L 182 -93.12
	M 181.1 -93.42
	L 182.1 -93.58
	M 180.1 -93.27
	L 181.1 -92.96
	L 182 -93.12
	M 181.1 -92.96
	L 182 -92.65
	L 183 -92.81
	L 183.8 -93.39
	M 183 -92.81
	L 184 -92.96
	L 184.9 -92.65
	L 185.9 -92.81
	M 184.9 -92.65
	L 185.9 -92.34
	M 184 -92.96
	L 185 -93.12
	L 185.9 -92.81
	M 185 -93.12
	L 186 -93.28
	L 186.8 -93.86
	M 186 -93.28
	L 186.9 -93.43
	M 182 -92.65
	L 183 -92.34
	L 183.9 -92.5
	M 183 -92.34
	L 183.9 -92.03
	L 184.6 -91.32
	L 184.9 -90.37
	M 184.6 -91.32
	L 185.3 -90.62
	L 186.3 -90.31
	M 185.3 -90.62
	L 186 -89.91
	M 183.9 -92.03
	L 184.9 -91.72
	L 185.6 -91.02
	M 184.9 -91.72
	L 185.8 -91.41
	L 186.8 -91.57
	M 185.8 -91.41
	L 186.8 -91.1
	L 187.7 -91.26
	L 188.6 -91.85
	M 187.7 -91.26
	L 188.7 -91.42
	M 186.8 -91.1
	L 187.7 -90.8
	L 188.4 -90.09
	M 187.7 -90.8
	L 188.7 -90.49
	L 189.6 -90.64
	L 190.6 -90.33
	M 189.6 -90.64
	L 190.6 -90.8
	L 191.4 -91.39
	M 190.6 -90.8
	L 191.6 -90.96
	L 192.6 -90.65
	L 193.3 -89.94
	M 192.6 -90.65
	L 193.5 -90.34
	L 194.5 -90.49
	M 193.5 -90.34
	L 194.5 -90.03
	M 191.6 -90.96
	L 192.6 -91.11
	L 193.4 -91.7
	M 192.6 -91.11
	L 193.6 -91.27
	L 194.4 -91.86
	L 194.9 -92.75
	M 194.4 -91.86
	L 195.2 -92.44
	M 193.6 -91.27
	L 194.6 -91.43
	L 195.4 -92.01
	M 194.6 -91.43
	L 195.6 -91.58
	L 196.4 -92.17
	L 196.8 -93.06
	M 196.4 -92.17
	L 197.2 -92.76
	L 197.6 -93.65
	L 197.6 -94.65
	M 197.6 -93.65
	L 198.1 -94.54
	M 197.2 -92.76
	L 198 -93.35
	L 199 -93.5
	M 198 -93.35
	L 198.8 -93.93
	L 199.3 -94.82
	M 198.8 -93.93
	L 199.6 -94.52
	M 195.6 -91.58
	L 196.6 -91.74
	L 197.5 -91.43
	M 196.6 -91.74
	L 197.5 -91.89
	L 198.4 -92.48
	M 197.5 -91.89
	L 198.5 -92.05
	L 199.3 -92.64
	L 200.3 -92.8
	M 199.3 -92.64
	L 200.2 -93.23
	L 200.6 -94.12
	M 200.2 -93.23
	L 201 -93.81
	M 198.5 -92.05
	L 199.5 -92.21
	L 200.5 -91.9
	M 199.5 -92.21
	L 200.5 -92.36
	L 201.3 -92.95
	L 202.3 -93.11
	M 201.3 -92.95
	L 202.1 -93.54
	L 202.6 -94.43
	M 202.1 -93.54
	L 202.9 -94.13
	L 203.9 -94.28
	L 204.7 -94.87
	M 203.9 -94.28
	L 204.9 -94.44
	M 202.9 -94.13
	L 203.7 -94.72
	L 204.7 -94.87
	M 203.7 -94.72
	L 204.6 -95.3
	L 205.5 -95.46
	L 206.5 -95.15
	M 205.5 -95.46
	L 206.5 -95.62
	L 207.3 -96.2
	L 208.3 -96.36
	M 207.3 -96.2
	L 208.2 -96.79
	L 208.6 -97.68
	M 208.2 -96.79
	L 209 -97.38
	M 206.5 -95.62
	L 207.5 -95.77
	L 208.5 -95.46
	M 207.5 -95.77
	L 208.5 -95.93
	M 204.6 -95.3
	L 205.4 -95.89
	L 206.4 -96.05
	M 205.4 -95.89
	L 206.2 -96.48
	L 206.6 -97.37
	M 206.2 -96.48
	L 207 -97.07
	L 208 -97.22
	L 208.9 -96.91
	M 208 -97.22
	L 209 -97.38
	M 207 -97.07
	L 207.8 -97.65
	L 208.8 -97.81
	M 207.8 -97.65
	L 208.6 -98.24
	L 209.1 -99.13
	M 208.6 -98.24
	L 209.4 -98.83
	M 200.5 -92.36
	L 201.5 -92.52
	L 202.5 -92.21
	M 201.5 -92.52
	L 202.5 -92.68
	L 203.4 -92.37
	L 204.4 -92.52
	M 203.4 -92.37
	L 204.4 -92.06
	M 202.5 -92.68
	L 203.5 -92.83
	L 204.4 -92.52
	M 203.5 -92.83
	L 204.5 -92.99
	L 205.3 -93.58
	L 206.3 -93.73
	M 205.3 -93.58
	L 206.1 -94.17
	M 204.5 -92.99
	L 205.5 -93.15
	L 206.3 -93.73
	M 205.5 -93.15
	L 206.4 -93.3
	L 207.4 -92.99
	L 208.1 -92.29
	M 207.4 -92.99
	L 208.3 -92.68
	L 209.3 -92.84
	M 208.3 -92.68
	L 209.3 -92.38
	L 210 -91.67
	L 210.3 -90.72
	M 210 -91.67
	L 210.7 -90.96
	L 211.7 -90.65
	M 210.7 -90.96
	L 211.4 -90.25
	M 209.3 -92.38
	L 210.2 -92.07
	L 211.2 -92.22
	M 210.2 -92.07
	L 211.2 -91.76
	L 212.2 -91.91
	L 213.1 -91.61
	M 212.2 -91.91
	L 213.2 -92.07
	M 211.2 -91.76
	L 212.1 -91.45
	L 212.9 -90.74
	M 212.1 -91.45
	L 213.1 -91.14
	L 214.1 -91.3
	M 213.1 -91.14
	L 214 -90.83
	M 206.4 -93.3
	L 207.4 -93.46
	L 208.2 -94.05
	M 207.4 -93.46
	L 208.4 -93.62
	L 209.4 -93.31
	L 210.4 -93.46
	M 209.4 -93.31
	L 210.3 -93
	M 208.4 -93.62
	L 209.4 -93.77
	L 210.4 -93.46
	M 209.4 -93.77
	L 210.4 -93.93
	L 211.2 -94.52
	L 212.2 -94.67
	M 211.2 -94.52
	L 212 -95.1
	L 212.5 -96
	M 212 -95.1
	L 212.8 -95.69
	L 213.8 -95.85
	L 214.8 -95.54
	M 213.8 -95.85
	L 214.8 -96
	L 215.6 -96.59
	M 214.8 -96
	L 215.8 -96.16
	M 212.8 -95.69
	L 213.6 -96.28
	L 214.6 -96.44
	M 213.6 -96.28
	L 214.4 -96.87
	M 210.4 -93.93
	L 211.4 -94.08
	L 212.3 -93.78
	M 211.4 -94.08
	L 212.4 -94.24
	L 213.2 -94.83
	M 212.4 -94.24
	L 213.4 -94.4
	L 214.3 -94.09
	L 215 -93.38
	M 214.3 -94.09
	L 215.3 -93.78
	M 213.4 -94.4
	L 214.3 -94.55
	L 215.1 -95.14
	M 214.3 -94.55
	L 215.3 -94.71
	M 188.7 -90.49
	L 189.6 -90.18
	L 190.3 -89.47
	M 189.6 -90.18
	L 190.6 -89.87
	L 191.5 -90.03
	L 192.4 -90.61
	M 191.5 -90.03
	L 192.5 -90.18
	M 190.6 -89.87
	L 191.5 -89.56
	L 192.2 -88.85
	M 191.5 -89.56
	L 192.5 -89.25
	L 193.5 -89.41
	M 192.5 -89.25
	L 193.4 -88.94
	L 194.4 -89.1
	L 195.2 -89.69
	M 194.4 -89.1
	L 195.4 -89.25
	L 196.3 -88.95
	L 197 -88.24
	M 196.3 -88.95
	L 197.3 -88.64
	L 198.3 -88.79
	M 197.3 -88.64
	L 198.2 -88.33
	M 195.4 -89.25
	L 196.4 -89.41
	L 197.2 -90
	M 196.4 -89.41
	L 197.4 -89.57
	L 198.2 -90.16
	L 199.2 -90.31
	M 198.2 -90.16
	L 199 -90.74
	M 197.4 -89.57
	L 198.4 -89.72
	L 199.2 -90.31
	M 198.4 -89.72
	L 199.3 -89.88
	M 193.4 -88.94
	L 194.4 -88.63
	L 195.1 -87.93
	M 194.4 -88.63
	L 195.3 -88.32
	L 196.3 -88.48
	L 197.1 -89.07
	M 196.3 -88.48
	L 197.3 -88.64
	M 195.3 -88.32
	L 196.3 -88.01
	L 197 -87.31
	M 196.3 -88.01
	L 197.2 -87.71
	L 198.2 -87.86
	M 197.2 -87.71
	L 198.2 -87.4
	L 199.2 -87.55
	L 200 -88.14
	M 199.2 -87.55
	L 200.1 -87.71
	L 201.1 -87.4
	L 201.8 -86.69
	M 201.1 -87.4
	L 202 -87.09
	L 203 -87.25
	M 202 -87.09
	L 203 -86.78
	M 200.1 -87.71
	L 201.1 -87.87
	L 201.9 -88.45
	M 201.1 -87.87
	L 202.1 -88.02
	L 202.9 -88.61
	L 203.9 -88.77
	M 202.9 -88.61
	L 203.7 -89.2
	L 204.2 -90.09
	M 203.7 -89.2
	L 204.5 -89.79
	L 205.5 -89.94
	L 206.5 -89.63
	M 205.5 -89.94
	L 206.5 -90.1
	M 204.5 -89.79
	L 205.4 -90.37
	L 206.3 -90.53
	M 205.4 -90.37
	L 206.2 -90.96
	L 206.6 -91.85
	M 206.2 -90.96
	L 207 -91.55
	L 207.4 -92.44
	L 207.4 -93.44
	M 207.4 -92.44
	L 207.9 -93.33
	M 207 -91.55
	L 207.8 -92.14
	L 208.8 -92.29
	M 207.8 -92.14
	L 208.6 -92.72
	M 202.1 -88.02
	L 203.1 -88.18
	L 204.1 -87.87
	M 203.1 -88.18
	L 204.1 -88.34
	L 204.9 -88.92
	M 204.1 -88.34
	L 205.1 -88.49
	L 206 -88.18
	L 206.7 -87.48
	M 206 -88.18
	L 207 -87.87
	L 208 -88.03
	M 207 -87.87
	L 207.9 -87.56
	M 205.1 -88.49
	L 206.1 -88.65
	L 206.9 -89.24
	M 206.1 -88.65
	L 207.1 -88.8
	M 198.2 -87.4
	L 199.1 -87.09
	L 199.8 -86.38
	M 199.1 -87.09
	L 200.1 -86.78
	L 201.1 -86.94
	L 201.9 -87.52
	M 201.1 -86.94
	L 202 -87.09
	M 200.1 -86.78
	L 201 -86.47
	L 202 -86.63
	M 201 -86.47
	L 202 -86.16
	L 202.7 -85.45
	L 203.6 -85.14
	M 202.7 -85.45
	L 203.4 -84.75
	L 203.7 -83.8
	L 203.5 -82.81
	M 203.7 -83.8
	L 204 -82.84
	M 203.4 -84.75
	L 204.1 -84.04
	L 204.4 -83.09
	M 204.1 -84.04
	L 204.8 -83.33
	L 205.8 -83.02
	L 206.5 -82.32
	M 205.8 -83.02
	L 206.7 -82.71
	M 204.8 -83.33
	L 205.5 -82.63
	L 205.8 -81.67
	M 205.5 -82.63
	L 206.2 -81.92
	M 202 -86.16
	L 202.9 -85.85
	L 203.9 -86.01
	M 202.9 -85.85
	L 203.9 -85.54
	L 204.6 -84.84
	L 204.9 -83.88
	M 204.6 -84.84
	L 205.3 -84.13
	L 206.2 -83.82
	M 205.3 -84.13
	L 206 -83.42
	M 203.9 -85.54
	L 204.8 -85.23
	L 205.5 -84.53
	M 204.8 -85.23
	L 205.8 -84.92
	L 206.8 -85.08
	L 207.6 -85.67
	M 206.8 -85.08
	L 207.8 -85.24
	L 208.7 -84.93
	L 209.7 -85.08
	M 208.7 -84.93
	L 209.7 -84.62
	M 207.8 -85.24
	L 208.7 -85.39
	L 209.7 -85.08
	M 208.7 -85.39
	L 209.7 -85.55
	L 210.5 -86.14
	M 209.7 -85.55
	L 210.7 -85.71
	M 205.8 -84.92
	L 206.7 -84.62
	L 207.7 -84.77
	M 206.7 -84.62
	L 207.7 -84.31
	L 208.4 -83.6
	L 209.3 -83.29
	M 208.4 -83.6
	L 209.1 -82.89
	M 207.7 -84.31
	L 208.6 -84
	L 209.6 -84.15
	M 208.6 -84
	L 209.6 -83.69
	L 210.6 -83.84
	L 211.5 -83.54
	M 210.6 -83.84
	L 211.6 -84
	L 212.4 -84.59
	M 211.6 -84
	L 212.5 -84.16
	M 209.6 -83.69
	L 210.5 -83.38
	L 211.5 -83.54
	M 210.5 -83.38
	L 211.5 -83.07
	M 164.9 -98.21
	L 165.2 -99.16
	L 165.5 -100.1
	L 165.8 -101.1
	L 166.1 -102
	L 166.6 -102.9
	L 167 -103.8
"/>
</svg>
