<svg version="1.1" baseProfile="full" xmlns="http://www.w3.org/2000/svg"
width="952" height="1024"
viewBox="-22.52 -17.98 41.45 44.59"
>
<rect x="-22.52" y="-17.98" width="100%" height="100%" fill="white" />
<path stroke="green" stroke-width="0.04" stroke-linecap="round" fill="none"
transform="scale(1 -1)"
d="	M 0 0
	L 0 1
	L 0.3827 1.924
	L 1.09 2.631
	L 2.014 3.014
	L 3.014 3.014
	L 3.938 3.396
	L 4.645 4.103
	L 5.569 4.486
	L 6.569 4.486
	L 7.492 4.103
	L 8.492 4.103
	L 9.416 3.721
	L 10.12 3.014
	L 11.05 2.631
	L 12.05 2.631
	L 12.97 3.014
	L 13.68 3.721
	L 14.06 4.645
	L 14.06 5.645
	L 14.44 6.569
	L 14.44 7.569
	L 14.83 8.492
	L 15.53 9.2
	L 16.46 9.582
	L 17.16 10.29
	L 17.55 11.21
	L 17.55 12.21
	L 17.93 13.14
	L 17.93 14.14
	L 17.55 15.06
	L 17.55 16.06
	L 17.16 16.98
	M 0 0
	L 1 -1.305e-07
	L 1.924 -0.3827
	L 2.631 -1.09
	L 3.014 -2.014
	L 3.721 -2.721
	L 4.103 -3.645
	L 4.103 -4.645
	L 3.721 -5.569
	L 3.721 -6.569
	L 4.103 -7.492
	L 4.103 -8.492
	L 4.486 -9.416
	L 5.193 -10.12
	L 5.576 -11.05
	L 5.576 -12.05
	L 5.193 -12.97
	L 5.193 -13.97
	L 5.576 -14.9
	L 5.576 -15.9
	L 5.959 -16.82
	L 5.959 -17.82
	L 6.341 -18.74
	L 6.341 -19.74
	L 6.724 -20.67
	L 6.724 -21.67
	L 6.341 -22.59
	L 6.341 -23.59
	L 6.724 -24.51
	L 7.431 -25.22
	L 8.355 -25.6
	L 9.355 -25.6
	L 10.28 -25.22
	M 0 0
	L -1 -1.305e-07
	L -1.924 -0.3827
	L -2.631 -1.09
	L -3.555 -1.472
	L -4.262 -2.18
	L -5.186 -2.562
	L -6.186 -2.562
	L -7.11 -2.18
	L -7.817 -1.472
	L -8.741 -1.09
	L -9.741 -1.09
	L -10.66 -1.472
	L -11.37 -2.18
	L -11.75 -3.103
	L -12.46 -3.811
	L -13.39 -4.193
	L -14.39 -4.193
	L -15.31 -4.576
	L -16.02 -5.283
	L -16.4 -6.207
	L -16.4 -7.207
	L -16.78 -8.131
	L -16.78 -9.131
	L -17.16 -10.05
	L -17.87 -10.76
	L -18.25 -11.69
	L -18.96 -12.39
	L -19.34 -13.32
	L -20.05 -14.02
	L -20.43 -14.95
	L -21.14 -15.65
	L -21.52 -16.58
	M 0 0
	L 2.609e-07 -1
	L -0.3827 -1.924
	L -1.09 -2.631
	L -1.472 -3.555
	L -1.472 -4.555
	L -1.09 -5.479
	L -0.3827 -6.186
	L 0.5412 -6.569
	L 1.248 -7.276
	L 2.172 -7.658
	L 2.879 -8.365
	L 3.262 -9.289
	L 3.262 -10.29
	L 2.879 -11.21
	L 2.879 -12.21
	L 3.262 -13.14
	L 3.969 -13.84
	L 4.893 -14.23
	L 5.6 -14.93
	L 6.524 -15.32
	L 7.231 -16.02
	L 7.614 -16.95
	L 7.614 -17.95
	L 7.231 -18.87
	L 6.524 -19.58
	L 5.6 -19.96
	L 4.6 -19.96
	L 3.676 -20.34
	L 2.676 -20.34
	L 1.752 -20.73
	L 1.045 -21.43
	L 0.1213 -21.82
"/>
</svg>
