<svg version="1.1" baseProfile="full" xmlns="http://www.w3.org/2000/svg"
width="1024" height="836.3"
viewBox="-23.87 -24.61 47.42 38.73"
>
<rect x="-23.87" y="-24.61" width="100%" height="100%" fill="white" />
<path stroke="green" stroke-width="0.04" stroke-linecap="round" fill="none"
transform="scale(1 -1)"
d="	M 0 0
	L 0 1
	L -0.3827 1.924
	L -0.3827 2.924
	L -1.311e-08 3.848
	L -1.311e-08 4.848
	L 0.3827 5.772
	L 0.3827 6.772
	L 0.7654 7.696
	L 0.7654 8.696
	L 0.3827 9.619
	L -0.3244 10.33
	L -0.7071 11.25
	L -1.414 11.96
	L -1.797 12.88
	L -2.504 13.59
	L -3.428 13.97
	L -4.135 14.68
	L -4.518 15.6
	L -5.225 16.31
	L -6.149 16.69
	L -6.856 17.4
	L -7.78 17.78
	L -8.487 18.49
	L -8.869 19.41
	L -9.577 20.12
	L -9.959 21.04
	L -10.67 21.75
	L -11.59 22.13
	L -12.3 22.84
	L -13.22 23.22
	L -14.22 23.22
	L -15.15 23.61
	M 0 0
	L 1 -1.305e-07
	L 1.924 -0.3827
	L 2.631 -1.09
	L 3.014 -2.014
	L 3.014 -3.014
	L 3.396 -3.938
	L 4.103 -4.645
	L 5.027 -5.027
	L 6.027 -5.027
	L 6.951 -5.41
	L 7.658 -6.117
	L 8.582 -6.5
	L 9.289 -7.207
	L 10.21 -7.59
	L 11.21 -7.59
	L 12.14 -7.972
	L 13.14 -7.972
	L 14.06 -8.355
	L 15.06 -8.355
	L 15.98 -7.972
	L 16.69 -7.265
	L 17.62 -6.882
	L 18.62 -6.882
	L 19.54 -7.265
	L 20.54 -7.265
	L 21.46 -7.648
	L 22.17 -8.355
	L 22.55 -9.279
	L 22.55 -10.28
	L 22.17 -11.2
	L 22.17 -12.2
	L 21.79 -13.13
	M 0 0
	L -1 -1.305e-07
	L -1.924 -0.3827
	L -2.924 -0.3827
	L -3.848 -5.151e-07
	L -4.848 -6.456e-07
	L -5.772 -0.3827
	L -6.772 -0.3827
	L -7.696 -1.03e-06
	L -8.403 0.7071
	L -8.785 1.631
	L -8.785 2.631
	L -8.403 3.555
	L -7.696 4.262
	L -7.313 5.186
	L -6.606 5.893
	L -5.682 6.276
	L -4.975 6.983
	L -4.592 7.907
	L -4.592 8.907
	L -4.975 9.831
	L -5.682 10.54
	L -6.065 11.46
	L -6.065 12.46
	L -6.447 13.39
	L -7.154 14.09
	L -8.078 14.48
	L -9.078 14.48
	L -10 14.09
	L -10.71 13.39
	L -11.09 12.46
	L -11.8 11.75
	L -12.72 11.37
	M 0 0
	L 2.609e-07 -1
	L 0.3827 -1.924
	L 0.3827 -2.924
	L 0.7654 -3.848
	L 0.7654 -4.848
	L 0.3827 -5.772
	L -0.3244 -6.479
	L -1.248 -6.861
	L -2.248 -6.861
	L -3.172 -7.244
	L -3.879 -7.951
	L -4.803 -8.334
	L -5.803 -8.334
	L -6.727 -7.951
	L -7.434 -7.244
	L -8.358 -6.861
	L -9.358 -6.861
	L -10.28 -6.479
	L -11.28 -6.479
	L -12.21 -6.096
	L -12.91 -5.389
	L -13.84 -5.006
	L -14.54 -4.299
	L -15.47 -3.916
	L -16.47 -3.916
	L -17.39 -4.299
	L -18.39 -4.299
	L -19.32 -3.916
	L -20.02 -3.209
	L -20.95 -2.827
	L -21.95 -2.827
	L -22.87 -3.209
"/>
</svg>
