<svg version="1.1" baseProfile="full" xmlns="http://www.w3.org/2000/svg"
width="358.1" height="1024"
viewBox="-2.04 -18.78 6.918 19.78"
>
<rect x="-2.04" y="-18.78" width="100%" height="100%" fill="white" />
<path stroke="green" stroke-width="0.04" stroke-linecap="round" fill="none"
transform="scale(1 -1)"
d="	M 0 0
	L 0 1
	L -0.2079 1.978
	L -0.6146 2.892
	M -0.2079 1.978
	L -0.4158 2.956
	L -0.4158 3.956
	M -0.4158 2.956
	L -0.6237 3.934
	M 0 1
	L 0 2
	L 0.2079 2.978
	L 0.2079 3.978
	L -1.104e-08 4.956
	M 0.2079 3.978
	L 0.2079 4.978
	L 0.4158 5.956
	M 0.2079 4.978
	L 0.2079 5.978
	M 0.2079 2.978
	L 0.4158 3.956
	L 0.8226 4.87
	L 1.03 5.848
	M 0.8226 4.87
	L 1.229 5.783
	L 1.817 6.592
	M 1.229 5.783
	L 1.636 6.697
	M 0.4158 3.956
	L 0.6237 4.934
	L 0.6237 5.934
	M 0.6237 4.934
	L 0.8316 5.913
	L 0.8316 6.913
	M 0.8316 5.913
	L 1.04 6.891
	L 1.446 7.804
	M 1.04 6.891
	L 1.247 7.869
	L 1.654 8.782
	M 1.247 7.869
	L 1.455 8.847
	L 1.455 9.847
	L 1.247 10.83
	L 0.8407 11.74
	M 1.247 10.83
	L 1.04 11.8
	L 1.04 12.8
	M 1.04 11.8
	L 0.8316 12.78
	M 1.455 9.847
	L 1.455 10.85
	L 1.247 11.83
	M 1.455 10.85
	L 1.455 11.85
	L 1.247 12.83
	M 1.455 11.85
	L 1.455 12.85
	L 1.663 13.83
	M 1.455 12.85
	L 1.455 13.85
	L 1.663 14.83
	L 1.663 15.83
	M 1.663 14.83
	L 1.871 15.8
	L 2.278 16.72
	M 1.871 15.8
	L 2.079 16.78
	M 1.455 13.85
	L 1.455 14.85
	L 1.663 15.83
	L 1.663 16.83
	M 1.663 15.83
	L 1.871 16.8
	L 2.278 17.72
	M 1.871 16.8
	L 2.079 17.78
	M 1.455 14.85
	L 1.455 15.85
	M 1.455 8.847
	L 1.663 9.825
	L 2.07 10.74
	L 2.278 11.72
	M 2.07 10.74
	L 2.477 11.65
	L 3.065 12.46
	M 2.477 11.65
	L 2.884 12.57
	L 3.091 13.54
	M 2.884 12.57
	L 3.29 13.48
	L 3.878 14.29
	M 3.29 13.48
	L 3.697 14.39
	M 1.663 9.825
	L 1.871 10.8
	L 1.871 11.8
	M 1.871 10.8
	L 2.079 11.78
	L 2.486 12.7
	M 2.079 11.78
	L 2.287 12.76
	L 2.694 13.67
	M 2.287 12.76
	L 2.495 13.74
	M 0 2
	L 0 3
	L -0.2079 3.978
	L -0.6146 4.892
	M -0.2079 3.978
	L -0.4158 4.956
	L -0.4158 5.956
	L -0.6237 6.934
	M -0.4158 5.956
	L -0.4158 6.956
	L -0.2079 7.934
	M -0.4158 6.956
	L -0.4158 7.956
	M -0.4158 4.956
	L -0.6237 5.934
	L -1.03 6.848
	M -0.6237 5.934
	L -0.8316 6.913
	L -0.8316 7.913
	M -0.8316 6.913
	L -1.04 7.891
	M 0 3
	L 0 4
	L 0.2079 4.978
	L 0.2079 5.978
	M 0.2079 4.978
	L 0.4158 5.956
	L 0.4158 6.956
	M 0.4158 5.956
	L 0.6237 6.934
	L 1.03 7.848
	M 0.6237 6.934
	L 0.8316 7.913
	L 1.238 8.826
	M 0.8316 7.913
	L 1.04 8.891
	M 0 4
	L 0 5
	L -0.2079 5.978
	M 0 5
	L 0 6
	L 0.2079 6.978
	M 0 6
	L 0 7
	L -0.2079 7.978
	M 0 7
	L 0 8
	L 0.2079 8.978
	M 0 8
	L 0 9
	L -0.2079 9.978
	M 0 9
	L 0 10
	L -0.2079 10.98
	M 0 10
	L 0 11
	L 0.2079 11.98
	M 0 11
	L 0 12
	L 0.2079 12.98
	L 0.2079 13.98
	M 0.2079 12.98
	L 0.4158 13.96
	L 0.8226 14.87
	M 0.4158 13.96
	L 0.6237 14.93
	M 0 12
	L 0 13
	L -0.2079 13.98
	M 0 13
	L 0 14
	L 0.2079 14.98
	M 0 14
	L 0 15
	L -0.2079 15.98
	M 0 15
	L 0 16
	L 0.2079 16.98
	M 0 16
	L 0 17
"/>
</svg>
