<svg version="1.1" baseProfile="full" xmlns="http://www.w3.org/2000/svg"
width="1024" height="1024"
viewBox="-22.44 -1.313 52.82 52.82"
>
<rect x="-22.44" y="-1.313" width="100%" height="100%" fill="white" />
<path stroke="green" stroke-width="0.04" stroke-linecap="round" fill="none"
transform="scale(1 -1)"
d="	M 0 0
	L 0.9877 0.1564
	L 1.975 0.3129
	L 2.975 0.3129
	L 3.975 0.3129
	L 4.975 0.3129
	L 5.975 0.3129
	L 6.963 0.1564
	L 7.951 -6.312e-07
	L 8.938 -0.1564
	L 9.926 -0.3129
	L 10.88 -0.6219
	L 11.83 -0.9309
	L 12.78 -1.24
	L 13.73 -1.549
	L 14.62 -2.003
	L 15.51 -2.457
	L 16.4 -2.911
	L 17.29 -3.365
	L 18.1 -3.953
	L 18.91 -4.54
	L 19.72 -5.128
	L 20.53 -5.716
	L 21.24 -6.423
	L 21.94 -7.13
	L 22.65 -7.837
	L 23.36 -8.544
	L 23.95 -9.353
	L 24.53 -10.16
	L 25.12 -10.97
	L 25.71 -11.78
	L 26.16 -12.67
	L 26.62 -13.56
	L 27.07 -14.45
	L 27.53 -15.34
	L 27.84 -16.3
	L 28.14 -17.25
	L 28.45 -18.2
	L 28.76 -19.15
	L 28.92 -20.14
	L 29.07 -21.12
	L 29.23 -22.11
	L 29.39 -23.1
	L 29.39 -24.1
	L 29.39 -25.1
	L 29.39 -26.1
	L 29.39 -27.1
	L 29.23 -28.09
	L 29.07 -29.07
	L 28.92 -30.06
	L 28.76 -31.05
	L 28.45 -32
	L 28.14 -32.95
	L 27.84 -33.9
	L 27.53 -34.85
	L 27.07 -35.75
	L 26.62 -36.64
	L 26.16 -37.53
	L 25.71 -38.42
	L 25.12 -39.23
	L 24.53 -40.04
	L 23.95 -40.85
	L 23.36 -41.65
	L 22.65 -42.36
	L 21.94 -43.07
	L 21.24 -43.78
	L 20.53 -44.48
	L 19.72 -45.07
	L 18.91 -45.66
	L 18.1 -46.25
	L 17.29 -46.83
	L 16.4 -47.29
	L 15.51 -47.74
	L 14.62 -48.2
	L 13.73 -48.65
	L 12.78 -48.96
	L 11.83 -49.27
	L 10.88 -49.58
	L 9.926 -49.89
	L 8.938 -50.04
	L 7.951 -50.2
	L 6.963 -50.36
	L 5.975 -50.51
	L 4.975 -50.51
	L 3.975 -50.51
	L 2.975 -50.51
	L 1.975 -50.51
	L 0.9877 -50.36
	L -1.738e-05 -50.2
	L -0.9877 -50.04
	L -1.975 -49.89
	L -2.926 -49.58
	L -3.878 -49.27
	L -4.829 -48.96
	L -5.78 -48.65
	L -6.671 -48.2
	L -7.562 -47.74
	L -8.453 -47.29
	L -9.344 -46.83
	L -10.15 -46.25
	L -10.96 -45.66
	L -11.77 -45.07
	L -12.58 -44.48
	L -13.29 -43.78
	L -13.99 -43.07
	L -14.7 -42.36
	L -15.41 -41.65
	L -16 -40.85
	L -16.58 -40.04
	L -17.17 -39.23
	L -17.76 -38.42
	L -18.21 -37.53
	L -18.67 -36.64
	L -19.12 -35.75
	L -19.58 -34.85
	L -19.88 -33.9
	L -20.19 -32.95
	L -20.5 -32
	L -20.81 -31.05
	L -20.97 -30.06
	L -21.12 -29.07
	L -21.28 -28.09
	L -21.44 -27.1
	L -21.44 -26.1
	L -21.44 -25.1
	L -21.44 -24.1
	L -21.44 -23.1
	L -21.28 -22.11
	L -21.12 -21.12
	L -20.97 -20.14
	L -20.81 -19.15
	L -20.5 -18.2
	L -20.19 -17.25
	L -19.88 -16.3
	L -19.58 -15.34
	L -19.12 -14.45
	L -18.67 -13.56
	L -18.21 -12.67
	L -17.76 -11.78
	L -17.17 -10.97
	L -16.58 -10.16
	L -16 -9.353
	L -15.41 -8.544
	L -14.7 -7.837
	L -13.99 -7.13
	L -13.29 -6.423
	L -12.58 -5.716
	L -11.77 -5.128
	L -10.96 -4.54
	L -10.15 -3.953
	L -9.344 -3.365
	L -8.453 -2.911
	L -7.562 -2.457
	L -6.671 -2.003
	L -5.78 -1.549
	L -4.829 -1.24
	L -3.877 -0.9309
	L -2.926 -0.6219
	L -1.975 -0.3128
	L -0.9877 -0.1564
	L 4.047e-06 2.483e-05
	L 0.9877 0.1565
	L 1.975 0.3129
	L 2.975 0.3129
	L 3.975 0.3129
	L 4.975 0.3129
	L 5.975 0.3129
	L 6.963 0.1565
	L 7.951 2.174e-05
	L 8.938 -0.1564
	L 9.926 -0.3128
	L 10.88 -0.6219
	L 11.83 -0.9309
	L 12.78 -1.24
	L 13.73 -1.549
	L 14.62 -2.003
	L 15.51 -2.457
	L 16.4 -2.911
	L 17.29 -3.365
	L 18.1 -3.953
	L 18.91 -4.54
	L 19.72 -5.128
	L 20.53 -5.716
	L 21.24 -6.423
	L 21.94 -7.13
	L 22.65 -7.837
	L 23.36 -8.544
	L 23.95 -9.353
	L 24.53 -10.16
	L 25.12 -10.97
	L 25.71 -11.78
	L 26.16 -12.67
	L 26.62 -13.56
	L 27.07 -14.45
	L 27.53 -15.34
	L 27.84 -16.3
	L 28.14 -17.25
	L 28.45 -18.2
	L 28.76 -19.15
	L 28.92 -20.14
	L 29.07 -21.12
	L 29.23 -22.11
	L 29.39 -23.1
	L 29.39 -24.1
	L 29.39 -25.1
	L 29.39 -26.1
	L 29.39 -27.1
	L 29.23 -28.09
	L 29.07 -29.07
	L 28.92 -30.06
	L 28.76 -31.05
	L 28.45 -32
	L 28.14 -32.95
	L 27.84 -33.9
	L 27.53 -34.85
	L 27.07 -35.75
	L 26.62 -36.64
"/>
</svg>
