<svg version="1.1" baseProfile="full" xmlns="http://www.w3.org/2000/svg"
width="1024" height="396.9"
viewBox="-1 -1.313 195.6 75.8"
>
<rect x="-1" y="-1.313" width="100%" height="100%" fill="white" />
<path stroke="green" stroke-width="0.04" stroke-linecap="round" fill="none"
transform="scale(1 -1)"
d="	M 0 0
	L 0.9877 0.1564
	L 1.975 0.3129
	L 2.975 0.3129
	L 3.975 0.3129
	L 4.975 0.3129
	L 5.975 0.3129
	L 6.975 0.3129
	L 7.975 0.3129
	L 8.975 0.3129
	L 9.975 0.3129
	L 10.96 0.1564
	L 11.95 -9.413e-07
	L 12.94 -0.1564
	L 13.93 -0.3129
	L 14.88 -0.6219
	L 15.83 -0.9309
	L 16.78 -1.24
	L 17.73 -1.549
	L 18.72 -1.705
	L 19.71 -1.862
	L 20.69 -2.018
	L 21.68 -2.175
	L 22.63 -2.484
	L 23.58 -2.793
	L 24.53 -3.102
	L 25.49 -3.411
	L 26.47 -3.567
	L 27.46 -3.724
	L 28.45 -3.88
	L 29.44 -4.036
	L 30.39 -4.346
	L 31.34 -4.655
	L 32.29 -4.964
	L 33.24 -5.273
	L 34.13 -5.727
	L 35.02 -6.181
	L 35.91 -6.635
	L 36.8 -7.089
	L 37.7 -7.543
	L 38.59 -7.996
	L 39.48 -8.45
	L 40.37 -8.904
	L 41.18 -9.492
	L 41.99 -10.08
	L 42.8 -10.67
	L 43.6 -11.26
	L 44.5 -11.71
	L 45.39 -12.16
	L 46.28 -12.62
	L 47.17 -13.07
	L 47.98 -13.66
	L 48.79 -14.25
	L 49.6 -14.83
	L 50.4 -15.42
	L 51.3 -15.88
	L 52.19 -16.33
	L 53.08 -16.78
	L 53.97 -17.24
	L 54.92 -17.55
	L 55.87 -17.86
	L 56.82 -18.17
	L 57.77 -18.47
	L 58.72 -18.78
	L 59.67 -19.09
	L 60.63 -19.4
	L 61.58 -19.71
	L 62.47 -20.16
	L 63.36 -20.62
	L 64.25 -21.07
	L 65.14 -21.53
	L 65.95 -22.11
	L 66.76 -22.7
	L 67.57 -23.29
	L 68.38 -23.88
	L 69.19 -24.47
	L 70 -25.05
	L 70.8 -25.64
	L 71.61 -26.23
	L 72.5 -26.68
	L 73.4 -27.14
	L 74.29 -27.59
	L 75.18 -28.05
	L 75.99 -28.63
	L 76.8 -29.22
	L 77.6 -29.81
	L 78.41 -30.4
	L 79.12 -31.1
	L 79.83 -31.81
	L 80.53 -32.52
	L 81.24 -33.22
	L 81.95 -33.93
	L 82.66 -34.64
	L 83.36 -35.35
	L 84.07 -36.05
	L 84.66 -36.86
	L 85.25 -37.67
	L 85.83 -38.48
	L 86.42 -39.29
	L 87.13 -40
	L 87.84 -40.7
	L 88.54 -41.41
	L 89.25 -42.12
	L 89.84 -42.93
	L 90.43 -43.74
	L 91.01 -44.54
	L 91.6 -45.35
	L 92.31 -46.06
	L 93.02 -46.77
	L 93.72 -47.47
	L 94.43 -48.18
	L 95.02 -48.99
	L 95.6 -49.8
	L 96.19 -50.61
	L 96.78 -51.42
	L 97.23 -52.31
	L 97.69 -53.2
	L 98.14 -54.09
	L 98.6 -54.98
	L 99.18 -55.79
	L 99.77 -56.6
	L 100.4 -57.41
	L 100.9 -58.22
	L 101.7 -58.93
	L 102.4 -59.63
	L 103.1 -60.34
	L 103.8 -61.05
	L 104.6 -61.63
	L 105.4 -62.22
	L 106.2 -62.81
	L 107 -63.4
	L 107.7 -64.1
	L 108.4 -64.81
	L 109.1 -65.52
	L 109.8 -66.23
	L 110.6 -66.81
	L 111.5 -67.4
	L 112.3 -67.99
	L 113.1 -68.58
	L 114 -69.03
	L 114.9 -69.49
	L 115.7 -69.94
	L 116.6 -70.39
	L 117.6 -70.7
	L 118.5 -71.01
	L 119.5 -71.32
	L 120.4 -71.63
	L 121.4 -71.94
	L 122.3 -72.25
	L 123.3 -72.56
	L 124.2 -72.87
	L 125.2 -73.02
	L 126.2 -73.18
	L 127.2 -73.33
	L 128.2 -73.49
	L 129.2 -73.49
	L 130.2 -73.49
	L 131.2 -73.49
	L 132.2 -73.49
	L 133.2 -73.33
	L 134.2 -73.18
	L 135.2 -73.02
	L 136.2 -72.87
	L 137.2 -72.87
	L 138.2 -72.87
	L 139.2 -72.87
	L 140.2 -72.87
	L 141.1 -72.71
	L 142.1 -72.55
	L 143.1 -72.4
	L 144.1 -72.24
	L 145.1 -72.08
	L 146.1 -71.93
	L 147.1 -71.77
	L 148.1 -71.61
	L 149 -71.3
	L 150 -71
	L 150.9 -70.69
	L 151.9 -70.38
	L 152.8 -70.22
	L 153.8 -70.07
	L 154.8 -69.91
	L 155.8 -69.75
	L 156.8 -69.75
	L 157.8 -69.75
	L 158.8 -69.75
	L 159.8 -69.75
	L 160.8 -69.6
	L 161.8 -69.44
	L 162.8 -69.28
	L 163.8 -69.13
	L 164.8 -69.13
	L 165.8 -69.13
	L 166.8 -69.13
	L 167.8 -69.13
	L 168.7 -68.97
	L 169.7 -68.81
	L 170.7 -68.66
	L 171.7 -68.5
	L 172.7 -68.5
	L 173.7 -68.5
	L 174.7 -68.5
	L 175.7 -68.5
	L 176.7 -68.66
	L 177.7 -68.81
	L 178.7 -68.97
	L 179.7 -69.13
	L 180.6 -69.28
	L 181.6 -69.44
	L 182.6 -69.6
	L 183.6 -69.75
	L 184.6 -69.75
	L 185.6 -69.75
	L 186.6 -69.75
	L 187.6 -69.75
	L 188.6 -69.6
	L 189.6 -69.44
	L 190.6 -69.28
	L 191.6 -69.13
	L 192.6 -69.13
	L 193.6 -69.13
"/>
</svg>
