<svg version="1.1" baseProfile="full" xmlns="http://www.w3.org/2000/svg"
width="208.4" height="1024"
viewBox="-4.905 -75.78 15.62 76.78"
>
<rect x="-4.905" y="-75.78" width="100%" height="100%" fill="white" />
<path stroke="green" stroke-width="0.04" stroke-linecap="round" fill="none"
transform="scale(1 -1)"
d="	M 0 0
	L 0 1
	L -0.2079 1.978
	M 0 1
	L 0 2
	L -0.2079 2.978
	L -0.6146 3.892
	M -0.2079 2.978
	L -0.4158 3.956
	L -0.4158 4.956
	M -0.4158 3.956
	L -0.6237 4.934
	M 0 2
	L 0 3
	L 0.2079 3.978
	M 0 3
	L 0 4
	L 0.2079 4.978
	L 0.6146 5.892
	M 0.2079 4.978
	L 0.4158 5.956
	M 0 4
	L 0 5
	L -0.2079 5.978
	M 0 5
	L 0 6
	L 0.2079 6.978
	L 0.2079 7.978
	M 0.2079 6.978
	L 0.4158 7.956
	L 0.8226 8.87
	M 0.4158 7.956
	L 0.6237 8.934
	L 0.6237 9.934
	L 0.8316 10.91
	M 0.6237 9.934
	L 0.6237 10.93
	M 0.6237 8.934
	L 0.8316 9.913
	L 1.238 10.83
	M 0.8316 9.913
	L 1.04 10.89
	L 1.446 11.8
	L 2.034 12.61
	M 1.446 11.8
	L 1.853 12.72
	M 1.04 10.89
	L 1.247 11.87
	L 1.247 12.87
	M 1.247 11.87
	L 1.455 12.85
	L 1.862 13.76
	M 1.455 12.85
	L 1.663 13.83
	M 0 6
	L 0 7
	L -0.2079 7.978
	M 0 7
	L 0 8
	L 0.2079 8.978
	M 0 8
	L 0 9
	L -0.2079 9.978
	L -0.6146 10.89
	M -0.2079 9.978
	L -0.4158 10.96
	L -0.4158 11.96
	M -0.4158 10.96
	L -0.6237 11.93
	M 0 9
	L 0 10
	L -0.2079 10.98
	M 0 10
	L 0 11
	L 0.2079 11.98
	L 0.2079 12.98
	M 0.2079 11.98
	L 0.4158 12.96
	L 0.8226 13.87
	M 0.4158 12.96
	L 0.6237 13.93
	M 0 11
	L 0 12
	L 0.2079 12.98
	M 0 12
	L 0 13
	L -0.2079 13.98
	L -0.2079 14.98
	M -0.2079 13.98
	L -0.4158 14.96
	L -0.8226 15.87
	L -1.41 16.68
	M -0.8226 15.87
	L -1.229 16.78
	M -0.4158 14.96
	L -0.6237 15.93
	L -1.03 16.85
	M -0.6237 15.93
	L -0.8316 16.91
	L -0.8316 17.91
	M -0.8316 16.91
	L -1.04 17.89
	L -1.04 18.89
	L -0.8316 19.87
	M -1.04 18.89
	L -1.04 19.89
	M -1.04 17.89
	L -1.247 18.87
	L -1.654 19.78
	M -1.247 18.87
	L -1.455 19.85
	L -1.455 20.85
	M -1.455 19.85
	L -1.663 20.83
	L -2.07 21.74
	L -2.658 22.55
	M -2.07 21.74
	L -2.477 22.65
	L -2.685 23.63
	M -2.477 22.65
	L -2.884 23.57
	L -3.091 24.54
	L -3.498 25.46
	M -3.091 24.54
	L -3.299 25.52
	M -2.884 23.57
	L -3.29 24.48
	L -3.498 25.46
	M -3.29 24.48
	L -3.697 25.39
	M -1.663 20.83
	L -1.871 21.8
	L -2.278 22.72
	M -1.871 21.8
	L -2.079 22.78
	L -2.486 23.7
	L -3.074 24.5
	M -2.486 23.7
	L -2.893 24.61
	L -3.101 25.59
	M -2.893 24.61
	L -3.299 25.52
	M -2.079 22.78
	L -2.287 23.76
	L -2.694 24.67
	M -2.287 23.76
	L -2.495 24.74
	L -2.495 25.74
	L -2.703 26.72
	M -2.495 25.74
	L -2.495 26.74
	L -2.287 27.72
	M -2.495 26.74
	L -2.495 27.74
	L -2.703 28.72
	L -3.11 29.63
	M -2.703 28.72
	L -2.911 29.69
	M -2.495 27.74
	L -2.495 28.74
	L -2.703 29.72
	M -2.495 28.74
	L -2.495 29.74
	M -2.495 24.74
	L -2.703 25.72
	L -2.703 26.72
	M -2.703 25.72
	L -2.911 26.69
	L -3.318 27.61
	L -3.905 28.42
	M -3.318 27.61
	L -3.724 28.52
	M -2.911 26.69
	L -3.119 27.67
	L -3.525 28.59
	M -3.119 27.67
	L -3.327 28.65
	M 0 13
	L 0 14
	L -0.2079 14.98
	M 0 14
	L 0 15
	L 0.2079 15.98
	M 0 15
	L 0 16
	L -0.2079 16.98
	L -0.2079 17.98
	M -0.2079 16.98
	L -0.4158 17.96
	M 0 16
	L 0 17
	L -0.2079 17.98
	M 0 17
	L 0 18
	L 0.2079 18.98
	M 0 18
	L 0 19
	L -0.2079 19.98
	L -0.6146 20.89
	M -0.2079 19.98
	L -0.4158 20.96
	L -0.4158 21.96
	L -0.2079 22.93
	M -0.4158 21.96
	L -0.4158 22.96
	M -0.4158 20.96
	L -0.6237 21.93
	L -1.03 22.85
	M -0.6237 21.93
	L -0.8316 22.91
	L -0.8316 23.91
	M -0.8316 22.91
	L -1.04 23.89
	M 0 19
	L 0 20
	L -0.2079 20.98
	M 0 20
	L 0 21
	L 0.2079 21.98
	M 0 21
	L 0 22
	L -0.2079 22.98
	L -0.6146 23.89
	M -0.2079 22.98
	L -0.4158 23.96
	M 0 22
	L 0 23
	L 0.2079 23.98
	M 0 23
	L 0 24
	L 0.2079 24.98
	L 0.2079 25.98
	M 0.2079 24.98
	L 0.4158 25.96
	L 0.8226 26.87
	M 0.4158 25.96
	L 0.6237 26.93
	M 0 24
	L 0 25
	L -0.2079 25.98
	M 0 25
	L 0 26
	L 0.2079 26.98
	L 0.6146 27.89
	M 0.2079 26.98
	L 0.4158 27.96
	L 0.4158 28.96
	L 0.2079 29.93
	M 0.4158 28.96
	L 0.4158 29.96
	M 0.4158 27.96
	L 0.6237 28.93
	L 1.03 29.85
	M 0.6237 28.93
	L 0.8316 29.91
	L 1.238 30.83
	L 1.446 31.8
	M 1.238 30.83
	L 1.645 31.74
	L 2.233 32.55
	M 1.645 31.74
	L 2.052 32.65
	M 0.8316 29.91
	L 1.04 30.89
	L 1.04 31.89
	M 1.04 30.89
	L 1.247 31.87
	L 1.654 32.78
	M 1.247 31.87
	L 1.455 32.85
	M 0 26
	L 0 27
	L -0.2079 27.98
	M 0 27
	L 0 28
	L 0.2079 28.98
	M 0 28
	L 0 29
	L -0.2079 29.98
	L -0.2079 30.98
	M -0.2079 29.98
	L -0.4158 30.96
	M 0 29
	L 0 30
	L -0.2079 30.98
	M 0 30
	L 0 31
	L 0.2079 31.98
	L 0.6146 32.89
	M 0.2079 31.98
	L 0.4158 32.96
	M 0 31
	L 0 32
	L -0.2079 32.98
	M 0 32
	L 0 33
	L 0.2079 33.98
	M 0 33
	L 0 34
	L 0.2079 34.98
	L 0.6146 35.89
	M 0.2079 34.98
	L 0.4158 35.96
	L 0.8226 36.87
	L 1.03 37.85
	M 0.8226 36.87
	L 1.229 37.78
	M 0.4158 35.96
	L 0.6237 36.93
	L 0.6237 37.93
	M 0.6237 36.93
	L 0.8316 37.91
	L 1.238 38.83
	M 0.8316 37.91
	L 1.04 38.89
	L 1.04 39.89
	L 0.8316 40.87
	M 1.04 39.89
	L 1.04 40.89
	L 1.247 41.87
	M 1.04 40.89
	L 1.04 41.89
	L 0.8316 42.87
	L 0.4249 43.78
	M 0.8316 42.87
	L 0.6237 43.85
	L 0.6237 44.85
	M 0.6237 43.85
	L 0.4158 44.83
	M 1.04 41.89
	L 1.04 42.89
	L 0.8316 43.87
	M 1.04 42.89
	L 1.04 43.89
	L 1.247 44.87
	L 1.654 45.78
	M 1.247 44.87
	L 1.455 45.85
	M 1.04 43.89
	L 1.04 44.89
	L 0.8316 45.87
	M 1.04 44.89
	L 1.04 45.89
	L 1.247 46.87
	M 1.04 45.89
	L 1.04 46.89
	M 1.04 38.89
	L 1.247 39.87
	L 1.247 40.87
	M 1.247 39.87
	L 1.455 40.85
	L 1.455 41.85
	L 1.247 42.83
	M 1.455 41.85
	L 1.455 42.85
	M 1.455 40.85
	L 1.663 41.83
	L 1.663 42.83
	M 1.663 41.83
	L 1.871 42.8
	M 0 34
	L 0 35
	L -0.2079 35.98
	M 0 35
	L 0 36
	L 0.2079 36.98
	L 0.2079 37.98
	M 0.2079 36.98
	L 0.4158 37.96
	M 0 36
	L 0 37
	L -0.2079 37.98
	M 0 37
	L 0 38
	L 0.2079 38.98
	M 0 38
	L 0 39
	L -0.2079 39.98
	L -0.2079 40.98
	M -0.2079 39.98
	L -0.4158 40.96
	L -0.8226 41.87
	L -1.41 42.68
	M -0.8226 41.87
	L -1.229 42.78
	L -1.437 43.76
	M -1.229 42.78
	L -1.636 43.7
	M -0.4158 40.96
	L -0.6237 41.93
	L -0.6237 42.93
	M -0.6237 41.93
	L -0.8316 42.91
	M 0 39
	L 0 40
	L 0.2079 40.98
	M 0 40
	L 0 41
	L -0.2079 41.98
	L -0.6146 42.89
	M -0.2079 41.98
	L -0.4158 42.96
	L -0.4158 43.96
	M -0.4158 42.96
	L -0.6237 43.93
	M 0 41
	L 0 42
	L -0.2079 42.98
	M 0 42
	L 0 43
	L 0.2079 43.98
	M 0 43
	L 0 44
	L 0.2079 44.98
	L 0.2079 45.98
	M 0.2079 44.98
	L 0.4158 45.96
	L 0.8226 46.87
	L 1.03 47.85
	M 0.8226 46.87
	L 1.229 47.78
	M 0.4158 45.96
	L 0.6237 46.93
	L 0.6237 47.93
	M 0.6237 46.93
	L 0.8316 47.91
	L 1.238 48.83
	M 0.8316 47.91
	L 1.04 48.89
	L 1.04 49.89
	L 1.247 50.87
	M 1.04 49.89
	L 1.04 50.89
	L 1.247 51.87
	L 1.247 52.87
	M 1.247 51.87
	L 1.455 52.85
	M 1.04 50.89
	L 1.04 51.89
	L 0.8316 52.87
	M 1.04 51.89
	L 1.04 52.89
	L 1.247 53.87
	M 1.04 52.89
	L 1.04 53.89
	M 1.04 48.89
	L 1.247 49.87
	L 1.247 50.87
	M 1.247 49.87
	L 1.455 50.85
	L 1.862 51.76
	M 1.455 50.85
	L 1.663 51.83
	L 2.07 52.74
	L 2.278 53.72
	M 2.07 52.74
	L 2.477 53.65
	L 3.065 54.46
	M 2.477 53.65
	L 2.884 54.57
	M 1.663 51.83
	L 1.871 52.8
	L 1.871 53.8
	M 1.871 52.8
	L 2.079 53.78
	L 2.486 54.7
	M 2.079 53.78
	L 2.287 54.76
	L 2.694 55.67
	L 3.282 56.48
	M 2.694 55.67
	L 3.101 56.59
	L 3.308 57.56
	L 3.308 58.56
	M 3.308 57.56
	L 3.516 58.54
	L 3.923 59.46
	M 3.516 58.54
	L 3.724 59.52
	M 3.101 56.59
	L 3.507 57.5
	L 4.095 58.31
	M 3.507 57.5
	L 3.914 58.41
	L 4.122 59.39
	L 4.529 60.31
	M 4.122 59.39
	L 4.33 60.37
	L 4.737 61.28
	L 4.944 62.26
	M 4.737 61.28
	L 5.143 62.2
	L 5.731 63.01
	M 5.143 62.2
	L 5.55 63.11
	M 4.33 60.37
	L 4.538 61.35
	L 4.538 62.35
	M 4.538 61.35
	L 4.746 62.33
	L 5.152 63.24
	M 4.746 62.33
	L 4.954 63.3
	M 3.914 58.41
	L 4.321 59.33
	L 4.908 60.14
	M 4.321 59.33
	L 4.727 60.24
	L 4.935 61.22
	L 5.342 62.13
	M 4.935 61.22
	L 5.143 62.2
	M 4.727 60.24
	L 5.134 61.15
	L 5.342 62.13
	M 5.134 61.15
	L 5.541 62.07
	L 6.129 62.88
	L 6.535 63.79
	M 6.129 62.88
	L 6.716 63.69
	L 7.46 64.36
	M 6.716 63.69
	L 7.304 64.5
	M 5.541 62.07
	L 5.948 62.98
	L 6.156 63.96
	M 5.948 62.98
	L 6.354 63.9
	L 6.942 64.7
	L 7.349 65.62
	M 6.942 64.7
	L 7.53 65.51
	L 7.937 66.43
	L 8.524 67.24
	M 7.937 66.43
	L 8.343 67.34
	M 7.53 65.51
	L 8.118 66.32
	L 8.524 67.24
	M 8.118 66.32
	L 8.706 67.13
	M 6.354 63.9
	L 6.761 64.81
	L 7.349 65.62
	M 6.761 64.81
	L 7.168 65.72
	L 7.376 66.7
	L 7.376 67.7
	M 7.376 66.7
	L 7.584 67.68
	M 7.168 65.72
	L 7.575 66.64
	L 7.783 67.61
	M 7.575 66.64
	L 7.981 67.55
	L 8.569 68.36
	M 7.981 67.55
	L 8.388 68.46
	L 8.976 69.27
	L 9.719 69.94
	M 8.976 69.27
	L 9.564 70.08
	M 8.388 68.46
	L 8.795 69.38
	L 9.003 70.35
	M 8.795 69.38
	L 9.202 70.29
	M 2.287 54.76
	L 2.495 55.74
	L 2.495 56.74
	M 2.495 55.74
	L 2.703 56.72
	L 3.11 57.63
	M 2.703 56.72
	L 2.911 57.69
	L 3.318 58.61
	L 3.525 59.59
	M 3.318 58.61
	L 3.724 59.52
	M 2.911 57.69
	L 3.119 58.67
	L 3.119 59.67
	M 3.119 58.67
	L 3.327 59.65
	L 3.733 60.56
	M 3.327 59.65
	L 3.534 60.63
	L 3.534 61.63
	L 3.327 62.61
	M 3.534 61.63
	L 3.534 62.63
	L 3.327 63.61
	L 2.92 64.52
	M 3.327 63.61
	L 3.119 64.58
	M 3.534 62.63
	L 3.534 63.63
	L 3.327 64.61
	M 3.534 63.63
	L 3.534 64.63
	L 3.742 65.61
	L 3.742 66.61
	M 3.742 65.61
	L 3.95 66.58
	L 4.357 67.5
	M 3.95 66.58
	L 4.158 67.56
	M 3.534 64.63
	L 3.534 65.63
	L 3.327 66.61
	M 3.534 65.63
	L 3.534 66.63
	M 3.534 60.63
	L 3.742 61.61
	L 3.742 62.61
	M 3.742 61.61
	L 3.95 62.58
	L 4.357 63.5
	M 3.95 62.58
	L 4.158 63.56
	L 4.158 64.56
	L 3.95 65.54
	M 4.158 64.56
	L 4.158 65.56
	L 4.366 66.54
	M 4.158 65.56
	L 4.158 66.56
	M 4.158 63.56
	L 4.366 64.54
	L 4.773 65.45
	M 4.366 64.54
	L 4.574 65.52
	M 0 44
	L 0 45
	L -0.2079 45.98
	M 0 45
	L 0 46
	L -0.2079 46.98
	L -0.2079 47.98
	M -0.2079 46.98
	L -0.4158 47.96
	M 0 46
	L 0 47
	L 0.2079 47.98
	M 0 47
	L 0 48
	L 0.2079 48.98
	L 0.2079 49.98
	M 0.2079 48.98
	L 0.4158 49.96
	L 0.8226 50.87
	M 0.4158 49.96
	L 0.6237 50.93
	M 0 48
	L 0 49
	L -0.2079 49.98
	M 0 49
	L 0 50
	L -0.2079 50.98
	L -0.6146 51.89
	M -0.2079 50.98
	L -0.4158 51.96
	L -0.4158 52.96
	M -0.4158 51.96
	L -0.6237 52.93
	L -1.03 53.85
	L -1.618 54.66
	M -1.03 53.85
	L -1.437 54.76
	L -1.645 55.74
	M -1.437 54.76
	L -1.844 55.68
	M -0.6237 52.93
	L -0.8316 53.91
	L -1.238 54.83
	M -0.8316 53.91
	L -1.04 54.89
	M 0 50
	L 0 51
	L -0.2079 51.98
	M 0 51
	L 0 52
	L 0.2079 52.98
	M 0 52
	L 0 53
	L 0.2079 53.98
	L 0.6146 54.89
	M 0.2079 53.98
	L 0.4158 54.96
	M 0 53
	L 0 54
	L -0.2079 54.98
	M 0 54
	L 0 55
	L 0.2079 55.98
	M 0 55
	L 0 56
	L 0.2079 56.98
	L 0.2079 57.98
	M 0.2079 56.98
	L 0.4158 57.96
	L 0.4158 58.96
	L 0.2079 59.93
	M 0.4158 58.96
	L 0.4158 59.96
	M 0.4158 57.96
	L 0.6237 58.93
	L 0.6237 59.93
	M 0.6237 58.93
	L 0.8316 59.91
	L 1.238 60.83
	L 1.446 61.8
	M 1.238 60.83
	L 1.645 61.74
	L 2.233 62.55
	M 1.645 61.74
	L 2.052 62.65
	M 0.8316 59.91
	L 1.04 60.89
	L 1.446 61.8
	M 1.04 60.89
	L 1.247 61.87
	M 0 56
	L 0 57
	L -0.2079 57.98
	M 0 57
	L 0 58
	L 0.2079 58.98
	M 0 58
	L 0 59
	L 0.2079 59.98
	L 0.2079 60.98
	M 0.2079 59.98
	L 0.4158 60.96
	L 0.8226 61.87
	M 0.4158 60.96
	L 0.6237 61.93
	M 0 59
	L 0 60
	L -0.2079 60.98
	M 0 60
	L 0 61
	L 0.2079 61.98
	M 0 61
	L 0 62
	L -0.2079 62.98
	L -0.2079 63.98
	M -0.2079 62.98
	L -0.4158 63.96
	L -0.8226 64.87
	L -1.03 65.85
	M -0.8226 64.87
	L -1.229 65.78
	M -0.4158 63.96
	L -0.6237 64.93
	L -1.03 65.85
	M -0.6237 64.93
	L -0.8316 65.91
	L -0.8316 66.91
	M -0.8316 65.91
	L -1.04 66.89
	L -1.04 67.89
	L -1.247 68.87
	M -1.04 67.89
	L -1.04 68.89
	L -1.247 69.87
	L -1.654 70.78
	M -1.247 69.87
	L -1.455 70.85
	L -1.455 71.85
	M -1.455 70.85
	L -1.663 71.83
	M -1.04 68.89
	L -1.04 69.89
	L -1.247 70.87
	M -1.04 69.89
	L -1.04 70.89
	M -1.04 66.89
	L -1.247 67.87
	L -1.654 68.78
	M -1.247 67.87
	L -1.455 68.85
	L -1.455 69.85
	M -1.455 68.85
	L -1.663 69.83
	L -2.07 70.74
	L -2.658 71.55
	M -2.07 70.74
	L -2.477 71.65
	M -1.663 69.83
	L -1.871 70.8
	L -2.278 71.72
	M -1.871 70.8
	L -2.079 71.78
	L -2.079 72.78
	L -2.287 73.76
	M -2.079 72.78
	L -2.079 73.78
	L -1.871 74.76
	M -2.079 73.78
	L -2.079 74.78
	M -2.079 71.78
	L -2.287 72.76
	L -2.694 73.67
	M -2.287 72.76
	L -2.495 73.74
	M 0 62
	L 0 63
	L -0.2079 63.98
	M 0 63
	L 0 64
	L -0.2079 64.98
	L -0.6146 65.89
	M -0.2079 64.98
	L -0.4158 65.96
	L -0.4158 66.96
	M -0.4158 65.96
	L -0.6237 66.93
	M 0 64
	L 0 65
	L -0.2079 65.98
	M 0 65
	L 0 66
	L 0.2079 66.98
	L 0.2079 67.98
	M 0.2079 66.98
	L 0.4158 67.96
	L 0.8226 68.87
	M 0.4158 67.96
	L 0.6237 68.93
	M 0 66
	L 0 67
	L -0.2079 67.98
	M 0 67
	L 0 68
	L 0.2079 68.98
	M 0 68
	L 0 69
	L -0.2079 69.98
	L -0.2079 70.98
	M -0.2079 69.98
	L -0.4158 70.96
	L -0.8226 71.87
	L -1.41 72.68
	M -0.8226 71.87
	L -1.229 72.78
	M -0.4158 70.96
	L -0.6237 71.93
	L -1.03 72.85
	M -0.6237 71.93
	L -0.8316 72.91
	L -0.8316 73.91
	M -0.8316 72.91
	L -1.04 73.89
	M 0 69
	L 0 70
	L 0.2079 70.98
	M 0 70
	L 0 71
	L 0.2079 71.98
	L 0.2079 72.98
	M 0.2079 71.98
	L 0.4158 72.96
	M 0 71
	L 0 72
	L -0.2079 72.98
	M 0 72
	L 0 73
"/>
</svg>
